G04*
G04 #@! TF.GenerationSoftware,Altium Limited,Altium Designer,18.1.11 (251)*
G04*
G04 Layer_Color=16711935*
%FSTAX24Y24*%
%MOIN*%
G70*
G01*
G75*
%ADD21C,0.0039*%
G36*
X111168Y115018D02*
Y115016D01*
Y115013D01*
Y115008D01*
Y115001D01*
Y114993D01*
X111167Y114984D01*
Y114973D01*
X111166Y114961D01*
X111165Y114938D01*
X111163Y114914D01*
X111162Y114902D01*
X11116Y114891D01*
X111159Y114881D01*
X111157Y114872D01*
Y114871D01*
X111156Y11487D01*
X111155Y114867D01*
X111154Y114864D01*
X111152Y114856D01*
X111146Y114846D01*
X11114Y114835D01*
X111132Y114822D01*
X111121Y11481D01*
X111108Y114799D01*
X111107D01*
X111106Y114798D01*
X111104Y114797D01*
X111101Y114795D01*
X111098Y114793D01*
X111093Y11479D01*
X111087Y114788D01*
X111081Y114786D01*
X111067Y114781D01*
X11105Y114776D01*
X111031Y114773D01*
X111009Y114772D01*
X111003D01*
X110998Y114773D01*
X110992D01*
X110987Y114773D01*
X110972Y114775D01*
X110956Y114778D01*
X110939Y114781D01*
X110923Y114787D01*
X110908Y114795D01*
X110907D01*
X110907Y114796D01*
X110902Y114799D01*
X110896Y114804D01*
X110888Y114812D01*
X110879Y114821D01*
X11087Y114832D01*
X110862Y114844D01*
X110856Y114859D01*
Y11486D01*
X110855Y114861D01*
X110854Y114864D01*
X110853Y114867D01*
X110852Y114873D01*
X11085Y114878D01*
X110849Y114886D01*
X110848Y114894D01*
X110847Y114904D01*
X110845Y114915D01*
X110844Y114928D01*
X110842Y114942D01*
X110841Y114958D01*
X110841Y114975D01*
X11084Y114993D01*
Y115013D01*
Y11528D01*
X110923D01*
Y115009D01*
Y115009D01*
Y115006D01*
Y115003D01*
Y114999D01*
Y114995D01*
Y114989D01*
X110924Y114975D01*
Y114962D01*
X110924Y114948D01*
X110925Y114936D01*
Y114932D01*
X110926Y114927D01*
Y114926D01*
X110927Y114922D01*
X110929Y114916D01*
X110931Y114909D01*
X110935Y1149D01*
X110939Y114892D01*
X110944Y114884D01*
X110952Y114876D01*
X110952Y114875D01*
X110955Y114873D01*
X11096Y11487D01*
X110967Y114867D01*
X110974Y114864D01*
X110984Y114861D01*
X110995Y114859D01*
X111006Y114858D01*
X111012D01*
X111017Y114859D01*
X111024Y11486D01*
X111031Y114861D01*
X111038Y114864D01*
X111046Y114867D01*
X111053Y114871D01*
X111054Y114872D01*
X111056Y114873D01*
X111059Y114876D01*
X111063Y11488D01*
X111067Y114885D01*
X111071Y114891D01*
X111075Y114898D01*
X111078Y114906D01*
Y114907D01*
X111079Y11491D01*
Y114913D01*
X11108Y114917D01*
X111081Y114921D01*
X111081Y114927D01*
X111082Y114932D01*
X111083Y11494D01*
X111083Y114948D01*
Y114957D01*
X111084Y114966D01*
X111085Y114978D01*
Y11499D01*
Y115003D01*
Y11528D01*
X111168D01*
Y115018D01*
D02*
G37*
G36*
X111382Y115281D02*
X111388Y11528D01*
X111394Y11528D01*
X111409Y115277D01*
X111425Y115271D01*
X111433Y115268D01*
X111441Y115264D01*
X111449Y115259D01*
X111456Y115254D01*
X111463Y115247D01*
X11147Y11524D01*
X11147Y115239D01*
X111471Y115237D01*
X111473Y115235D01*
X111475Y115232D01*
X111477Y115228D01*
X11148Y115223D01*
X111487Y115211D01*
X111493Y115197D01*
X111498Y115181D01*
X111502Y115163D01*
X111503Y115154D01*
Y115143D01*
Y115142D01*
Y115138D01*
X111502Y115132D01*
Y115124D01*
X111501Y115115D01*
X111499Y115105D01*
X111497Y115094D01*
X111494Y115083D01*
Y115082D01*
X111493Y115078D01*
X11149Y115073D01*
X111488Y115066D01*
X111485Y115057D01*
X11148Y115047D01*
X111474Y115037D01*
X111468Y115026D01*
X111468Y115024D01*
X111465Y115021D01*
X111461Y115014D01*
X111455Y115006D01*
X111447Y114995D01*
X111436Y114982D01*
X111425Y114967D01*
X111411Y114951D01*
X11141Y11495D01*
X111409Y114949D01*
X111407Y114947D01*
X111405Y114944D01*
X111398Y114937D01*
X111391Y114928D01*
X111382Y114918D01*
X111374Y114909D01*
X111368Y114901D01*
X111362Y114895D01*
X111362Y114894D01*
X111361Y114892D01*
X111359Y11489D01*
X111357Y114887D01*
X111351Y114878D01*
X111346Y114869D01*
X111503D01*
Y11478D01*
X111227D01*
Y114781D01*
Y114782D01*
X111228Y114785D01*
Y114789D01*
X111229Y114793D01*
X11123Y114798D01*
X111232Y114811D01*
X111235Y114825D01*
X11124Y114841D01*
X111246Y114858D01*
X111254Y114875D01*
Y114876D01*
X111255Y114878D01*
X111256Y11488D01*
X111258Y114884D01*
X111261Y114888D01*
X111264Y114894D01*
X111268Y1149D01*
X111274Y114907D01*
X111279Y114915D01*
X111285Y114924D01*
X111292Y114934D01*
X1113Y114945D01*
X111309Y114956D01*
X11132Y114968D01*
X11133Y114981D01*
X111342Y114995D01*
X111342Y114995D01*
X111344Y114998D01*
X111347Y115001D01*
X11135Y115004D01*
X111354Y115009D01*
X111359Y115015D01*
X111369Y115027D01*
X11138Y11504D01*
X111391Y115053D01*
X111399Y115065D01*
X111403Y11507D01*
X111406Y115075D01*
X111407Y115076D01*
X111409Y11508D01*
X111412Y115086D01*
X111415Y115094D01*
X111418Y115103D01*
X111421Y115113D01*
X111423Y115124D01*
X111424Y115135D01*
Y115136D01*
Y115137D01*
Y11514D01*
X111423Y115146D01*
X111422Y115154D01*
X11142Y115162D01*
X111418Y11517D01*
X111414Y115178D01*
X111409Y115185D01*
X111408Y115186D01*
X111406Y115188D01*
X111403Y11519D01*
X111399Y115194D01*
X111394Y115197D01*
X111387Y115199D01*
X111379Y115201D01*
X111371Y115202D01*
X111368D01*
X111365Y115201D01*
X111362Y1152D01*
X111354Y115197D01*
X111349Y115195D01*
X111344Y115192D01*
X111339Y115188D01*
X111334Y115183D01*
X111329Y115177D01*
X111325Y115169D01*
X111321Y11516D01*
X111318Y115149D01*
X111316Y115137D01*
X111314Y115123D01*
X111236Y115134D01*
Y115134D01*
X111237Y115137D01*
Y115141D01*
X111237Y115146D01*
X111239Y115152D01*
X11124Y11516D01*
X111242Y115168D01*
X111244Y115177D01*
X111249Y115194D01*
X111257Y115213D01*
X111266Y115231D01*
X111271Y115238D01*
X111278Y115245D01*
X111279Y115246D01*
X11128Y115247D01*
X111282Y115249D01*
X111285Y115251D01*
X111288Y115254D01*
X111292Y115257D01*
X111303Y115264D01*
X111317Y115271D01*
X111333Y115276D01*
X111351Y11528D01*
X111362Y115281D01*
X111372Y115282D01*
X111378D01*
X111382Y115281D01*
D02*
G37*
G36*
X116336Y102257D02*
X116341D01*
X116346Y102257D01*
X116352Y102255D01*
X116366Y102251D01*
X116374Y102248D01*
X116382Y102244D01*
X116391Y10224D01*
X116399Y102234D01*
X116408Y102227D01*
X116416Y10222D01*
X116425Y102211D01*
X116433Y1022D01*
X116433Y1022D01*
X116434Y102197D01*
X116436Y102194D01*
X116439Y102189D01*
X116442Y102183D01*
X116445Y102175D01*
X116449Y102166D01*
X116453Y102155D01*
X116456Y102142D01*
X11646Y102127D01*
X116463Y102112D01*
X116467Y102094D01*
X116469Y102075D01*
X116471Y102054D01*
X116472Y102031D01*
X116473Y102007D01*
Y102006D01*
Y102005D01*
Y102001D01*
Y101993D01*
X116472Y101984D01*
X116471Y101973D01*
X11647Y10196D01*
X116469Y101946D01*
X116467Y10193D01*
X116462Y101898D01*
X116455Y101865D01*
X11645Y10185D01*
X116445Y101835D01*
X116439Y101821D01*
X116431Y101809D01*
X11643Y101808D01*
X116429Y101806D01*
X116427Y101803D01*
X116424Y101799D01*
X116419Y101795D01*
X116414Y10179D01*
X116408Y101785D01*
X116402Y101779D01*
X116394Y101773D01*
X116386Y101768D01*
X116368Y101758D01*
X116357Y101754D01*
X116347Y10175D01*
X116335Y101749D01*
X116323Y101748D01*
X116319D01*
X116316Y101749D01*
X116307Y10175D01*
X116297Y101752D01*
X116284Y101756D01*
X116271Y101762D01*
X116258Y101769D01*
X116246Y101779D01*
X116245Y101781D01*
X116241Y101785D01*
X116236Y101793D01*
X116229Y101802D01*
X116222Y101816D01*
X116216Y101832D01*
X116211Y10185D01*
X116206Y101873D01*
X116282Y101883D01*
Y101882D01*
Y101881D01*
X116283Y101878D01*
X116284Y101874D01*
X116286Y101865D01*
X116291Y101855D01*
X116296Y101845D01*
X116304Y101836D01*
X116309Y101833D01*
X116314Y10183D01*
X116321Y101828D01*
X116328Y101827D01*
X116328D01*
X116332Y101828D01*
X116336Y101829D01*
X116342Y101831D01*
X116349Y101834D01*
X116356Y101839D01*
X116363Y101846D01*
X11637Y101856D01*
X11637Y101857D01*
X116371Y101859D01*
X116373Y101861D01*
X116373Y101864D01*
X116376Y101869D01*
X116377Y101874D01*
X116379Y10188D01*
X116381Y101887D01*
X116382Y101896D01*
X116385Y101905D01*
X116386Y101916D01*
X116388Y101927D01*
X116389Y101939D01*
X11639Y101953D01*
X116391Y101969D01*
X11639Y101968D01*
X116388Y101965D01*
X116385Y101961D01*
X116382Y101957D01*
X116376Y101952D01*
X116371Y101947D01*
X116365Y101941D01*
X116359Y101937D01*
X116358Y101936D01*
X116356Y101936D01*
X116351Y101933D01*
X116347Y101931D01*
X116341Y10193D01*
X116334Y101927D01*
X116326Y101927D01*
X116318Y101926D01*
X116314D01*
X11631Y101927D01*
X116305Y101927D01*
X116301Y101928D01*
X116289Y101932D01*
X116277Y101937D01*
X116269Y101941D01*
X116262Y101945D01*
X116255Y10195D01*
X116248Y101956D01*
X116241Y101963D01*
X116234Y101971D01*
X116234Y101972D01*
X116233Y101973D01*
X116231Y101975D01*
X116228Y101979D01*
X116226Y101984D01*
X116222Y101989D01*
X11622Y101995D01*
X116216Y102003D01*
X116213Y102011D01*
X116209Y10202D01*
X116206Y102029D01*
X116204Y10204D01*
X116201Y102052D01*
X1162Y102064D01*
X116199Y102077D01*
X116198Y10209D01*
Y102091D01*
Y102094D01*
Y102098D01*
X116199Y102103D01*
X1162Y102109D01*
X1162Y102118D01*
X116201Y102126D01*
X116203Y102135D01*
X116208Y102155D01*
X116214Y102175D01*
X116219Y102186D01*
X116224Y102195D01*
X11623Y102205D01*
X116237Y102214D01*
X116237Y102214D01*
X116238Y102216D01*
X11624Y102218D01*
X116243Y10222D01*
X116247Y102224D01*
X116251Y102228D01*
X116262Y102236D01*
X116276Y102244D01*
X116292Y102251D01*
X116301Y102254D01*
X116311Y102256D01*
X11632Y102257D01*
X116331Y102258D01*
X116334D01*
X116336Y102257D01*
D02*
G37*
G36*
X116712D02*
X116718D01*
X116723Y102257D01*
X116738Y102255D01*
X116754Y102252D01*
X116771Y102249D01*
X116787Y102243D01*
X116802Y102235D01*
X116803D01*
X116803Y102234D01*
X116808Y102231D01*
X116814Y102226D01*
X116822Y102218D01*
X116831Y102209D01*
X11684Y102198D01*
X116848Y102186D01*
X116854Y102171D01*
Y10217D01*
X116855Y102169D01*
X116856Y102166D01*
X116857Y102163D01*
X116858Y102157D01*
X11686Y102152D01*
X116861Y102144D01*
X116862Y102136D01*
X116863Y102126D01*
X116865Y102115D01*
X116866Y102102D01*
X116868Y102088D01*
X116869Y102072D01*
X116869Y102055D01*
X11687Y102037D01*
Y102017D01*
Y10175D01*
X116787D01*
Y102021D01*
Y102021D01*
Y102024D01*
Y102027D01*
Y102031D01*
Y102035D01*
Y102041D01*
X116786Y102055D01*
Y102068D01*
X116786Y102082D01*
X116785Y102094D01*
Y102098D01*
X116784Y102103D01*
Y102104D01*
X116783Y102108D01*
X116781Y102114D01*
X116779Y102121D01*
X116775Y10213D01*
X116771Y102138D01*
X116766Y102146D01*
X116758Y102154D01*
X116758Y102155D01*
X116755Y102157D01*
X11675Y10216D01*
X116743Y102163D01*
X116736Y102166D01*
X116726Y102169D01*
X116715Y102171D01*
X116704Y102172D01*
X116698D01*
X116693Y102171D01*
X116686Y10217D01*
X116679Y102169D01*
X116672Y102166D01*
X116664Y102163D01*
X116657Y102159D01*
X116656Y102158D01*
X116654Y102157D01*
X116651Y102154D01*
X116647Y10215D01*
X116643Y102145D01*
X116639Y102139D01*
X116635Y102132D01*
X116632Y102124D01*
Y102123D01*
X116631Y10212D01*
Y102117D01*
X11663Y102113D01*
X116629Y102109D01*
X116629Y102103D01*
X116628Y102098D01*
X116627Y10209D01*
X116627Y102082D01*
Y102073D01*
X116626Y102064D01*
X116625Y102052D01*
Y10204D01*
Y102027D01*
Y10175D01*
X116542D01*
Y102012D01*
Y102014D01*
Y102017D01*
Y102022D01*
Y102029D01*
Y102037D01*
X116543Y102046D01*
Y102057D01*
X116544Y102069D01*
X116545Y102092D01*
X116547Y102116D01*
X116548Y102128D01*
X11655Y102139D01*
X116551Y102149D01*
X116553Y102158D01*
Y102159D01*
X116554Y10216D01*
X116555Y102163D01*
X116556Y102166D01*
X116558Y102174D01*
X116564Y102184D01*
X11657Y102195D01*
X116578Y102208D01*
X116589Y10222D01*
X116602Y102231D01*
X116603D01*
X116604Y102232D01*
X116606Y102233D01*
X116609Y102235D01*
X116612Y102237D01*
X116617Y10224D01*
X116623Y102242D01*
X116629Y102244D01*
X116643Y102249D01*
X11666Y102254D01*
X116679Y102257D01*
X116701Y102258D01*
X116707D01*
X116712Y102257D01*
D02*
G37*
G36*
X108538Y101961D02*
Y10196D01*
Y101957D01*
Y101952D01*
Y101945D01*
Y101937D01*
X108537Y101927D01*
Y101917D01*
X108536Y101905D01*
X108535Y101881D01*
X108533Y101858D01*
X108532Y101846D01*
X10853Y101835D01*
X108529Y101824D01*
X108527Y101815D01*
Y101815D01*
X108526Y101813D01*
X108525Y101811D01*
X108525Y101808D01*
X108522Y1018D01*
X108516Y101789D01*
X10851Y101778D01*
X108502Y101766D01*
X108491Y101754D01*
X108478Y101743D01*
X108477D01*
X108476Y101741D01*
X108474Y101741D01*
X108471Y101738D01*
X108468Y101736D01*
X108463Y101734D01*
X108457Y101732D01*
X108451Y10173D01*
X108437Y101724D01*
X10842Y10172D01*
X108401Y101717D01*
X108379Y101715D01*
X108373D01*
X108368Y101716D01*
X108362D01*
X108357Y101717D01*
X108342Y101718D01*
X108326Y101721D01*
X108309Y101725D01*
X108293Y101731D01*
X108278Y101738D01*
X108277D01*
X108277Y101739D01*
X108272Y101743D01*
X108266Y101748D01*
X108258Y101755D01*
X108249Y101764D01*
X10824Y101775D01*
X108232Y101788D01*
X108226Y101803D01*
Y101804D01*
X108225Y101805D01*
X108224Y101807D01*
X108223Y101811D01*
X108222Y101816D01*
X10822Y101822D01*
X108219Y101829D01*
X108218Y101838D01*
X108217Y101848D01*
X108215Y101859D01*
X108214Y101872D01*
X108212Y101886D01*
X108211Y101901D01*
X108211Y101918D01*
X10821Y101937D01*
Y101957D01*
Y102224D01*
X108293D01*
Y101953D01*
Y101952D01*
Y10195D01*
Y101947D01*
Y101943D01*
Y101938D01*
Y101932D01*
X108294Y101919D01*
Y101906D01*
X108294Y101892D01*
X108295Y10188D01*
Y101875D01*
X108296Y101871D01*
Y101869D01*
X108297Y101866D01*
X108299Y10186D01*
X108301Y101852D01*
X108305Y101843D01*
X108309Y101835D01*
X108314Y101827D01*
X108322Y10182D01*
X108322Y101819D01*
X108325Y101817D01*
X10833Y101814D01*
X108337Y101811D01*
X108344Y101808D01*
X108354Y101805D01*
X108365Y101803D01*
X108377Y101802D01*
X108382D01*
X108387Y101803D01*
X108394Y101804D01*
X108401Y101805D01*
X108408Y101807D01*
X108416Y10181D01*
X108423Y101815D01*
X108424Y101815D01*
X108426Y101817D01*
X108429Y10182D01*
X108433Y101824D01*
X108437Y101829D01*
X108441Y101835D01*
X108445Y101841D01*
X108448Y101849D01*
Y101851D01*
X108449Y101854D01*
Y101857D01*
X10845Y101861D01*
X108451Y101865D01*
X108451Y10187D01*
X108452Y101876D01*
X108453Y101883D01*
X108453Y101892D01*
Y1019D01*
X108454Y10191D01*
X108455Y101921D01*
Y101934D01*
Y101947D01*
Y102224D01*
X108538D01*
Y101961D01*
D02*
G37*
G36*
X108866Y102128D02*
X108718D01*
X108704Y102042D01*
X108706Y102043D01*
X108709Y102045D01*
X108714Y102047D01*
X108721Y102051D01*
X108729Y102054D01*
X108738Y102056D01*
X108748Y102058D01*
X108758Y102059D01*
X108763D01*
X108766Y102058D01*
X108771Y102057D01*
X108775Y102057D01*
X108787Y102054D01*
X1088Y102049D01*
X108814Y102043D01*
X108821Y102038D01*
X108828Y102033D01*
X108835Y102027D01*
X108841Y10202D01*
X108842Y10202D01*
X108843Y102018D01*
X108845Y102015D01*
X108848Y102011D01*
X108851Y102006D01*
X108855Y102D01*
X108859Y101994D01*
X108863Y101986D01*
X108866Y101977D01*
X108871Y101968D01*
X108875Y101957D01*
X108877Y101946D01*
X10888Y101933D01*
X108883Y10192D01*
X108883Y101906D01*
X108884Y101892D01*
Y101891D01*
Y101889D01*
Y101885D01*
X108883Y10188D01*
Y101875D01*
X108882Y101868D01*
X108881Y101861D01*
X10888Y101852D01*
X108875Y101833D01*
X108869Y101812D01*
X108864Y101802D01*
X10886Y101792D01*
X108854Y101781D01*
X108847Y10177D01*
X108846Y101769D01*
X108846Y101768D01*
X108843Y101765D01*
X10884Y101761D01*
X108837Y101758D01*
X108832Y101753D01*
X108826Y101748D01*
X108821Y101743D01*
X108814Y101738D01*
X108806Y101732D01*
X108798Y101728D01*
X108788Y101724D01*
X108778Y101721D01*
X108767Y101718D01*
X108756Y101716D01*
X108744Y101715D01*
X108738D01*
X108735Y101716D01*
X10873D01*
X108724Y101718D01*
X108712Y10172D01*
X108698Y101724D01*
X108682Y10173D01*
X108667Y101739D01*
X10866Y101745D01*
X108653Y101751D01*
X108652Y101752D01*
X108651Y101752D01*
X108649Y101755D01*
X108647Y101758D01*
X108644Y101761D01*
X108641Y101766D01*
X108637Y101771D01*
X108633Y101777D01*
X10863Y101784D01*
X108626Y101792D01*
X108622Y1018D01*
X108618Y101809D01*
X108616Y101818D01*
X108613Y101829D01*
X108609Y101852D01*
X108687Y101863D01*
Y101861D01*
X108688Y101858D01*
X10869Y101851D01*
X108691Y101843D01*
X108693Y101835D01*
X108697Y101827D01*
X108701Y101818D01*
X108707Y101811D01*
X108708Y10181D01*
X10871Y101808D01*
X108714Y101805D01*
X108718Y101802D01*
X108724Y101798D01*
X10873Y101795D01*
X108737Y101793D01*
X108744Y101792D01*
X108745D01*
X108749Y101793D01*
X108753Y101794D01*
X108758Y101795D01*
X108765Y101798D01*
X108772Y101803D01*
X108779Y101808D01*
X108786Y101816D01*
X108786Y101818D01*
X108789Y101821D01*
X108792Y101826D01*
X108795Y101834D01*
X108798Y101844D01*
X108801Y101857D01*
X108803Y101872D01*
X108803Y101889D01*
Y10189D01*
Y101892D01*
Y101894D01*
Y101898D01*
X108803Y101906D01*
X108801Y101916D01*
X108799Y101927D01*
X108796Y101939D01*
X108792Y101949D01*
X108786Y101959D01*
X108785Y10196D01*
X108783Y101963D01*
X108779Y101966D01*
X108774Y101971D01*
X108768Y101974D01*
X10876Y101978D01*
X108752Y101981D01*
X108742Y101982D01*
X108741D01*
X108736Y101981D01*
X10873Y10198D01*
X108722Y101977D01*
X108712Y101973D01*
X108702Y101966D01*
X108697Y101963D01*
X108692Y101957D01*
X108687Y101952D01*
X108681Y101946D01*
X108618Y101957D01*
X108658Y102217D01*
X108866D01*
Y102128D01*
D02*
G37*
G36*
X099958Y102008D02*
Y102006D01*
Y102003D01*
Y101998D01*
Y101991D01*
Y101983D01*
X099957Y101973D01*
Y101963D01*
X099956Y101951D01*
X099955Y101928D01*
X099953Y101904D01*
X099952Y101892D01*
X09995Y101881D01*
X099949Y101871D01*
X099947Y101862D01*
Y101861D01*
X099946Y10186D01*
X099945Y101857D01*
X099944Y101854D01*
X099942Y101846D01*
X099936Y101836D01*
X09993Y101825D01*
X099922Y101812D01*
X099911Y1018D01*
X099898Y101789D01*
X099897D01*
X099896Y101788D01*
X099894Y101787D01*
X099891Y101785D01*
X099888Y101783D01*
X099883Y10178D01*
X099877Y101778D01*
X099871Y101776D01*
X099857Y101771D01*
X09984Y101766D01*
X099821Y101763D01*
X099799Y101762D01*
X099793D01*
X099788Y101763D01*
X099782D01*
X099777Y101763D01*
X099762Y101765D01*
X099746Y101768D01*
X099729Y101771D01*
X099713Y101777D01*
X099698Y101785D01*
X099697D01*
X099697Y101786D01*
X099692Y101789D01*
X099685Y101794D01*
X099678Y101802D01*
X099669Y101811D01*
X09966Y101822D01*
X099652Y101834D01*
X099646Y101849D01*
Y10185D01*
X099645Y101851D01*
X099644Y101854D01*
X099643Y101857D01*
X099642Y101862D01*
X09964Y101868D01*
X099639Y101876D01*
X099638Y101884D01*
X099637Y101894D01*
X099635Y101905D01*
X099634Y101918D01*
X099632Y101932D01*
X099631Y101948D01*
X099631Y101965D01*
X09963Y101983D01*
Y102003D01*
Y10227D01*
X099713D01*
Y101999D01*
Y101999D01*
Y101996D01*
Y101993D01*
Y101989D01*
Y101985D01*
Y101979D01*
X099714Y101965D01*
Y101952D01*
X099714Y101938D01*
X099715Y101926D01*
Y101922D01*
X099716Y101917D01*
Y101916D01*
X099717Y101912D01*
X099719Y101906D01*
X099721Y101899D01*
X099725Y10189D01*
X099729Y101882D01*
X099734Y101874D01*
X099742Y101866D01*
X099742Y101865D01*
X099745Y101863D01*
X09975Y10186D01*
X099757Y101857D01*
X099764Y101854D01*
X099774Y101851D01*
X099785Y101849D01*
X099796Y101848D01*
X099802D01*
X099807Y101849D01*
X099814Y10185D01*
X099821Y101851D01*
X099828Y101854D01*
X099836Y101857D01*
X099843Y101861D01*
X099844Y101862D01*
X099846Y101863D01*
X099849Y101866D01*
X099853Y10187D01*
X099857Y101875D01*
X099861Y101881D01*
X099865Y101888D01*
X099868Y101896D01*
Y101897D01*
X099869Y1019D01*
Y101903D01*
X09987Y101907D01*
X099871Y101911D01*
X099871Y101917D01*
X099872Y101922D01*
X099873Y10193D01*
X099873Y101938D01*
Y101947D01*
X099874Y101956D01*
X099875Y101968D01*
Y10198D01*
Y101993D01*
Y10227D01*
X099958D01*
Y102008D01*
D02*
G37*
G36*
X100258Y101955D02*
X100309D01*
Y101871D01*
X100258D01*
Y10177D01*
X100181D01*
Y101871D01*
X100013D01*
Y101954D01*
X100191Y102272D01*
X100258D01*
Y101955D01*
D02*
G37*
%LPC*%
G36*
X116326Y102178D02*
X116322D01*
X116319Y102177D01*
X116314Y102176D01*
X116308Y102173D01*
X116302Y10217D01*
X116296Y102165D01*
X11629Y102158D01*
X116289Y102157D01*
X116288Y102155D01*
X116285Y102149D01*
X116282Y102142D01*
X116279Y102132D01*
X116277Y102121D01*
X116276Y102106D01*
X116275Y10209D01*
Y102089D01*
Y102088D01*
Y102086D01*
Y102082D01*
X116276Y102074D01*
X116277Y102064D01*
X116279Y102052D01*
X116282Y10204D01*
X116286Y102029D01*
X116291Y10202D01*
X116292Y102019D01*
X116294Y102016D01*
X116297Y102012D01*
X116302Y102008D01*
X116308Y102004D01*
X116314Y102001D01*
X116322Y101998D01*
X11633Y101997D01*
X116334D01*
X116338Y101998D01*
X116343Y102D01*
X116349Y102002D01*
X116356Y102006D01*
X116362Y102011D01*
X116368Y102018D01*
X116369Y102019D01*
X11637Y102022D01*
X116373Y102027D01*
X116376Y102035D01*
X116379Y102044D01*
X116382Y102054D01*
X116383Y102067D01*
X116384Y102082D01*
Y102083D01*
Y102084D01*
Y102086D01*
Y102089D01*
X116383Y102098D01*
X116382Y102109D01*
X116379Y10212D01*
X116376Y102132D01*
X116373Y102143D01*
X116367Y102154D01*
X116366Y102155D01*
X116364Y102157D01*
X11636Y102161D01*
X116355Y102166D01*
X116349Y102171D01*
X116342Y102175D01*
X116334Y102177D01*
X116326Y102178D01*
D02*
G37*
G36*
X100181Y102125D02*
X100087Y101955D01*
X100181D01*
Y102125D01*
D02*
G37*
%LPD*%
D21*
X109785Y098987D02*
Y099361D01*
X110455Y098987D02*
Y099361D01*
X109785D02*
X110455D01*
X109785Y098987D02*
X110455D01*
X101669Y098983D02*
Y099357D01*
X101Y098983D02*
Y099357D01*
Y098983D02*
X101669D01*
X101Y099357D02*
X101669D01*
X111395Y098987D02*
Y099361D01*
X112065Y098987D02*
Y099361D01*
X111395D02*
X112065D01*
X111395Y098987D02*
X112065D01*
X108845Y098987D02*
Y099361D01*
X108175Y098987D02*
Y099361D01*
Y098987D02*
X108845D01*
X108175Y099361D02*
X108845D01*
X103149Y098983D02*
Y099357D01*
X10248Y098983D02*
Y099357D01*
Y098983D02*
X103149D01*
X10248Y099357D02*
X103149D01*
X100189Y098983D02*
Y099357D01*
X09952Y098983D02*
Y099357D01*
Y098983D02*
X100189D01*
X09952Y099357D02*
X100189D01*
X106423Y099105D02*
X106797D01*
X106423Y099774D02*
X106797D01*
X106423Y099105D02*
Y099774D01*
X106797Y099105D02*
Y099774D01*
X105353Y099105D02*
X105727D01*
X105353Y099774D02*
X105727D01*
X105353Y099105D02*
Y099774D01*
X105727Y099105D02*
Y099774D01*
X104283Y099105D02*
X104657D01*
X104283Y099774D02*
X104657D01*
X104283Y099105D02*
Y099774D01*
X104657Y099105D02*
Y099774D01*
X106473Y101615D02*
X106847D01*
X106473Y102285D02*
X106847D01*
X106473Y101615D02*
Y102285D01*
X106847Y101615D02*
Y102285D01*
X097643Y101285D02*
X098017D01*
X097643Y101955D02*
X098017D01*
X097643Y101285D02*
Y101955D01*
X098017Y101285D02*
Y101955D01*
X096925Y101285D02*
X0973D01*
X096925Y101955D02*
X0973D01*
X096925Y101285D02*
Y101955D01*
X0973Y101285D02*
Y101955D01*
X096208Y101285D02*
X096582D01*
X096208Y101955D02*
X096582D01*
X096208Y101285D02*
Y101955D01*
X096582Y101285D02*
Y101955D01*
X09549Y101285D02*
X095865D01*
X09549Y101955D02*
X095865D01*
X09549Y101285D02*
Y101955D01*
X095865Y101285D02*
Y101955D01*
X094773Y101285D02*
X095147D01*
X094773Y101955D02*
X095147D01*
X094773Y101285D02*
Y101955D01*
X095147Y101285D02*
Y101955D01*
X116265Y114373D02*
Y114747D01*
X115595Y114373D02*
Y114747D01*
Y114373D02*
X116265D01*
X115595Y114747D02*
X116265D01*
X092213Y080676D02*
Y081364D01*
X092587Y080676D02*
Y081364D01*
X092213Y080676D02*
X092587D01*
X092213Y081364D02*
X092587D01*
X095315Y081292D02*
X095689D01*
X095315Y080623D02*
X095689D01*
Y081292D01*
X095315Y080623D02*
Y081292D01*
X094538Y080623D02*
X094912D01*
X094538Y081292D02*
X094912D01*
X094538Y080623D02*
Y081292D01*
X094912Y080623D02*
Y081292D01*
X094486Y071893D02*
X095174D01*
X094486Y072267D02*
X095174D01*
Y071893D02*
Y072267D01*
X094486Y071893D02*
Y072267D01*
X093843Y114096D02*
Y114785D01*
X094217Y114096D02*
Y114785D01*
X093843Y114096D02*
X094217D01*
X093843Y114785D02*
X094217D01*
X099293Y112475D02*
Y113164D01*
X099667Y112475D02*
Y113164D01*
X099293Y112475D02*
X099667D01*
X099293Y113164D02*
X099667D01*
X115093Y074233D02*
Y074902D01*
X115467Y074233D02*
Y074902D01*
X115093Y074233D02*
X115467D01*
X115093Y074902D02*
X115467D01*
X113783Y074233D02*
Y074902D01*
X114157Y074233D02*
Y074902D01*
X113783Y074233D02*
X114157D01*
X113783Y074902D02*
X114157D01*
X114438Y074233D02*
Y074902D01*
X114812Y074233D02*
Y074902D01*
X114438Y074233D02*
X114812D01*
X114438Y074902D02*
X114812D01*
X115753Y074286D02*
X116127D01*
X115753Y074974D02*
X116127D01*
X115753Y074286D02*
Y074974D01*
X116127Y074286D02*
Y074974D01*
X10366Y070013D02*
Y070682D01*
X104034Y070013D02*
Y070682D01*
X10366Y070013D02*
X104034D01*
X10366Y070682D02*
X104034D01*
X104383Y070065D02*
X104757D01*
X104383Y070754D02*
X104757D01*
X104383Y070065D02*
Y070754D01*
X104757Y070065D02*
Y070754D01*
X105447Y070013D02*
Y070682D01*
X105073Y070013D02*
Y070682D01*
X105447D01*
X105073Y070013D02*
X105447D01*
X097783Y070013D02*
Y070682D01*
X098157Y070013D02*
Y070682D01*
X097783Y070013D02*
X098157D01*
X097783Y070682D02*
X098157D01*
X098456Y070065D02*
X09883D01*
X098456Y070754D02*
X09883D01*
X098456Y070065D02*
Y070754D01*
X09883Y070065D02*
Y070754D01*
X099493Y070013D02*
Y070682D01*
X099119Y070013D02*
Y070682D01*
X099493D01*
X099119Y070013D02*
X099493D01*
X100983Y121295D02*
X101357D01*
X100983Y120606D02*
X101357D01*
Y121295D01*
X100983Y120606D02*
Y121295D01*
X101935Y120678D02*
Y121347D01*
X101561Y120678D02*
Y121347D01*
X101935D01*
X101561Y120678D02*
X101935D01*
X102517D02*
Y121347D01*
X102143Y120678D02*
Y121347D01*
X102517D01*
X102143Y120678D02*
X102517D01*
X105655Y121242D02*
X106029D01*
X105655Y120553D02*
X106029D01*
Y121242D01*
X105655Y120553D02*
Y121242D01*
X106654Y120625D02*
Y121295D01*
X10628Y120625D02*
Y121295D01*
X106654D01*
X10628Y120625D02*
X106654D01*
X107284D02*
Y121295D01*
X10691Y120625D02*
Y121295D01*
X107284D01*
X10691Y120625D02*
X107284D01*
X094837Y114096D02*
Y114785D01*
X094463Y114096D02*
Y114785D01*
X094837D01*
X094463Y114096D02*
X094837D01*
X115303Y116343D02*
X115973D01*
X115303Y116717D02*
X115973D01*
Y116343D02*
Y116717D01*
X115303Y116343D02*
Y116717D01*
X116045Y115758D02*
Y116132D01*
X115356Y115758D02*
Y116132D01*
Y115758D02*
X116045D01*
X115356Y116132D02*
X116045D01*
X115303Y115537D02*
X115973D01*
X115303Y115163D02*
X115973D01*
X115303D02*
Y115537D01*
X115973Y115163D02*
Y115537D01*
X097243Y076291D02*
X097617D01*
X097243Y07698D02*
X097617D01*
X097243Y076291D02*
Y07698D01*
X097617Y076291D02*
Y07698D01*
X097243Y077576D02*
X097617D01*
X097243Y078264D02*
X097617D01*
X097243Y077576D02*
Y078264D01*
X097617Y077576D02*
Y078264D01*
X096092Y080623D02*
Y081292D01*
X096466Y080623D02*
Y081292D01*
X096092Y080623D02*
X096466D01*
X096092Y081292D02*
X096466D01*
X093762Y080623D02*
Y081292D01*
X094136Y080623D02*
Y081292D01*
X093762Y080623D02*
X094136D01*
X093762Y081292D02*
X094136D01*
X096873Y081364D02*
X097247D01*
X096873Y080676D02*
X097247D01*
Y081364D01*
X096873Y080676D02*
Y081364D01*
X092985Y080623D02*
Y081292D01*
X093359Y080623D02*
Y081292D01*
X092985Y080623D02*
X093359D01*
X092985Y081292D02*
X093359D01*
X112713Y101503D02*
Y102172D01*
X113087Y101503D02*
Y102172D01*
X112713Y101503D02*
X113087D01*
X112713Y102172D02*
X113087D01*
X112043Y101503D02*
Y102172D01*
X112417Y101503D02*
Y102172D01*
X112043Y101503D02*
X112417D01*
X112043Y102172D02*
X112417D01*
X110293Y105554D02*
X110667D01*
X110293Y104866D02*
X110667D01*
Y105554D01*
X110293Y104866D02*
Y105554D01*
X111471Y104533D02*
Y104907D01*
X11216Y104533D02*
Y104907D01*
X111471D02*
X11216D01*
X111471Y104533D02*
X11216D01*
X111471Y105113D02*
Y105487D01*
X11216Y105113D02*
Y105487D01*
X111471D02*
X11216D01*
X111471Y105113D02*
X11216D01*
X111471Y105693D02*
Y106067D01*
X11216Y105693D02*
Y106067D01*
X111471D02*
X11216D01*
X111471Y105693D02*
X11216D01*
X111643Y109464D02*
X112017D01*
X111643Y108776D02*
X112017D01*
Y109464D01*
X111643Y108776D02*
Y109464D01*
X111643Y107116D02*
X112017D01*
X111643Y107804D02*
X112017D01*
X111643Y107116D02*
Y107804D01*
X112017Y107116D02*
Y107804D01*
X11342Y111947D02*
X114089D01*
X11342Y111573D02*
X114089D01*
X11342D02*
Y111947D01*
X114089Y111573D02*
Y111947D01*
X11342Y11096D02*
X114089D01*
X11342Y111335D02*
X114089D01*
Y11096D02*
Y111335D01*
X11342Y11096D02*
Y111335D01*
X11342Y110722D02*
X114089D01*
X11342Y110348D02*
X114089D01*
X11342D02*
Y110722D01*
X114089Y110348D02*
Y110722D01*
X11193Y111337D02*
X112599D01*
X11193Y110963D02*
X112599D01*
X11193D02*
Y111337D01*
X112599Y110963D02*
Y111337D01*
X11261Y110123D02*
Y110497D01*
X111921Y110123D02*
Y110497D01*
Y110123D02*
X11261D01*
X111921Y110497D02*
X11261D01*
X105523Y101446D02*
X105897D01*
X105523Y102134D02*
X105897D01*
X105523Y101446D02*
Y102134D01*
X105897Y101446D02*
Y102134D01*
X104123Y101466D02*
X104497D01*
X104123Y102154D02*
X104497D01*
X104123Y101466D02*
Y102154D01*
X104497Y101466D02*
Y102154D01*
X098663Y112475D02*
X099037D01*
X098663Y113164D02*
X099037D01*
X098663Y112475D02*
Y113164D01*
X099037Y112475D02*
Y113164D01*
M02*
