G04*
G04 #@! TF.GenerationSoftware,Altium Limited,Altium Designer,18.1.11 (251)*
G04*
G04 Layer_Color=8388736*
%FSTAX24Y24*%
%MOIN*%
G70*
G01*
G75*
%ADD42R,0.0356X0.0434*%
%ADD43R,0.0434X0.0356*%
%ADD44R,0.0474X0.1104*%
%ADD45R,0.1104X0.0710*%
%ADD46R,0.0474X0.0474*%
%ADD47R,0.0474X0.0474*%
%ADD48R,0.0986X0.0671*%
%ADD49R,0.2836X0.2836*%
%ADD50R,0.0474X0.1080*%
%ADD51C,0.0474*%
%ADD52R,0.0710X0.1104*%
%ADD53R,0.0316X0.0946*%
%ADD54O,0.0237X0.0513*%
%ADD55O,0.0513X0.0237*%
%ADD56R,0.0580X0.0474*%
%ADD57R,0.0280X0.0946*%
%ADD58R,0.0280X0.0946*%
%ADD59R,0.1340X0.0671*%
%ADD60C,0.1064*%
%ADD61C,0.0789*%
%ADD62O,0.0680X0.0980*%
%ADD63R,0.0680X0.0980*%
%ADD64C,0.0789*%
%ADD65C,0.0700*%
%ADD66R,0.0730X0.0730*%
%ADD67C,0.0730*%
%ADD68C,0.0680*%
%ADD69C,0.0671*%
%ADD70C,0.0867*%
D42*
X109825Y099174D02*
D03*
X110415D02*
D03*
X10163Y09917D02*
D03*
X101039D02*
D03*
X111435Y099174D02*
D03*
X112025D02*
D03*
X108805Y099174D02*
D03*
X108215D02*
D03*
X10311Y09917D02*
D03*
X102519D02*
D03*
X10015D02*
D03*
X099559D02*
D03*
X116225Y11456D02*
D03*
X115635D02*
D03*
X115933Y11653D02*
D03*
X115343D02*
D03*
X115343Y11535D02*
D03*
X115933D02*
D03*
X113459Y11176D02*
D03*
X11405D02*
D03*
X11405Y111147D02*
D03*
X113459D02*
D03*
X113459Y110535D02*
D03*
X11405D02*
D03*
X111969Y11115D02*
D03*
X11256D02*
D03*
D43*
X10661Y099144D02*
D03*
Y099735D02*
D03*
X10554Y099144D02*
D03*
Y099735D02*
D03*
X10447Y099144D02*
D03*
Y099735D02*
D03*
X10666Y101655D02*
D03*
Y102245D02*
D03*
X09783Y101325D02*
D03*
Y101915D02*
D03*
X097113Y101325D02*
D03*
Y101915D02*
D03*
X096395Y101325D02*
D03*
Y101915D02*
D03*
X095677Y101325D02*
D03*
Y101915D02*
D03*
X09496Y101325D02*
D03*
Y101915D02*
D03*
X095502Y081253D02*
D03*
Y080662D02*
D03*
X094725Y080662D02*
D03*
Y081253D02*
D03*
X11528Y074272D02*
D03*
Y074863D02*
D03*
X11397Y074272D02*
D03*
Y074863D02*
D03*
X114625Y074272D02*
D03*
Y074863D02*
D03*
X103847Y070052D02*
D03*
Y070643D02*
D03*
X10526Y070643D02*
D03*
Y070052D02*
D03*
X09797Y070052D02*
D03*
Y070643D02*
D03*
X099306Y070643D02*
D03*
Y070052D02*
D03*
X101748Y121308D02*
D03*
Y120717D02*
D03*
X10233Y121308D02*
D03*
Y120717D02*
D03*
X106467Y121255D02*
D03*
Y120665D02*
D03*
X107097Y121255D02*
D03*
Y120665D02*
D03*
X096279Y080662D02*
D03*
Y081253D02*
D03*
X093949Y080662D02*
D03*
Y081253D02*
D03*
X093172Y080662D02*
D03*
Y081253D02*
D03*
X1129Y101542D02*
D03*
Y102133D02*
D03*
X11223Y101542D02*
D03*
Y102133D02*
D03*
D44*
X098457Y109153D02*
D03*
Y110964D02*
D03*
X09549Y10916D02*
D03*
Y110971D02*
D03*
D45*
X10823Y120389D02*
D03*
Y121491D02*
D03*
X10331Y120319D02*
D03*
Y121421D02*
D03*
X10638Y070279D02*
D03*
Y071381D02*
D03*
X10048Y070279D02*
D03*
Y071381D02*
D03*
D46*
X0924Y080705D02*
D03*
Y081335D02*
D03*
X09403Y114126D02*
D03*
Y114756D02*
D03*
X09948Y112505D02*
D03*
Y113135D02*
D03*
X11594Y074315D02*
D03*
Y074945D02*
D03*
X10457Y070095D02*
D03*
Y070725D02*
D03*
X098643Y070095D02*
D03*
Y070725D02*
D03*
X10117Y121265D02*
D03*
Y120635D02*
D03*
X105842Y121213D02*
D03*
Y120583D02*
D03*
X09465Y114756D02*
D03*
Y114126D02*
D03*
X09743Y07632D02*
D03*
Y07695D02*
D03*
Y077605D02*
D03*
Y078235D02*
D03*
X09706Y081335D02*
D03*
Y080705D02*
D03*
X11048Y105525D02*
D03*
Y104895D02*
D03*
X11183Y109435D02*
D03*
Y108805D02*
D03*
Y107145D02*
D03*
Y107775D02*
D03*
X10571Y101475D02*
D03*
Y102105D02*
D03*
X10431Y101495D02*
D03*
Y102125D02*
D03*
X09885Y112505D02*
D03*
Y113135D02*
D03*
D47*
X095145Y07208D02*
D03*
X094515D02*
D03*
X116015Y115945D02*
D03*
X115385D02*
D03*
X1115Y10472D02*
D03*
X11213D02*
D03*
X1115Y1053D02*
D03*
X11213D02*
D03*
X1115Y10588D02*
D03*
X11213D02*
D03*
X11258Y11031D02*
D03*
X11195D02*
D03*
D48*
X09391Y0868D02*
D03*
Y0851D02*
D03*
X09265Y074258D02*
D03*
Y07229D02*
D03*
X09702Y074258D02*
D03*
Y07229D02*
D03*
X09284Y10935D02*
D03*
Y11105D02*
D03*
D49*
X09678Y115576D02*
D03*
D50*
X097686Y11288D02*
D03*
X095874D02*
D03*
D51*
X1175Y06705D02*
D03*
X092Y067D02*
D03*
X09205Y1218D02*
D03*
X1175Y12175D02*
D03*
D52*
X116311Y09635D02*
D03*
X115209D02*
D03*
X116311Y09474D02*
D03*
X115209D02*
D03*
X116311Y09313D02*
D03*
X115209D02*
D03*
X116311Y09152D02*
D03*
X115209D02*
D03*
D53*
X1105Y116044D02*
D03*
X1115D02*
D03*
X112D02*
D03*
X1135Y113996D02*
D03*
X1125Y116044D02*
D03*
X114D02*
D03*
X113Y113996D02*
D03*
X1125D02*
D03*
X112D02*
D03*
X1115D02*
D03*
X1105D02*
D03*
X111D02*
D03*
Y116044D02*
D03*
X114Y113996D02*
D03*
X113Y116044D02*
D03*
X1135D02*
D03*
X11421Y100986D02*
D03*
X11471D02*
D03*
X11371Y103034D02*
D03*
X11671Y100986D02*
D03*
Y103034D02*
D03*
X11721D02*
D03*
X11621D02*
D03*
X11571D02*
D03*
X11521D02*
D03*
X11471D02*
D03*
X11371Y100986D02*
D03*
X11521D02*
D03*
X11421Y103034D02*
D03*
X11571Y100986D02*
D03*
X11621D02*
D03*
X11721D02*
D03*
X11087Y102987D02*
D03*
X11037D02*
D03*
X11137Y10094D02*
D03*
X10837Y102987D02*
D03*
Y10094D02*
D03*
X10787D02*
D03*
X10887D02*
D03*
X10937D02*
D03*
X10987D02*
D03*
X11037D02*
D03*
X11137Y102987D02*
D03*
X10987D02*
D03*
X11087Y10094D02*
D03*
X10937Y102987D02*
D03*
X10887D02*
D03*
X10787D02*
D03*
X10229Y103034D02*
D03*
X10179D02*
D03*
X10279Y100986D02*
D03*
X09979Y103034D02*
D03*
Y100986D02*
D03*
X09929D02*
D03*
X10029D02*
D03*
X10079D02*
D03*
X10129D02*
D03*
X10179D02*
D03*
X10279Y103034D02*
D03*
X10129D02*
D03*
X10229Y100986D02*
D03*
X10079Y103034D02*
D03*
X10029D02*
D03*
X09929D02*
D03*
D54*
X113758Y108974D02*
D03*
X114073D02*
D03*
X114388D02*
D03*
X114703D02*
D03*
X115017D02*
D03*
X115332D02*
D03*
X115647D02*
D03*
X115962D02*
D03*
Y105666D02*
D03*
X115647D02*
D03*
X115332D02*
D03*
X115017D02*
D03*
X114703D02*
D03*
X114388D02*
D03*
X114073D02*
D03*
X113758D02*
D03*
D55*
X116514Y108422D02*
D03*
Y108107D02*
D03*
Y107792D02*
D03*
Y107477D02*
D03*
Y107163D02*
D03*
Y106848D02*
D03*
Y106533D02*
D03*
Y106218D02*
D03*
X113206D02*
D03*
Y106533D02*
D03*
Y106848D02*
D03*
Y107163D02*
D03*
Y107477D02*
D03*
Y107792D02*
D03*
Y108107D02*
D03*
Y108422D02*
D03*
D56*
X09433Y073D02*
D03*
Y0738D02*
D03*
X0954Y073D02*
D03*
Y0738D02*
D03*
D57*
X09558Y077504D02*
D03*
D58*
X09408Y075456D02*
D03*
X09458D02*
D03*
X09508D02*
D03*
X09558D02*
D03*
X09408Y077504D02*
D03*
X09458D02*
D03*
X09508D02*
D03*
D59*
X11161Y070215D02*
D03*
Y071868D02*
D03*
X110019Y070215D02*
D03*
Y071868D02*
D03*
D60*
X09391Y095978D02*
D03*
Y088102D02*
D03*
D61*
X113026Y119833D02*
D03*
X112042D02*
D03*
X111058D02*
D03*
X110074D02*
D03*
X099572Y1198D02*
D03*
X098588D02*
D03*
X097604D02*
D03*
X096619D02*
D03*
X103437Y0689D02*
D03*
X104421D02*
D03*
X105406D02*
D03*
X10639D02*
D03*
X097543D02*
D03*
X098527D02*
D03*
X099511D02*
D03*
X100496D02*
D03*
X112284Y0689D02*
D03*
X1113D02*
D03*
X110316D02*
D03*
X109331D02*
D03*
D62*
X09332Y07651D02*
D03*
X09432D02*
D03*
X09532D02*
D03*
X09632D02*
D03*
X09332Y07951D02*
D03*
X09432D02*
D03*
X09532D02*
D03*
D63*
X09632D02*
D03*
D64*
X11612Y073295D02*
D03*
Y071535D02*
D03*
X11357Y071525D02*
D03*
X11356Y073295D02*
D03*
D65*
X11053Y10731D02*
D03*
Y109279D02*
D03*
D66*
X11786Y11732D02*
D03*
Y11358D02*
D03*
D67*
Y11632D02*
D03*
Y11532D02*
D03*
Y11058D02*
D03*
Y11158D02*
D03*
Y11258D02*
D03*
D68*
X10178Y118272D02*
D03*
X10278D02*
D03*
X10378D02*
D03*
X10478D02*
D03*
X10578D02*
D03*
X10678D02*
D03*
X10778D02*
D03*
X097496Y097028D02*
D03*
X098496D02*
D03*
X099496D02*
D03*
X100496D02*
D03*
X101496D02*
D03*
X102496D02*
D03*
X103496D02*
D03*
X106457D02*
D03*
X107457D02*
D03*
X108457D02*
D03*
X109457D02*
D03*
X110457D02*
D03*
X111457D02*
D03*
X112457D02*
D03*
D69*
X10778Y105272D02*
D03*
X10678D02*
D03*
X10578D02*
D03*
X10478D02*
D03*
X10378D02*
D03*
X10278D02*
D03*
X10178D02*
D03*
X103496Y084028D02*
D03*
X102496D02*
D03*
X101496D02*
D03*
X100496D02*
D03*
X099496D02*
D03*
X098496D02*
D03*
X097496D02*
D03*
X112457D02*
D03*
X111457D02*
D03*
X110457D02*
D03*
X109457D02*
D03*
X108457D02*
D03*
X107457D02*
D03*
X106457D02*
D03*
D70*
X105976Y076827D02*
D03*
X103976D02*
D03*
M02*
