G04*
G04 #@! TF.GenerationSoftware,Altium Limited,Altium Designer,18.1.11 (251)*
G04*
G04 Layer_Color=128*
%FSTAX24Y24*%
%MOIN*%
G70*
G01*
G75*
%ADD87C,0.0020*%
D87*
X093674Y095978D02*
X094146D01*
X09391Y095742D02*
Y096214D01*
X093674Y088102D02*
X094146D01*
X09391Y087866D02*
Y088338D01*
X11283Y119833D02*
X113223D01*
X113026Y119636D02*
Y12003D01*
X111845Y119833D02*
X112239D01*
X112042Y119636D02*
Y12003D01*
X110861Y119833D02*
X111255D01*
X111058Y119636D02*
Y12003D01*
X109877Y119833D02*
X11027D01*
X110074Y119636D02*
Y12003D01*
X099375Y1198D02*
X099769D01*
X099572Y119603D02*
Y119997D01*
X098391Y1198D02*
X098785D01*
X098588Y119603D02*
Y119997D01*
X097407Y1198D02*
X0978D01*
X097604Y119603D02*
Y119997D01*
X096422Y1198D02*
X096816D01*
X096619Y119603D02*
Y119997D01*
X093165Y07651D02*
X093475D01*
X09332Y076355D02*
Y076665D01*
X094165Y07651D02*
X094475D01*
X09432Y076355D02*
Y076665D01*
X095165Y07651D02*
X095475D01*
X09532Y076355D02*
Y076665D01*
X096165Y07651D02*
X096475D01*
X09632Y076355D02*
Y076665D01*
X093165Y07951D02*
X093475D01*
X09332Y079355D02*
Y079665D01*
X094165Y07951D02*
X094475D01*
X09432Y079355D02*
Y079665D01*
X095165Y07951D02*
X095475D01*
X09532Y079355D02*
Y079665D01*
X096165Y07951D02*
X096475D01*
X09632Y079355D02*
Y079665D01*
X10324Y0689D02*
X103634D01*
X103437Y068703D02*
Y069097D01*
X104225Y0689D02*
X104618D01*
X104421Y068703D02*
Y069097D01*
X105209Y0689D02*
X105603D01*
X105406Y068703D02*
Y069097D01*
X106193Y0689D02*
X106587D01*
X10639Y068703D02*
Y069097D01*
X115923Y073295D02*
X116317D01*
X11612Y073098D02*
Y073492D01*
X115923Y071535D02*
X116317D01*
X11612Y071338D02*
Y071732D01*
X113373Y071525D02*
X113767D01*
X11357Y071328D02*
Y071722D01*
X113363Y073295D02*
X113757D01*
X11356Y073098D02*
Y073492D01*
X097346Y0689D02*
X09774D01*
X097543Y068703D02*
Y069097D01*
X09833Y0689D02*
X098724D01*
X098527Y068703D02*
Y069097D01*
X099315Y0689D02*
X099708D01*
X099511Y068703D02*
Y069097D01*
X100299Y0689D02*
X100693D01*
X100496Y068703D02*
Y069097D01*
X112087Y0689D02*
X112481D01*
X112284Y068703D02*
Y069097D01*
X111103Y0689D02*
X111497D01*
X1113Y068703D02*
Y069097D01*
X110119Y0689D02*
X110513D01*
X110316Y068703D02*
Y069097D01*
X109135Y0689D02*
X109528D01*
X109331Y068703D02*
Y069097D01*
X11037Y10731D02*
X11069D01*
X11053Y10715D02*
Y10747D01*
X11037Y109279D02*
X11069D01*
X11053Y109119D02*
Y109439D01*
X117663Y11732D02*
X118057D01*
X11786Y117123D02*
Y117517D01*
X117663Y11632D02*
X118057D01*
X11786Y116123D02*
Y116517D01*
X117663Y11532D02*
X118057D01*
X11786Y115123D02*
Y115517D01*
X117663Y11058D02*
X118057D01*
X11786Y110383D02*
Y110777D01*
X117663Y11158D02*
X118057D01*
X11786Y111383D02*
Y111777D01*
X117663Y11258D02*
X118057D01*
X11786Y112383D02*
Y112777D01*
X117663Y11358D02*
X118057D01*
X11786Y113383D02*
Y113777D01*
X10163Y118272D02*
X10193D01*
X10178Y118122D02*
Y118422D01*
X10263Y118272D02*
X10293D01*
X10278Y118122D02*
Y118422D01*
X10363Y118272D02*
X10393D01*
X10378Y118122D02*
Y118422D01*
X10463Y118272D02*
X10493D01*
X10478Y118122D02*
Y118422D01*
X10563Y118272D02*
X10593D01*
X10578Y118122D02*
Y118422D01*
X10663Y118272D02*
X10693D01*
X10678Y118122D02*
Y118422D01*
X10763Y118272D02*
X10793D01*
X10778Y118122D02*
Y118422D01*
X107602Y105272D02*
X107957D01*
X10778Y105094D02*
Y105449D01*
X106602Y105272D02*
X106957D01*
X10678Y105094D02*
Y105449D01*
X105602Y105272D02*
X105957D01*
X10578Y105094D02*
Y105449D01*
X104602Y105272D02*
X104957D01*
X10478Y105094D02*
Y105449D01*
X103602Y105272D02*
X103957D01*
X10378Y105094D02*
Y105449D01*
X102602Y105272D02*
X102957D01*
X10278Y105094D02*
Y105449D01*
X101602Y105272D02*
X101957D01*
X10178Y105094D02*
Y105449D01*
X10578Y076827D02*
X106173D01*
X105976Y07663D02*
Y077024D01*
X10378Y076827D02*
X104173D01*
X103976Y07663D02*
Y077024D01*
X097346Y097028D02*
X097646D01*
X097496Y096878D02*
Y097178D01*
X098346Y097028D02*
X098646D01*
X098496Y096878D02*
Y097178D01*
X099346Y097028D02*
X099646D01*
X099496Y096878D02*
Y097178D01*
X100346Y097028D02*
X100646D01*
X100496Y096878D02*
Y097178D01*
X101346Y097028D02*
X101646D01*
X101496Y096878D02*
Y097178D01*
X102346Y097028D02*
X102646D01*
X102496Y096878D02*
Y097178D01*
X103346Y097028D02*
X103646D01*
X103496Y096878D02*
Y097178D01*
X103319Y084028D02*
X103673D01*
X103496Y08385D02*
Y084205D01*
X102318Y084028D02*
X102673D01*
X102496Y08385D02*
Y084205D01*
X101319Y084028D02*
X101673D01*
X101496Y08385D02*
Y084205D01*
X100318Y084028D02*
X100673D01*
X100496Y08385D02*
Y084205D01*
X099319Y084028D02*
X099673D01*
X099496Y08385D02*
Y084205D01*
X098319Y084028D02*
X098673D01*
X098496Y08385D02*
Y084205D01*
X097318Y084028D02*
X097673D01*
X097496Y08385D02*
Y084205D01*
X106307Y097028D02*
X106607D01*
X106457Y096878D02*
Y097178D01*
X107307Y097028D02*
X107607D01*
X107457Y096878D02*
Y097178D01*
X108307Y097028D02*
X108607D01*
X108457Y096878D02*
Y097178D01*
X109307Y097028D02*
X109607D01*
X109457Y096878D02*
Y097178D01*
X110307Y097028D02*
X110607D01*
X110457Y096878D02*
Y097178D01*
X111307Y097028D02*
X111607D01*
X111457Y096878D02*
Y097178D01*
X112307Y097028D02*
X112607D01*
X112457Y096878D02*
Y097178D01*
X11228Y084028D02*
X112634D01*
X112457Y08385D02*
Y084205D01*
X11128Y084028D02*
X111634D01*
X111457Y08385D02*
Y084205D01*
X11028Y084028D02*
X110634D01*
X110457Y08385D02*
Y084205D01*
X10928Y084028D02*
X109634D01*
X109457Y08385D02*
Y084205D01*
X10828Y084028D02*
X108634D01*
X108457Y08385D02*
Y084205D01*
X10728Y084028D02*
X107634D01*
X107457Y08385D02*
Y084205D01*
X10628Y084028D02*
X106634D01*
X106457Y08385D02*
Y084205D01*
X11794Y1184D02*
X11806D01*
X118Y11834D02*
Y11846D01*
X11754Y1144D02*
X11766D01*
X1176Y11434D02*
Y11446D01*
X11794Y0784D02*
X11806D01*
X118Y07834D02*
Y07846D01*
X11794Y0768D02*
X11806D01*
X118Y07674D02*
Y07686D01*
X11794Y0752D02*
X11806D01*
X118Y07514D02*
Y07526D01*
X11794Y0736D02*
X11806D01*
X118Y07354D02*
Y07366D01*
X11794Y072D02*
X11806D01*
X118Y07194D02*
Y07206D01*
X11794Y0704D02*
X11806D01*
X118Y07034D02*
Y07046D01*
X11754Y0696D02*
X11766D01*
X1176Y06954D02*
Y06966D01*
X11714Y1184D02*
X11726D01*
X1172Y11834D02*
Y11846D01*
X11674Y1176D02*
X11686D01*
X1168Y11754D02*
Y11766D01*
X11714Y1168D02*
X11726D01*
X1172Y11674D02*
Y11686D01*
X11674Y116D02*
X11686D01*
X1168Y11594D02*
Y11606D01*
X11674Y1144D02*
X11686D01*
X1168Y11434D02*
Y11446D01*
X11674Y1128D02*
X11686D01*
X1168Y11274D02*
Y11286D01*
X11674Y0904D02*
X11686D01*
X1168Y09034D02*
Y09046D01*
X11674Y0888D02*
X11686D01*
X1168Y08874D02*
Y08886D01*
X11674Y0872D02*
X11686D01*
X1168Y08714D02*
Y08726D01*
X11674Y0856D02*
X11686D01*
X1168Y08554D02*
Y08566D01*
X11674Y084D02*
X11686D01*
X1168Y08394D02*
Y08406D01*
X11674Y0824D02*
X11686D01*
X1168Y08234D02*
Y08246D01*
X11674Y0792D02*
X11686D01*
X1168Y07914D02*
Y07926D01*
X11674Y076D02*
X11686D01*
X1168Y07594D02*
Y07606D01*
X11674Y0744D02*
X11686D01*
X1168Y07434D02*
Y07446D01*
X11674Y0728D02*
X11686D01*
X1168Y07274D02*
Y07286D01*
X11674Y0696D02*
X11686D01*
X1168Y06954D02*
Y06966D01*
X11634Y1184D02*
X11646D01*
X1164Y11834D02*
Y11846D01*
X11594Y1176D02*
X11606D01*
X116Y11754D02*
Y11766D01*
X11634Y1168D02*
X11646D01*
X1164Y11674D02*
Y11686D01*
X11634Y1152D02*
X11646D01*
X1164Y11514D02*
Y11526D01*
X11594Y0984D02*
X11606D01*
X116Y09834D02*
Y09846D01*
X11634Y0848D02*
X11646D01*
X1164Y08474D02*
Y08486D01*
X11594Y084D02*
X11606D01*
X116Y08394D02*
Y08406D01*
X11634Y0832D02*
X11646D01*
X1164Y08314D02*
Y08326D01*
X11594Y0824D02*
X11606D01*
X116Y08234D02*
Y08246D01*
X11634Y0816D02*
X11646D01*
X1164Y08154D02*
Y08166D01*
X11594Y0808D02*
X11606D01*
X116Y08074D02*
Y08086D01*
X11634Y0784D02*
X11646D01*
X1164Y07834D02*
Y07846D01*
X11594Y0776D02*
X11606D01*
X116Y07754D02*
Y07766D01*
X11634Y0768D02*
X11646D01*
X1164Y07674D02*
Y07686D01*
X11594Y076D02*
X11606D01*
X116Y07594D02*
Y07606D01*
X11634Y0752D02*
X11646D01*
X1164Y07514D02*
Y07526D01*
X11594Y0696D02*
X11606D01*
X116Y06954D02*
Y06966D01*
X11554Y1184D02*
X11566D01*
X1156Y11834D02*
Y11846D01*
X11514Y1176D02*
X11526D01*
X1152Y11754D02*
Y11766D01*
X11554Y1072D02*
X11566D01*
X1156Y10714D02*
Y10726D01*
X11554Y0992D02*
X11566D01*
X1156Y09914D02*
Y09926D01*
X11514Y0984D02*
X11526D01*
X1152Y09834D02*
Y09846D01*
X11554Y0976D02*
X11566D01*
X1156Y09754D02*
Y09766D01*
X11554Y0896D02*
X11566D01*
X1156Y08954D02*
Y08966D01*
X11554Y088D02*
X11566D01*
X1156Y08794D02*
Y08806D01*
X11554Y0864D02*
X11566D01*
X1156Y08634D02*
Y08646D01*
X11554Y0832D02*
X11566D01*
X1156Y08314D02*
Y08326D01*
X11554Y0816D02*
X11566D01*
X1156Y08154D02*
Y08166D01*
X11514Y0808D02*
X11526D01*
X1152Y08074D02*
Y08086D01*
X11554Y08D02*
X11566D01*
X1156Y07994D02*
Y08006D01*
X11514Y0776D02*
X11526D01*
X1152Y07754D02*
Y07766D01*
X11554Y0736D02*
X11566D01*
X1156Y07354D02*
Y07366D01*
X11514Y0712D02*
X11526D01*
X1152Y07114D02*
Y07126D01*
X11514Y0696D02*
X11526D01*
X1152Y06954D02*
Y06966D01*
X11474Y1184D02*
X11486D01*
X1148Y11834D02*
Y11846D01*
X11434Y1176D02*
X11446D01*
X1144Y11754D02*
Y11766D01*
X11474Y1168D02*
X11486D01*
X1148Y11674D02*
Y11686D01*
X11434Y116D02*
X11446D01*
X1144Y11594D02*
Y11606D01*
X11474Y1072D02*
X11486D01*
X1148Y10714D02*
Y10726D01*
X11474Y0992D02*
X11486D01*
X1148Y09914D02*
Y09926D01*
X11434Y0968D02*
X11446D01*
X1144Y09674D02*
Y09686D01*
X11434Y0952D02*
X11446D01*
X1144Y09514D02*
Y09526D01*
X11434Y0936D02*
X11446D01*
X1144Y09354D02*
Y09366D01*
X11434Y0824D02*
X11446D01*
X1144Y08234D02*
Y08246D01*
X11474Y0816D02*
X11486D01*
X1148Y08154D02*
Y08166D01*
X11434Y0808D02*
X11446D01*
X1144Y08074D02*
Y08086D01*
X11474Y08D02*
X11486D01*
X1148Y07994D02*
Y08006D01*
X11434Y0792D02*
X11446D01*
X1144Y07914D02*
Y07926D01*
X11474Y0768D02*
X11486D01*
X1148Y07674D02*
Y07686D01*
X11434Y076D02*
X11446D01*
X1144Y07594D02*
Y07606D01*
X11474Y0736D02*
X11486D01*
X1148Y07354D02*
Y07366D01*
X11434Y0728D02*
X11446D01*
X1144Y07274D02*
Y07286D01*
X11474Y072D02*
X11486D01*
X1148Y07194D02*
Y07206D01*
X11434Y0712D02*
X11446D01*
X1144Y07114D02*
Y07126D01*
X11434Y0696D02*
X11446D01*
X1144Y06954D02*
Y06966D01*
X11354Y1208D02*
X11366D01*
X1136Y12074D02*
Y12086D01*
X11354Y1192D02*
X11366D01*
X1136Y11914D02*
Y11926D01*
X11394Y1184D02*
X11406D01*
X114Y11834D02*
Y11846D01*
X11394Y1168D02*
X11406D01*
X114Y11674D02*
Y11686D01*
X11394Y1072D02*
X11406D01*
X114Y10714D02*
Y10726D01*
X11354Y1D02*
X11366D01*
X1136Y09994D02*
Y10006D01*
X11354Y0984D02*
X11366D01*
X1136Y09834D02*
Y09846D01*
X11394Y0976D02*
X11406D01*
X114Y09754D02*
Y09766D01*
X11354Y0968D02*
X11366D01*
X1136Y09674D02*
Y09686D01*
X11394Y096D02*
X11406D01*
X114Y09594D02*
Y09606D01*
X11354Y0952D02*
X11366D01*
X1136Y09514D02*
Y09526D01*
X11394Y0944D02*
X11406D01*
X114Y09434D02*
Y09446D01*
X11354Y0936D02*
X11366D01*
X1136Y09354D02*
Y09366D01*
X11394Y0928D02*
X11406D01*
X114Y09274D02*
Y09286D01*
X11354Y092D02*
X11366D01*
X1136Y09194D02*
Y09206D01*
X11354Y0904D02*
X11366D01*
X1136Y09034D02*
Y09046D01*
X11354Y0888D02*
X11366D01*
X1136Y08874D02*
Y08886D01*
X11354Y0872D02*
X11366D01*
X1136Y08714D02*
Y08726D01*
X11354Y0856D02*
X11366D01*
X1136Y08554D02*
Y08566D01*
X11354Y084D02*
X11366D01*
X1136Y08394D02*
Y08406D01*
X11394Y08D02*
X11406D01*
X114Y07994D02*
Y08006D01*
X11354Y0792D02*
X11366D01*
X1136Y07914D02*
Y07926D01*
X11394Y0784D02*
X11406D01*
X114Y07834D02*
Y07846D01*
X11354Y076D02*
X11366D01*
X1136Y07594D02*
Y07606D01*
X11394Y072D02*
X11406D01*
X114Y07194D02*
Y07206D01*
X11354Y0664D02*
X11366D01*
X1136Y06634D02*
Y06646D01*
X11314Y1216D02*
X11326D01*
X1132Y12154D02*
Y12166D01*
X11274Y1208D02*
X11286D01*
X1128Y12074D02*
Y12086D01*
X11314Y1184D02*
X11326D01*
X1132Y11834D02*
Y11846D01*
X11274Y1176D02*
X11286D01*
X1128Y11754D02*
Y11766D01*
X11314Y1008D02*
X11326D01*
X1132Y10074D02*
Y10086D01*
X11274Y1D02*
X11286D01*
X1128Y09994D02*
Y10006D01*
X11314Y0992D02*
X11326D01*
X1132Y09914D02*
Y09926D01*
X11314Y0848D02*
X11326D01*
X1132Y08474D02*
Y08486D01*
X11314Y0832D02*
X11326D01*
X1132Y08314D02*
Y08326D01*
X11274Y0808D02*
X11286D01*
X1128Y08074D02*
Y08086D01*
X11314Y08D02*
X11326D01*
X1132Y07994D02*
Y08006D01*
X11274Y0792D02*
X11286D01*
X1128Y07914D02*
Y07926D01*
X11314Y0784D02*
X11326D01*
X1132Y07834D02*
Y07846D01*
X11274Y0776D02*
X11286D01*
X1128Y07754D02*
Y07766D01*
X11274Y0744D02*
X11286D01*
X1128Y07434D02*
Y07446D01*
X11274Y0728D02*
X11286D01*
X1128Y07274D02*
Y07286D01*
X11314Y072D02*
X11326D01*
X1132Y07194D02*
Y07206D01*
X11274Y0712D02*
X11286D01*
X1128Y07114D02*
Y07126D01*
X11314Y0704D02*
X11326D01*
X1132Y07034D02*
Y07046D01*
X11274Y0696D02*
X11286D01*
X1128Y06954D02*
Y06966D01*
X11274Y0664D02*
X11286D01*
X1128Y06634D02*
Y06646D01*
X11234Y1216D02*
X11246D01*
X1124Y12154D02*
Y12166D01*
X11194Y1208D02*
X11206D01*
X112Y12074D02*
Y12086D01*
X11234Y1184D02*
X11246D01*
X1124Y11834D02*
Y11846D01*
X11194Y1D02*
X11206D01*
X112Y09994D02*
Y10006D01*
X11194Y0984D02*
X11206D01*
X112Y09834D02*
Y09846D01*
X11234Y0976D02*
X11246D01*
X1124Y09754D02*
Y09766D01*
X11234Y0944D02*
X11246D01*
X1124Y09434D02*
Y09446D01*
X11194Y0936D02*
X11206D01*
X112Y09354D02*
Y09366D01*
X11234Y0928D02*
X11246D01*
X1124Y09274D02*
Y09286D01*
X11194Y092D02*
X11206D01*
X112Y09194D02*
Y09206D01*
X11234Y0912D02*
X11246D01*
X1124Y09114D02*
Y09126D01*
X11194Y0904D02*
X11206D01*
X112Y09034D02*
Y09046D01*
X11234Y0896D02*
X11246D01*
X1124Y08954D02*
Y08966D01*
X11194Y0888D02*
X11206D01*
X112Y08874D02*
Y08886D01*
X11234Y088D02*
X11246D01*
X1124Y08794D02*
Y08806D01*
X11194Y0872D02*
X11206D01*
X112Y08714D02*
Y08726D01*
X11234Y0864D02*
X11246D01*
X1124Y08634D02*
Y08646D01*
X11194Y0856D02*
X11206D01*
X112Y08554D02*
Y08566D01*
X11234Y0848D02*
X11246D01*
X1124Y08474D02*
Y08486D01*
X11234Y0832D02*
X11246D01*
X1124Y08314D02*
Y08326D01*
X11194Y0824D02*
X11206D01*
X112Y08234D02*
Y08246D01*
X11194Y0792D02*
X11206D01*
X112Y07914D02*
Y07926D01*
X11234Y0784D02*
X11246D01*
X1124Y07834D02*
Y07846D01*
X11194Y0776D02*
X11206D01*
X112Y07754D02*
Y07766D01*
X11234Y0768D02*
X11246D01*
X1124Y07674D02*
Y07686D01*
X11194Y0744D02*
X11206D01*
X112Y07434D02*
Y07446D01*
X11234Y0736D02*
X11246D01*
X1124Y07354D02*
Y07366D01*
X11194Y0728D02*
X11206D01*
X112Y07274D02*
Y07286D01*
X11194Y0712D02*
X11206D01*
X112Y07114D02*
Y07126D01*
X11194Y0696D02*
X11206D01*
X112Y06954D02*
Y06966D01*
X11194Y068D02*
X11206D01*
X112Y06794D02*
Y06806D01*
X11194Y0664D02*
X11206D01*
X112Y06634D02*
Y06646D01*
X11154Y1216D02*
X11166D01*
X1116Y12154D02*
Y12166D01*
X11154Y1184D02*
X11166D01*
X1116Y11834D02*
Y11846D01*
X11114Y1176D02*
X11126D01*
X1112Y11754D02*
Y11766D01*
X11114Y1096D02*
X11126D01*
X1112Y10954D02*
Y10966D01*
X11114Y1D02*
X11126D01*
X1112Y09994D02*
Y10006D01*
X11114Y0984D02*
X11126D01*
X1112Y09834D02*
Y09846D01*
X11154Y0976D02*
X11166D01*
X1116Y09754D02*
Y09766D01*
X11154Y0944D02*
X11166D01*
X1116Y09434D02*
Y09446D01*
X11114Y0936D02*
X11126D01*
X1112Y09354D02*
Y09366D01*
X11154Y0928D02*
X11166D01*
X1116Y09274D02*
Y09286D01*
X11114Y092D02*
X11126D01*
X1112Y09194D02*
Y09206D01*
X11154Y0912D02*
X11166D01*
X1116Y09114D02*
Y09126D01*
X11114Y0904D02*
X11126D01*
X1112Y09034D02*
Y09046D01*
X11154Y0896D02*
X11166D01*
X1116Y08954D02*
Y08966D01*
X11114Y0888D02*
X11126D01*
X1112Y08874D02*
Y08886D01*
X11154Y088D02*
X11166D01*
X1116Y08794D02*
Y08806D01*
X11114Y0872D02*
X11126D01*
X1112Y08714D02*
Y08726D01*
X11154Y0864D02*
X11166D01*
X1116Y08634D02*
Y08646D01*
X11154Y0832D02*
X11166D01*
X1116Y08314D02*
Y08326D01*
X11114Y0824D02*
X11126D01*
X1112Y08234D02*
Y08246D01*
X11154Y0816D02*
X11166D01*
X1116Y08154D02*
Y08166D01*
X11154Y08D02*
X11166D01*
X1116Y07994D02*
Y08006D01*
X11114Y0792D02*
X11126D01*
X1112Y07914D02*
Y07926D01*
X11154Y0784D02*
X11166D01*
X1116Y07834D02*
Y07846D01*
X11114Y0776D02*
X11126D01*
X1112Y07754D02*
Y07766D01*
X11154Y0768D02*
X11166D01*
X1116Y07674D02*
Y07686D01*
X11114Y076D02*
X11126D01*
X1112Y07594D02*
Y07606D01*
X11154Y0736D02*
X11166D01*
X1116Y07354D02*
Y07366D01*
X11114Y0712D02*
X11126D01*
X1112Y07114D02*
Y07126D01*
X11114Y068D02*
X11126D01*
X1112Y06794D02*
Y06806D01*
X11114Y0664D02*
X11126D01*
X1112Y06634D02*
Y06646D01*
X11034Y1208D02*
X11046D01*
X1104Y12074D02*
Y12086D01*
X11034Y1128D02*
X11046D01*
X1104Y11274D02*
Y11286D01*
X11034Y108D02*
X11046D01*
X1104Y10794D02*
Y10806D01*
X11034Y1064D02*
X11046D01*
X1104Y10634D02*
Y10646D01*
X11074Y0992D02*
X11086D01*
X1108Y09914D02*
Y09926D01*
X11074Y0976D02*
X11086D01*
X1108Y09754D02*
Y09766D01*
X11074Y096D02*
X11086D01*
X1108Y09594D02*
Y09606D01*
X11074Y0944D02*
X11086D01*
X1108Y09434D02*
Y09446D01*
X11034Y0936D02*
X11046D01*
X1104Y09354D02*
Y09366D01*
X11074Y0928D02*
X11086D01*
X1108Y09274D02*
Y09286D01*
X11034Y092D02*
X11046D01*
X1104Y09194D02*
Y09206D01*
X11074Y0912D02*
X11086D01*
X1108Y09114D02*
Y09126D01*
X11034Y0904D02*
X11046D01*
X1104Y09034D02*
Y09046D01*
X11074Y0896D02*
X11086D01*
X1108Y08954D02*
Y08966D01*
X11034Y0888D02*
X11046D01*
X1104Y08874D02*
Y08886D01*
X11074Y088D02*
X11086D01*
X1108Y08794D02*
Y08806D01*
X11034Y0872D02*
X11046D01*
X1104Y08714D02*
Y08726D01*
X11074Y0864D02*
X11086D01*
X1108Y08634D02*
Y08646D01*
X11034Y0856D02*
X11046D01*
X1104Y08554D02*
Y08566D01*
X11074Y0848D02*
X11086D01*
X1108Y08474D02*
Y08486D01*
X11074Y0832D02*
X11086D01*
X1108Y08314D02*
Y08326D01*
X11034Y0824D02*
X11046D01*
X1104Y08234D02*
Y08246D01*
X11074Y0816D02*
X11086D01*
X1108Y08154D02*
Y08166D01*
X11074Y0784D02*
X11086D01*
X1108Y07834D02*
Y07846D01*
X11034Y0776D02*
X11046D01*
X1104Y07754D02*
Y07766D01*
X11074Y0768D02*
X11086D01*
X1108Y07674D02*
Y07686D01*
X11034Y076D02*
X11046D01*
X1104Y07594D02*
Y07606D01*
X11034Y0728D02*
X11046D01*
X1104Y07274D02*
Y07286D01*
X11034Y0712D02*
X11046D01*
X1104Y07114D02*
Y07126D01*
X11034Y068D02*
X11046D01*
X1104Y06794D02*
Y06806D01*
X11034Y0664D02*
X11046D01*
X1104Y06634D02*
Y06646D01*
X10994Y1216D02*
X11006D01*
X11Y12154D02*
Y12166D01*
X10954Y1208D02*
X10966D01*
X1096Y12074D02*
Y12086D01*
X10954Y1144D02*
X10966D01*
X1096Y11434D02*
Y11446D01*
X10994Y1136D02*
X11006D01*
X11Y11354D02*
Y11366D01*
X10994Y1104D02*
X11006D01*
X11Y11034D02*
Y11046D01*
X10994Y1088D02*
X11006D01*
X11Y10874D02*
Y10886D01*
X10954Y1048D02*
X10966D01*
X1096Y10474D02*
Y10486D01*
X10954Y0984D02*
X10966D01*
X1096Y09834D02*
Y09846D01*
X10994Y0976D02*
X11006D01*
X11Y09754D02*
Y09766D01*
X10994Y096D02*
X11006D01*
X11Y09594D02*
Y09606D01*
X10994Y0944D02*
X11006D01*
X11Y09434D02*
Y09446D01*
X10994Y0928D02*
X11006D01*
X11Y09274D02*
Y09286D01*
X10994Y0912D02*
X11006D01*
X11Y09114D02*
Y09126D01*
X10994Y0896D02*
X11006D01*
X11Y08954D02*
Y08966D01*
X10994Y088D02*
X11006D01*
X11Y08794D02*
Y08806D01*
X10994Y0864D02*
X11006D01*
X11Y08634D02*
Y08646D01*
X10994Y0832D02*
X11006D01*
X11Y08314D02*
Y08326D01*
X10954Y0824D02*
X10966D01*
X1096Y08234D02*
Y08246D01*
X10994Y0816D02*
X11006D01*
X11Y08154D02*
Y08166D01*
X10994Y08D02*
X11006D01*
X11Y07994D02*
Y08006D01*
X10994Y0784D02*
X11006D01*
X11Y07834D02*
Y07846D01*
X10954Y0776D02*
X10966D01*
X1096Y07754D02*
Y07766D01*
X10994Y0768D02*
X11006D01*
X11Y07674D02*
Y07686D01*
X10954Y076D02*
X10966D01*
X1096Y07594D02*
Y07606D01*
X10954Y0744D02*
X10966D01*
X1096Y07434D02*
Y07446D01*
X10954Y0712D02*
X10966D01*
X1096Y07114D02*
Y07126D01*
X10954Y0696D02*
X10966D01*
X1096Y06954D02*
Y06966D01*
X10954Y068D02*
X10966D01*
X1096Y06794D02*
Y06806D01*
X10954Y0664D02*
X10966D01*
X1096Y06634D02*
Y06646D01*
X10914Y12D02*
X10926D01*
X1092Y11994D02*
Y12006D01*
X10914Y0992D02*
X10926D01*
X1092Y09914D02*
Y09926D01*
X10874Y0984D02*
X10886D01*
X1088Y09834D02*
Y09846D01*
X10874Y0936D02*
X10886D01*
X1088Y09354D02*
Y09366D01*
X10874Y092D02*
X10886D01*
X1088Y09194D02*
Y09206D01*
X10874Y0904D02*
X10886D01*
X1088Y09034D02*
Y09046D01*
X10874Y0888D02*
X10886D01*
X1088Y08874D02*
Y08886D01*
X10874Y0872D02*
X10886D01*
X1088Y08714D02*
Y08726D01*
X10874Y0856D02*
X10886D01*
X1088Y08554D02*
Y08566D01*
X10914Y0832D02*
X10926D01*
X1092Y08314D02*
Y08326D01*
X10874Y0824D02*
X10886D01*
X1088Y08234D02*
Y08246D01*
X10914Y0816D02*
X10926D01*
X1092Y08154D02*
Y08166D01*
X10914Y08D02*
X10926D01*
X1092Y07994D02*
Y08006D01*
X10874Y0792D02*
X10886D01*
X1088Y07914D02*
Y07926D01*
X10914Y0768D02*
X10926D01*
X1092Y07674D02*
Y07686D01*
X10874Y076D02*
X10886D01*
X1088Y07594D02*
Y07606D01*
X10874Y0744D02*
X10886D01*
X1088Y07434D02*
Y07446D01*
X10874Y0712D02*
X10886D01*
X1088Y07114D02*
Y07126D01*
X10874Y068D02*
X10886D01*
X1088Y06794D02*
Y06806D01*
X10874Y0664D02*
X10886D01*
X1088Y06634D02*
Y06646D01*
X10834Y096D02*
X10846D01*
X1084Y09594D02*
Y09606D01*
X10834Y0944D02*
X10846D01*
X1084Y09434D02*
Y09446D01*
X10794Y0936D02*
X10806D01*
X108Y09354D02*
Y09366D01*
X10834Y0928D02*
X10846D01*
X1084Y09274D02*
Y09286D01*
X10794Y092D02*
X10806D01*
X108Y09194D02*
Y09206D01*
X10834Y0912D02*
X10846D01*
X1084Y09114D02*
Y09126D01*
X10794Y0904D02*
X10806D01*
X108Y09034D02*
Y09046D01*
X10834Y0896D02*
X10846D01*
X1084Y08954D02*
Y08966D01*
X10794Y0888D02*
X10806D01*
X108Y08874D02*
Y08886D01*
X10834Y088D02*
X10846D01*
X1084Y08794D02*
Y08806D01*
X10794Y0872D02*
X10806D01*
X108Y08714D02*
Y08726D01*
X10834Y0864D02*
X10846D01*
X1084Y08634D02*
Y08646D01*
X10834Y0832D02*
X10846D01*
X1084Y08314D02*
Y08326D01*
X10794Y0824D02*
X10806D01*
X108Y08234D02*
Y08246D01*
X10834Y0816D02*
X10846D01*
X1084Y08154D02*
Y08166D01*
X10834Y08D02*
X10846D01*
X1084Y07994D02*
Y08006D01*
X10794Y0792D02*
X10806D01*
X108Y07914D02*
Y07926D01*
X10834Y0784D02*
X10846D01*
X1084Y07834D02*
Y07846D01*
X10834Y0768D02*
X10846D01*
X1084Y07674D02*
Y07686D01*
X10794Y076D02*
X10806D01*
X108Y07594D02*
Y07606D01*
X10794Y0744D02*
X10806D01*
X108Y07434D02*
Y07446D01*
X10834Y0688D02*
X10846D01*
X1084Y06874D02*
Y06886D01*
X10794Y0664D02*
X10806D01*
X108Y06634D02*
Y06646D01*
X10714Y116D02*
X10726D01*
X1072Y11594D02*
Y11606D01*
X10714Y1144D02*
X10726D01*
X1072Y11434D02*
Y11446D01*
X10714Y1112D02*
X10726D01*
X1072Y11114D02*
Y11126D01*
X10714Y1096D02*
X10726D01*
X1072Y10954D02*
Y10966D01*
X10714Y108D02*
X10726D01*
X1072Y10794D02*
Y10806D01*
X10714Y1064D02*
X10726D01*
X1072Y10634D02*
Y10646D01*
X10714Y1016D02*
X10726D01*
X1072Y10154D02*
Y10166D01*
X10754Y0992D02*
X10766D01*
X1076Y09914D02*
Y09926D01*
X10754Y0976D02*
X10766D01*
X1076Y09754D02*
Y09766D01*
X10754Y0944D02*
X10766D01*
X1076Y09434D02*
Y09446D01*
X10714Y0936D02*
X10726D01*
X1072Y09354D02*
Y09366D01*
X10754Y0928D02*
X10766D01*
X1076Y09274D02*
Y09286D01*
X10714Y092D02*
X10726D01*
X1072Y09194D02*
Y09206D01*
X10754Y0912D02*
X10766D01*
X1076Y09114D02*
Y09126D01*
X10714Y0904D02*
X10726D01*
X1072Y09034D02*
Y09046D01*
X10754Y0896D02*
X10766D01*
X1076Y08954D02*
Y08966D01*
X10714Y0888D02*
X10726D01*
X1072Y08874D02*
Y08886D01*
X10754Y088D02*
X10766D01*
X1076Y08794D02*
Y08806D01*
X10714Y0872D02*
X10726D01*
X1072Y08714D02*
Y08726D01*
X10754Y0864D02*
X10766D01*
X1076Y08634D02*
Y08646D01*
X10714Y0856D02*
X10726D01*
X1072Y08554D02*
Y08566D01*
X10754Y0832D02*
X10766D01*
X1076Y08314D02*
Y08326D01*
X10714Y0824D02*
X10726D01*
X1072Y08234D02*
Y08246D01*
X10754Y0816D02*
X10766D01*
X1076Y08154D02*
Y08166D01*
X10754Y08D02*
X10766D01*
X1076Y07994D02*
Y08006D01*
X10714Y0792D02*
X10726D01*
X1072Y07914D02*
Y07926D01*
X10754Y0784D02*
X10766D01*
X1076Y07834D02*
Y07846D01*
X10714Y0776D02*
X10726D01*
X1072Y07754D02*
Y07766D01*
X10714Y076D02*
X10726D01*
X1072Y07594D02*
Y07606D01*
X10714Y0744D02*
X10726D01*
X1072Y07434D02*
Y07446D01*
X10754Y072D02*
X10766D01*
X1076Y07194D02*
Y07206D01*
X10714Y0696D02*
X10726D01*
X1072Y06954D02*
Y06966D01*
X10714Y068D02*
X10726D01*
X1072Y06794D02*
Y06806D01*
X10714Y0664D02*
X10726D01*
X1072Y06634D02*
Y06646D01*
X10634Y1176D02*
X10646D01*
X1064Y11754D02*
Y11766D01*
X10634Y116D02*
X10646D01*
X1064Y11594D02*
Y11606D01*
X10674Y1152D02*
X10686D01*
X1068Y11514D02*
Y11526D01*
X10634Y1144D02*
X10646D01*
X1064Y11434D02*
Y11446D01*
X10674Y112D02*
X10686D01*
X1068Y11194D02*
Y11206D01*
X10634Y1112D02*
X10646D01*
X1064Y11114D02*
Y11126D01*
X10674Y1104D02*
X10686D01*
X1068Y11034D02*
Y11046D01*
X10634Y1096D02*
X10646D01*
X1064Y10954D02*
Y10966D01*
X10674Y1088D02*
X10686D01*
X1068Y10874D02*
Y10886D01*
X10634Y108D02*
X10646D01*
X1064Y10794D02*
Y10806D01*
X10674Y1072D02*
X10686D01*
X1068Y10714D02*
Y10726D01*
X10634Y1064D02*
X10646D01*
X1064Y10634D02*
Y10646D01*
X10674Y0944D02*
X10686D01*
X1068Y09434D02*
Y09446D01*
X10634Y0936D02*
X10646D01*
X1064Y09354D02*
Y09366D01*
X10674Y0928D02*
X10686D01*
X1068Y09274D02*
Y09286D01*
X10634Y092D02*
X10646D01*
X1064Y09194D02*
Y09206D01*
X10674Y0912D02*
X10686D01*
X1068Y09114D02*
Y09126D01*
X10634Y0904D02*
X10646D01*
X1064Y09034D02*
Y09046D01*
X10674Y0896D02*
X10686D01*
X1068Y08954D02*
Y08966D01*
X10634Y0888D02*
X10646D01*
X1064Y08874D02*
Y08886D01*
X10674Y088D02*
X10686D01*
X1068Y08794D02*
Y08806D01*
X10634Y0856D02*
X10646D01*
X1064Y08554D02*
Y08566D01*
X10674Y0832D02*
X10686D01*
X1068Y08314D02*
Y08326D01*
X10634Y0824D02*
X10646D01*
X1064Y08234D02*
Y08246D01*
X10674Y0816D02*
X10686D01*
X1068Y08154D02*
Y08166D01*
X10674Y08D02*
X10686D01*
X1068Y07994D02*
Y08006D01*
X10634Y0792D02*
X10646D01*
X1064Y07914D02*
Y07926D01*
X10674Y0784D02*
X10686D01*
X1068Y07834D02*
Y07846D01*
X10634Y0776D02*
X10646D01*
X1064Y07754D02*
Y07766D01*
X10634Y076D02*
X10646D01*
X1064Y07594D02*
Y07606D01*
X10634Y0744D02*
X10646D01*
X1064Y07434D02*
Y07446D01*
X10674Y072D02*
X10686D01*
X1068Y07194D02*
Y07206D01*
X10634Y068D02*
X10646D01*
X1064Y06794D02*
Y06806D01*
X10634Y0664D02*
X10646D01*
X1064Y06634D02*
Y06646D01*
X10554Y116D02*
X10566D01*
X1056Y11594D02*
Y11606D01*
X10594Y1152D02*
X10606D01*
X106Y11514D02*
Y11526D01*
X10554Y1144D02*
X10566D01*
X1056Y11434D02*
Y11446D01*
X10594Y112D02*
X10606D01*
X106Y11194D02*
Y11206D01*
X10554Y1112D02*
X10566D01*
X1056Y11114D02*
Y11126D01*
X10594Y1104D02*
X10606D01*
X106Y11034D02*
Y11046D01*
X10554Y1096D02*
X10566D01*
X1056Y10954D02*
Y10966D01*
X10594Y1088D02*
X10606D01*
X106Y10874D02*
Y10886D01*
X10554Y108D02*
X10566D01*
X1056Y10794D02*
Y10806D01*
X10594Y1072D02*
X10606D01*
X106Y10714D02*
Y10726D01*
X10554Y0872D02*
X10566D01*
X1056Y08714D02*
Y08726D01*
X10594Y0864D02*
X10606D01*
X106Y08634D02*
Y08646D01*
X10554Y0856D02*
X10566D01*
X1056Y08554D02*
Y08566D01*
X10554Y0824D02*
X10566D01*
X1056Y08234D02*
Y08246D01*
X10594Y0816D02*
X10606D01*
X106Y08154D02*
Y08166D01*
X10594Y08D02*
X10606D01*
X106Y07994D02*
Y08006D01*
X10554Y0792D02*
X10566D01*
X1056Y07914D02*
Y07926D01*
X10594Y0784D02*
X10606D01*
X106Y07834D02*
Y07846D01*
X10554Y0776D02*
X10566D01*
X1056Y07754D02*
Y07766D01*
X10554Y076D02*
X10566D01*
X1056Y07594D02*
Y07606D01*
X10554Y0744D02*
X10566D01*
X1056Y07434D02*
Y07446D01*
X10594Y072D02*
X10606D01*
X106Y07194D02*
Y07206D01*
X10554Y068D02*
X10566D01*
X1056Y06794D02*
Y06806D01*
X10554Y0664D02*
X10566D01*
X1056Y06634D02*
Y06646D01*
X10514Y1216D02*
X10526D01*
X1052Y12154D02*
Y12166D01*
X10474Y1208D02*
X10486D01*
X1048Y12074D02*
Y12086D01*
X10514Y1152D02*
X10526D01*
X1052Y11514D02*
Y11526D01*
X10514Y112D02*
X10526D01*
X1052Y11194D02*
Y11206D01*
X10514Y1104D02*
X10526D01*
X1052Y11034D02*
Y11046D01*
X10514Y1088D02*
X10526D01*
X1052Y10874D02*
Y10886D01*
X10514Y1072D02*
X10526D01*
X1052Y10714D02*
Y10726D01*
X10474Y1016D02*
X10486D01*
X1048Y10154D02*
Y10166D01*
X10514Y0944D02*
X10526D01*
X1052Y09434D02*
Y09446D01*
X10514Y0928D02*
X10526D01*
X1052Y09274D02*
Y09286D01*
X10514Y0912D02*
X10526D01*
X1052Y09114D02*
Y09126D01*
X10514Y0896D02*
X10526D01*
X1052Y08954D02*
Y08966D01*
X10514Y088D02*
X10526D01*
X1052Y08794D02*
Y08806D01*
X10514Y0864D02*
X10526D01*
X1052Y08634D02*
Y08646D01*
X10474Y0856D02*
X10486D01*
X1048Y08554D02*
Y08566D01*
X10474Y0824D02*
X10486D01*
X1048Y08234D02*
Y08246D01*
X10514Y0816D02*
X10526D01*
X1052Y08154D02*
Y08166D01*
X10514Y08D02*
X10526D01*
X1052Y07994D02*
Y08006D01*
X10474Y0792D02*
X10486D01*
X1048Y07914D02*
Y07926D01*
X10514Y0784D02*
X10526D01*
X1052Y07834D02*
Y07846D01*
X10474Y0776D02*
X10486D01*
X1048Y07754D02*
Y07766D01*
X10514Y0768D02*
X10526D01*
X1052Y07674D02*
Y07686D01*
X10474Y076D02*
X10486D01*
X1048Y07594D02*
Y07606D01*
X10474Y0744D02*
X10486D01*
X1048Y07434D02*
Y07446D01*
X10514Y072D02*
X10526D01*
X1052Y07194D02*
Y07206D01*
X10474Y0696D02*
X10486D01*
X1048Y06954D02*
Y06966D01*
X10474Y068D02*
X10486D01*
X1048Y06794D02*
Y06806D01*
X10474Y0664D02*
X10486D01*
X1048Y06634D02*
Y06646D01*
X10434Y1216D02*
X10446D01*
X1044Y12154D02*
Y12166D01*
X10434Y1152D02*
X10446D01*
X1044Y11514D02*
Y11526D01*
X10434Y112D02*
X10446D01*
X1044Y11194D02*
Y11206D01*
X10434Y1104D02*
X10446D01*
X1044Y11034D02*
Y11046D01*
X10434Y1088D02*
X10446D01*
X1044Y10874D02*
Y10886D01*
X10434Y1072D02*
X10446D01*
X1044Y10714D02*
Y10726D01*
X10434Y0928D02*
X10446D01*
X1044Y09274D02*
Y09286D01*
X10394Y092D02*
X10406D01*
X104Y09194D02*
Y09206D01*
X10434Y0912D02*
X10446D01*
X1044Y09114D02*
Y09126D01*
X10394Y0904D02*
X10406D01*
X104Y09034D02*
Y09046D01*
X10434Y0896D02*
X10446D01*
X1044Y08954D02*
Y08966D01*
X10394Y0888D02*
X10406D01*
X104Y08874D02*
Y08886D01*
X10434Y088D02*
X10446D01*
X1044Y08794D02*
Y08806D01*
X10394Y0872D02*
X10406D01*
X104Y08714D02*
Y08726D01*
X10394Y0856D02*
X10406D01*
X104Y08554D02*
Y08566D01*
X10394Y0824D02*
X10406D01*
X104Y08234D02*
Y08246D01*
X10434Y0816D02*
X10446D01*
X1044Y08154D02*
Y08166D01*
X10434Y08D02*
X10446D01*
X1044Y07994D02*
Y08006D01*
X10434Y0784D02*
X10446D01*
X1044Y07834D02*
Y07846D01*
X10394Y076D02*
X10406D01*
X104Y07594D02*
Y07606D01*
X10394Y0744D02*
X10406D01*
X104Y07434D02*
Y07446D01*
X10434Y072D02*
X10446D01*
X1044Y07194D02*
Y07206D01*
X10394Y0696D02*
X10406D01*
X104Y06954D02*
Y06966D01*
X10394Y0664D02*
X10406D01*
X104Y06634D02*
Y06646D01*
X10314Y1016D02*
X10326D01*
X1032Y10154D02*
Y10166D01*
X10314Y1D02*
X10326D01*
X1032Y09994D02*
Y10006D01*
X10354Y0944D02*
X10366D01*
X1036Y09434D02*
Y09446D01*
X10314Y0936D02*
X10326D01*
X1032Y09354D02*
Y09366D01*
X10354Y0928D02*
X10366D01*
X1036Y09274D02*
Y09286D01*
X10314Y092D02*
X10326D01*
X1032Y09194D02*
Y09206D01*
X10354Y0912D02*
X10366D01*
X1036Y09114D02*
Y09126D01*
X10314Y0904D02*
X10326D01*
X1032Y09034D02*
Y09046D01*
X10354Y0896D02*
X10366D01*
X1036Y08954D02*
Y08966D01*
X10314Y0888D02*
X10326D01*
X1032Y08874D02*
Y08886D01*
X10354Y088D02*
X10366D01*
X1036Y08794D02*
Y08806D01*
X10314Y0872D02*
X10326D01*
X1032Y08714D02*
Y08726D01*
X10314Y0824D02*
X10326D01*
X1032Y08234D02*
Y08246D01*
X10354Y08D02*
X10366D01*
X1036Y07994D02*
Y08006D01*
X10314Y0792D02*
X10326D01*
X1032Y07914D02*
Y07926D01*
X10354Y0784D02*
X10366D01*
X1036Y07834D02*
Y07846D01*
X10314Y0776D02*
X10326D01*
X1032Y07754D02*
Y07766D01*
X10314Y076D02*
X10326D01*
X1032Y07594D02*
Y07606D01*
X10314Y0744D02*
X10326D01*
X1032Y07434D02*
Y07446D01*
X10354Y072D02*
X10366D01*
X1036Y07194D02*
Y07206D01*
X10314Y0696D02*
X10326D01*
X1032Y06954D02*
Y06966D01*
X10314Y0664D02*
X10326D01*
X1032Y06634D02*
Y06646D01*
X10274Y0944D02*
X10286D01*
X1028Y09434D02*
Y09446D01*
X10234Y0936D02*
X10246D01*
X1024Y09354D02*
Y09366D01*
X10274Y0912D02*
X10286D01*
X1028Y09114D02*
Y09126D01*
X10274Y0896D02*
X10286D01*
X1028Y08954D02*
Y08966D01*
X10274Y088D02*
X10286D01*
X1028Y08794D02*
Y08806D01*
X10274Y0864D02*
X10286D01*
X1028Y08634D02*
Y08646D01*
X10274Y0816D02*
X10286D01*
X1028Y08154D02*
Y08166D01*
X10274Y08D02*
X10286D01*
X1028Y07994D02*
Y08006D01*
X10234Y0792D02*
X10246D01*
X1024Y07914D02*
Y07926D01*
X10274Y0784D02*
X10286D01*
X1028Y07834D02*
Y07846D01*
X10234Y0776D02*
X10246D01*
X1024Y07754D02*
Y07766D01*
X10274Y0768D02*
X10286D01*
X1028Y07674D02*
Y07686D01*
X10234Y076D02*
X10246D01*
X1024Y07594D02*
Y07606D01*
X10234Y0744D02*
X10246D01*
X1024Y07434D02*
Y07446D01*
X10274Y072D02*
X10286D01*
X1028Y07194D02*
Y07206D01*
X10234Y0696D02*
X10246D01*
X1024Y06954D02*
Y06966D01*
X10274Y0688D02*
X10286D01*
X1028Y06874D02*
Y06886D01*
X10234Y0664D02*
X10246D01*
X1024Y06634D02*
Y06646D01*
X10154Y0952D02*
X10166D01*
X1016Y09514D02*
Y09526D01*
X10194Y0944D02*
X10206D01*
X102Y09434D02*
Y09446D01*
X10154Y0936D02*
X10166D01*
X1016Y09354D02*
Y09366D01*
X10194Y0928D02*
X10206D01*
X102Y09274D02*
Y09286D01*
X10154Y092D02*
X10166D01*
X1016Y09194D02*
Y09206D01*
X10194Y0912D02*
X10206D01*
X102Y09114D02*
Y09126D01*
X10154Y0904D02*
X10166D01*
X1016Y09034D02*
Y09046D01*
X10194Y0896D02*
X10206D01*
X102Y08954D02*
Y08966D01*
X10154Y0888D02*
X10166D01*
X1016Y08874D02*
Y08886D01*
X10194Y088D02*
X10206D01*
X102Y08794D02*
Y08806D01*
X10154Y0872D02*
X10166D01*
X1016Y08714D02*
Y08726D01*
X10194Y0864D02*
X10206D01*
X102Y08634D02*
Y08646D01*
X10154Y0856D02*
X10166D01*
X1016Y08554D02*
Y08566D01*
X10194Y0816D02*
X10206D01*
X102Y08154D02*
Y08166D01*
X10194Y08D02*
X10206D01*
X102Y07994D02*
Y08006D01*
X10154Y0792D02*
X10166D01*
X1016Y07914D02*
Y07926D01*
X10194Y0784D02*
X10206D01*
X102Y07834D02*
Y07846D01*
X10154Y0776D02*
X10166D01*
X1016Y07754D02*
Y07766D01*
X10194Y0768D02*
X10206D01*
X102Y07674D02*
Y07686D01*
X10154Y076D02*
X10166D01*
X1016Y07594D02*
Y07606D01*
X10154Y0744D02*
X10166D01*
X1016Y07434D02*
Y07446D01*
X10194Y072D02*
X10206D01*
X102Y07194D02*
Y07206D01*
X10194Y0672D02*
X10206D01*
X102Y06714D02*
Y06726D01*
X10154Y0664D02*
X10166D01*
X1016Y06634D02*
Y06646D01*
X10114Y112D02*
X10126D01*
X1012Y11194D02*
Y11206D01*
X10074Y1112D02*
X10086D01*
X1008Y11114D02*
Y11126D01*
X10114Y1104D02*
X10126D01*
X1012Y11034D02*
Y11046D01*
X10074Y1096D02*
X10086D01*
X1008Y10954D02*
Y10966D01*
X10114Y1088D02*
X10126D01*
X1012Y10874D02*
Y10886D01*
X10074Y108D02*
X10086D01*
X1008Y10794D02*
Y10806D01*
X10074Y0952D02*
X10086D01*
X1008Y09514D02*
Y09526D01*
X10114Y0944D02*
X10126D01*
X1012Y09434D02*
Y09446D01*
X10074Y0936D02*
X10086D01*
X1008Y09354D02*
Y09366D01*
X10114Y0928D02*
X10126D01*
X1012Y09274D02*
Y09286D01*
X10074Y092D02*
X10086D01*
X1008Y09194D02*
Y09206D01*
X10114Y0912D02*
X10126D01*
X1012Y09114D02*
Y09126D01*
X10074Y0904D02*
X10086D01*
X1008Y09034D02*
Y09046D01*
X10114Y0896D02*
X10126D01*
X1012Y08954D02*
Y08966D01*
X10074Y0888D02*
X10086D01*
X1008Y08874D02*
Y08886D01*
X10114Y088D02*
X10126D01*
X1012Y08794D02*
Y08806D01*
X10074Y0872D02*
X10086D01*
X1008Y08714D02*
Y08726D01*
X10114Y0864D02*
X10126D01*
X1012Y08634D02*
Y08646D01*
X10074Y0856D02*
X10086D01*
X1008Y08554D02*
Y08566D01*
X10114Y0848D02*
X10126D01*
X1012Y08474D02*
Y08486D01*
X10114Y0816D02*
X10126D01*
X1012Y08154D02*
Y08166D01*
X10114Y08D02*
X10126D01*
X1012Y07994D02*
Y08006D01*
X10074Y0792D02*
X10086D01*
X1008Y07914D02*
Y07926D01*
X10114Y0784D02*
X10126D01*
X1012Y07834D02*
Y07846D01*
X10074Y0776D02*
X10086D01*
X1008Y07754D02*
Y07766D01*
X10114Y0768D02*
X10126D01*
X1012Y07674D02*
Y07686D01*
X10074Y076D02*
X10086D01*
X1008Y07594D02*
Y07606D01*
X10074Y0744D02*
X10086D01*
X1008Y07434D02*
Y07446D01*
X10114Y072D02*
X10126D01*
X1012Y07194D02*
Y07206D01*
X10114Y0688D02*
X10126D01*
X1012Y06874D02*
Y06886D01*
X10114Y0672D02*
X10126D01*
X1012Y06714D02*
Y06726D01*
X10074Y0664D02*
X10086D01*
X1008Y06634D02*
Y06646D01*
X09994Y1208D02*
X10006D01*
X1Y12074D02*
Y12086D01*
X09994Y1144D02*
X10006D01*
X1Y11434D02*
Y11446D01*
X09994Y1128D02*
X10006D01*
X1Y11274D02*
Y11286D01*
X10034Y112D02*
X10046D01*
X1004Y11194D02*
Y11206D01*
X10034Y1104D02*
X10046D01*
X1004Y11034D02*
Y11046D01*
X09994Y1096D02*
X10006D01*
X1Y10954D02*
Y10966D01*
X10034Y1088D02*
X10046D01*
X1004Y10874D02*
Y10886D01*
X09994Y108D02*
X10006D01*
X1Y10794D02*
Y10806D01*
X10034Y1072D02*
X10046D01*
X1004Y10714D02*
Y10726D01*
X09994Y1064D02*
X10006D01*
X1Y10634D02*
Y10646D01*
X09994Y0968D02*
X10006D01*
X1Y09674D02*
Y09686D01*
X09994Y0952D02*
X10006D01*
X1Y09514D02*
Y09526D01*
X09994Y0936D02*
X10006D01*
X1Y09354D02*
Y09366D01*
X09994Y092D02*
X10006D01*
X1Y09194D02*
Y09206D01*
X09994Y0904D02*
X10006D01*
X1Y09034D02*
Y09046D01*
X09994Y0888D02*
X10006D01*
X1Y08874D02*
Y08886D01*
X09994Y0872D02*
X10006D01*
X1Y08714D02*
Y08726D01*
X10034Y0816D02*
X10046D01*
X1004Y08154D02*
Y08166D01*
X10034Y08D02*
X10046D01*
X1004Y07994D02*
Y08006D01*
X09994Y0792D02*
X10006D01*
X1Y07914D02*
Y07926D01*
X10034Y0784D02*
X10046D01*
X1004Y07834D02*
Y07846D01*
X09994Y0776D02*
X10006D01*
X1Y07754D02*
Y07766D01*
X10034Y0768D02*
X10046D01*
X1004Y07674D02*
Y07686D01*
X09994Y076D02*
X10006D01*
X1Y07594D02*
Y07606D01*
X09994Y0744D02*
X10006D01*
X1Y07434D02*
Y07446D01*
X10034Y072D02*
X10046D01*
X1004Y07194D02*
Y07206D01*
X09994Y0696D02*
X10006D01*
X1Y06954D02*
Y06966D01*
X10034Y0672D02*
X10046D01*
X1004Y06714D02*
Y06726D01*
X09994Y0664D02*
X10006D01*
X1Y06634D02*
Y06646D01*
X09914Y1208D02*
X09926D01*
X0992Y12074D02*
Y12086D01*
X09914Y1192D02*
X09926D01*
X0992Y11914D02*
Y11926D01*
X09954Y1184D02*
X09966D01*
X0996Y11834D02*
Y11846D01*
X09914Y1176D02*
X09926D01*
X0992Y11754D02*
Y11766D01*
X09954Y1168D02*
X09966D01*
X0996Y11674D02*
Y11686D01*
X09914Y116D02*
X09926D01*
X0992Y11594D02*
Y11606D01*
X09954Y1152D02*
X09966D01*
X0996Y11514D02*
Y11526D01*
X09914Y1144D02*
X09926D01*
X0992Y11434D02*
Y11446D01*
X09954Y1136D02*
X09966D01*
X0996Y11354D02*
Y11366D01*
X09954Y1104D02*
X09966D01*
X0996Y11034D02*
Y11046D01*
X09914Y1096D02*
X09926D01*
X0992Y10954D02*
Y10966D01*
X09954Y1088D02*
X09966D01*
X0996Y10874D02*
Y10886D01*
X09914Y108D02*
X09926D01*
X0992Y10794D02*
Y10806D01*
X09954Y1072D02*
X09966D01*
X0996Y10714D02*
Y10726D01*
X09914Y1064D02*
X09926D01*
X0992Y10634D02*
Y10646D01*
X09914Y0984D02*
X09926D01*
X0992Y09834D02*
Y09846D01*
X09954Y0976D02*
X09966D01*
X0996Y09754D02*
Y09766D01*
X09954Y0816D02*
X09966D01*
X0996Y08154D02*
Y08166D01*
X09954Y08D02*
X09966D01*
X0996Y07994D02*
Y08006D01*
X09914Y0792D02*
X09926D01*
X0992Y07914D02*
Y07926D01*
X09954Y0784D02*
X09966D01*
X0996Y07834D02*
Y07846D01*
X09914Y0776D02*
X09926D01*
X0992Y07754D02*
Y07766D01*
X09954Y0768D02*
X09966D01*
X0996Y07674D02*
Y07686D01*
X09914Y076D02*
X09926D01*
X0992Y07594D02*
Y07606D01*
X09914Y0744D02*
X09926D01*
X0992Y07434D02*
Y07446D01*
X09954Y072D02*
X09966D01*
X0996Y07194D02*
Y07206D01*
X09954Y0672D02*
X09966D01*
X0996Y06714D02*
Y06726D01*
X09914Y0664D02*
X09926D01*
X0992Y06634D02*
Y06646D01*
X09874Y1184D02*
X09886D01*
X0988Y11834D02*
Y11846D01*
X09834Y1176D02*
X09846D01*
X0984Y11754D02*
Y11766D01*
X09874Y1168D02*
X09886D01*
X0988Y11674D02*
Y11686D01*
X09874Y1152D02*
X09886D01*
X0988Y11514D02*
Y11526D01*
X09874Y1136D02*
X09886D01*
X0988Y11354D02*
Y11366D01*
X09834Y108D02*
X09846D01*
X0984Y10794D02*
Y10806D01*
X09874Y1072D02*
X09886D01*
X0988Y10714D02*
Y10726D01*
X09834Y1064D02*
X09846D01*
X0984Y10634D02*
Y10646D01*
X09874Y0992D02*
X09886D01*
X0988Y09914D02*
Y09926D01*
X09834Y0952D02*
X09846D01*
X0984Y09514D02*
Y09526D01*
X09874Y0848D02*
X09886D01*
X0988Y08474D02*
Y08486D01*
X09874Y0816D02*
X09886D01*
X0988Y08154D02*
Y08166D01*
X09874Y08D02*
X09886D01*
X0988Y07994D02*
Y08006D01*
X09874Y0784D02*
X09886D01*
X0988Y07834D02*
Y07846D01*
X09874Y0768D02*
X09886D01*
X0988Y07674D02*
Y07686D01*
X09834Y076D02*
X09846D01*
X0984Y07594D02*
Y07606D01*
X09834Y0744D02*
X09846D01*
X0984Y07434D02*
Y07446D01*
X09834Y0712D02*
X09846D01*
X0984Y07114D02*
Y07126D01*
X09834Y0696D02*
X09846D01*
X0984Y06954D02*
Y06966D01*
X09874Y0672D02*
X09886D01*
X0988Y06714D02*
Y06726D01*
X09834Y0664D02*
X09846D01*
X0984Y06634D02*
Y06646D01*
X09794Y1216D02*
X09806D01*
X098Y12154D02*
Y12166D01*
X09754Y1192D02*
X09766D01*
X0976Y11914D02*
Y11926D01*
X09754Y1176D02*
X09766D01*
X0976Y11754D02*
Y11766D01*
X09794Y1104D02*
X09806D01*
X098Y11034D02*
Y11046D01*
X09754Y1096D02*
X09766D01*
X0976Y10954D02*
Y10966D01*
X09794Y1088D02*
X09806D01*
X098Y10874D02*
Y10886D01*
X09754Y108D02*
X09766D01*
X0976Y10794D02*
Y10806D01*
X09794Y1072D02*
X09806D01*
X098Y10714D02*
Y10726D01*
X09754Y1064D02*
X09766D01*
X0976Y10634D02*
Y10646D01*
X09754Y1032D02*
X09766D01*
X0976Y10314D02*
Y10326D01*
X09794Y0992D02*
X09806D01*
X098Y09914D02*
Y09926D01*
X09754Y0984D02*
X09766D01*
X0976Y09834D02*
Y09846D01*
X09794Y0976D02*
X09806D01*
X098Y09754D02*
Y09766D01*
X09754Y0792D02*
X09766D01*
X0976Y07914D02*
Y07926D01*
X09794Y0768D02*
X09806D01*
X098Y07674D02*
Y07686D01*
X09794Y0736D02*
X09806D01*
X098Y07354D02*
Y07366D01*
X09754Y0696D02*
X09766D01*
X0976Y06954D02*
Y06966D01*
X09794Y0672D02*
X09806D01*
X098Y06714D02*
Y06726D01*
X09754Y0664D02*
X09766D01*
X0976Y06634D02*
Y06646D01*
X09714Y1216D02*
X09726D01*
X0972Y12154D02*
Y12166D01*
X09674Y1208D02*
X09686D01*
X0968Y12074D02*
Y12086D01*
X09674Y1192D02*
X09686D01*
X0968Y11914D02*
Y11926D01*
X09674Y1176D02*
X09686D01*
X0968Y11754D02*
Y11766D01*
X09714Y1136D02*
X09726D01*
X0972Y11354D02*
Y11366D01*
X09674Y1128D02*
X09686D01*
X0968Y11274D02*
Y11286D01*
X09674Y1112D02*
X09686D01*
X0968Y11114D02*
Y11126D01*
X09674Y1064D02*
X09686D01*
X0968Y10634D02*
Y10646D01*
X09674Y1032D02*
X09686D01*
X0968Y10314D02*
Y10326D01*
X09714Y0992D02*
X09726D01*
X0972Y09914D02*
Y09926D01*
X09674Y0984D02*
X09686D01*
X0968Y09834D02*
Y09846D01*
X09714Y0976D02*
X09726D01*
X0972Y09754D02*
Y09766D01*
X09674Y0968D02*
X09686D01*
X0968Y09674D02*
Y09686D01*
X09674Y092D02*
X09686D01*
X0968Y09194D02*
Y09206D01*
X09674Y0904D02*
X09686D01*
X0968Y09034D02*
Y09046D01*
X09674Y0888D02*
X09686D01*
X0968Y08874D02*
Y08886D01*
X09674Y0872D02*
X09686D01*
X0968Y08714D02*
Y08726D01*
X09674Y0856D02*
X09686D01*
X0968Y08554D02*
Y08566D01*
X09674Y084D02*
X09686D01*
X0968Y08394D02*
Y08406D01*
X09714Y0832D02*
X09726D01*
X0972Y08314D02*
Y08326D01*
X09714Y08D02*
X09726D01*
X0972Y07994D02*
Y08006D01*
X09674Y0776D02*
X09686D01*
X0968Y07754D02*
Y07766D01*
X09674Y076D02*
X09686D01*
X0968Y07594D02*
Y07606D01*
X09714Y0736D02*
X09726D01*
X0972Y07354D02*
Y07366D01*
X09674Y068D02*
X09686D01*
X0968Y06794D02*
Y06806D01*
X09714Y0672D02*
X09726D01*
X0972Y06714D02*
Y06726D01*
X09674Y0664D02*
X09686D01*
X0968Y06634D02*
Y06646D01*
X09634Y1216D02*
X09646D01*
X0964Y12154D02*
Y12166D01*
X09594Y1208D02*
X09606D01*
X096Y12074D02*
Y12086D01*
X09594Y1192D02*
X09606D01*
X096Y11914D02*
Y11926D01*
X09594Y1176D02*
X09606D01*
X096Y11754D02*
Y11766D01*
X09634Y1136D02*
X09646D01*
X0964Y11354D02*
Y11366D01*
X09634Y1104D02*
X09646D01*
X0964Y11034D02*
Y11046D01*
X09594Y1096D02*
X09606D01*
X096Y10954D02*
Y10966D01*
X09634Y1088D02*
X09646D01*
X0964Y10874D02*
Y10886D01*
X09594Y108D02*
X09606D01*
X096Y10794D02*
Y10806D01*
X09634Y1072D02*
X09646D01*
X0964Y10714D02*
Y10726D01*
X09594Y1032D02*
X09606D01*
X096Y10314D02*
Y10326D01*
X09634Y0992D02*
X09646D01*
X0964Y09914D02*
Y09926D01*
X09594Y0984D02*
X09606D01*
X096Y09834D02*
Y09846D01*
X09634Y0976D02*
X09646D01*
X0964Y09754D02*
Y09766D01*
X09634Y0944D02*
X09646D01*
X0964Y09434D02*
Y09446D01*
X09594Y0936D02*
X09606D01*
X096Y09354D02*
Y09366D01*
X09634Y0928D02*
X09646D01*
X0964Y09274D02*
Y09286D01*
X09594Y092D02*
X09606D01*
X096Y09194D02*
Y09206D01*
X09634Y0912D02*
X09646D01*
X0964Y09114D02*
Y09126D01*
X09594Y0904D02*
X09606D01*
X096Y09034D02*
Y09046D01*
X09634Y0896D02*
X09646D01*
X0964Y08954D02*
Y08966D01*
X09594Y0888D02*
X09606D01*
X096Y08874D02*
Y08886D01*
X09634Y088D02*
X09646D01*
X0964Y08794D02*
Y08806D01*
X09594Y0872D02*
X09606D01*
X096Y08714D02*
Y08726D01*
X09634Y0864D02*
X09646D01*
X0964Y08634D02*
Y08646D01*
X09594Y0856D02*
X09606D01*
X096Y08554D02*
Y08566D01*
X09634Y0848D02*
X09646D01*
X0964Y08474D02*
Y08486D01*
X09594Y084D02*
X09606D01*
X096Y08394D02*
Y08406D01*
X09634Y0832D02*
X09646D01*
X0964Y08314D02*
Y08326D01*
X09634Y0784D02*
X09646D01*
X0964Y07834D02*
Y07846D01*
X09594Y0776D02*
X09606D01*
X096Y07754D02*
Y07766D01*
X09594Y0744D02*
X09606D01*
X096Y07434D02*
Y07446D01*
X09634Y0736D02*
X09646D01*
X0964Y07354D02*
Y07366D01*
X09594Y0728D02*
X09606D01*
X096Y07274D02*
Y07286D01*
X09594Y0696D02*
X09606D01*
X096Y06954D02*
Y06966D01*
X09634Y0688D02*
X09646D01*
X0964Y06874D02*
Y06886D01*
X09594Y068D02*
X09606D01*
X096Y06794D02*
Y06806D01*
X09634Y0672D02*
X09646D01*
X0964Y06714D02*
Y06726D01*
X09594Y0664D02*
X09606D01*
X096Y06634D02*
Y06646D01*
X09554Y1216D02*
X09566D01*
X0956Y12154D02*
Y12166D01*
X09554Y12D02*
X09566D01*
X0956Y11994D02*
Y12006D01*
X09514Y1192D02*
X09526D01*
X0952Y11914D02*
Y11926D01*
X09514Y1176D02*
X09526D01*
X0952Y11754D02*
Y11766D01*
X09514Y108D02*
X09526D01*
X0952Y10794D02*
Y10806D01*
X09554Y1072D02*
X09566D01*
X0956Y10714D02*
Y10726D01*
X09514Y1064D02*
X09526D01*
X0952Y10634D02*
Y10646D01*
X09514Y0984D02*
X09526D01*
X0952Y09834D02*
Y09846D01*
X09514Y0952D02*
X09526D01*
X0952Y09514D02*
Y09526D01*
X09514Y0936D02*
X09526D01*
X0952Y09354D02*
Y09366D01*
X09514Y092D02*
X09526D01*
X0952Y09194D02*
Y09206D01*
X09514Y0904D02*
X09526D01*
X0952Y09034D02*
Y09046D01*
X09514Y0888D02*
X09526D01*
X0952Y08874D02*
Y08886D01*
X09514Y0856D02*
X09526D01*
X0952Y08554D02*
Y08566D01*
X09514Y084D02*
X09526D01*
X0952Y08394D02*
Y08406D01*
X09514Y0696D02*
X09526D01*
X0952Y06954D02*
Y06966D01*
X09554Y0688D02*
X09566D01*
X0956Y06874D02*
Y06886D01*
X09554Y0672D02*
X09566D01*
X0956Y06714D02*
Y06726D01*
X09434Y1176D02*
X09446D01*
X0944Y11754D02*
Y11766D01*
X09474Y1168D02*
X09486D01*
X0948Y11674D02*
Y11686D01*
X09434Y116D02*
X09446D01*
X0944Y11594D02*
Y11606D01*
X09474Y1152D02*
X09486D01*
X0948Y11514D02*
Y11526D01*
X09434Y1096D02*
X09446D01*
X0944Y10954D02*
Y10966D01*
X09474Y1088D02*
X09486D01*
X0948Y10874D02*
Y10886D01*
X09434Y108D02*
X09446D01*
X0944Y10794D02*
Y10806D01*
X09474Y1072D02*
X09486D01*
X0948Y10714D02*
Y10726D01*
X09434Y1064D02*
X09446D01*
X0944Y10634D02*
Y10646D01*
X09474Y0992D02*
X09486D01*
X0948Y09914D02*
Y09926D01*
X09474Y096D02*
X09486D01*
X0948Y09594D02*
Y09606D01*
X09434Y0952D02*
X09446D01*
X0944Y09514D02*
Y09526D01*
X09474Y0944D02*
X09486D01*
X0948Y09434D02*
Y09446D01*
X09434Y0936D02*
X09446D01*
X0944Y09354D02*
Y09366D01*
X09474Y0928D02*
X09486D01*
X0948Y09274D02*
Y09286D01*
X09434Y092D02*
X09446D01*
X0944Y09194D02*
Y09206D01*
X09474Y0912D02*
X09486D01*
X0948Y09114D02*
Y09126D01*
X09434Y0904D02*
X09446D01*
X0944Y09034D02*
Y09046D01*
X09474Y0896D02*
X09486D01*
X0948Y08954D02*
Y08966D01*
X09474Y0832D02*
X09486D01*
X0948Y08314D02*
Y08326D01*
X09434Y0712D02*
X09446D01*
X0944Y07114D02*
Y07126D01*
X09474Y0704D02*
X09486D01*
X0948Y07034D02*
Y07046D01*
X09434Y0696D02*
X09446D01*
X0944Y06954D02*
Y06966D01*
X09394Y1168D02*
X09406D01*
X094Y11674D02*
Y11686D01*
X09354Y116D02*
X09366D01*
X0936Y11594D02*
Y11606D01*
X09394Y1152D02*
X09406D01*
X094Y11514D02*
Y11526D01*
X09394Y112D02*
X09406D01*
X094Y11194D02*
Y11206D01*
X09354Y1112D02*
X09366D01*
X0936Y11114D02*
Y11126D01*
X09354Y0952D02*
X09366D01*
X0936Y09514D02*
Y09526D01*
X09394Y0944D02*
X09406D01*
X094Y09434D02*
Y09446D01*
X09354Y0936D02*
X09366D01*
X0936Y09354D02*
Y09366D01*
X09394Y0832D02*
X09406D01*
X094Y08314D02*
Y08326D01*
X09354Y0776D02*
X09366D01*
X0936Y07754D02*
Y07766D01*
X09354Y0712D02*
X09366D01*
X0936Y07114D02*
Y07126D01*
X09394Y0704D02*
X09406D01*
X094Y07034D02*
Y07046D01*
X09354Y0696D02*
X09366D01*
X0936Y06954D02*
Y06966D01*
X09314Y1184D02*
X09326D01*
X0932Y11834D02*
Y11846D01*
X09314Y1104D02*
X09326D01*
X0932Y11034D02*
Y11046D01*
X09314Y1056D02*
X09326D01*
X0932Y10554D02*
Y10566D01*
X09274Y1048D02*
X09286D01*
X0928Y10474D02*
Y10486D01*
X09314Y104D02*
X09326D01*
X0932Y10394D02*
Y10406D01*
X09274Y1032D02*
X09286D01*
X0928Y10314D02*
Y10326D01*
X09314Y1024D02*
X09326D01*
X0932Y10234D02*
Y10246D01*
X09274Y1016D02*
X09286D01*
X0928Y10154D02*
Y10166D01*
X09314Y1008D02*
X09326D01*
X0932Y10074D02*
Y10086D01*
X09274Y1D02*
X09286D01*
X0928Y09994D02*
Y10006D01*
X09314Y0992D02*
X09326D01*
X0932Y09914D02*
Y09926D01*
X09274Y0984D02*
X09286D01*
X0928Y09834D02*
Y09846D01*
X09314Y0976D02*
X09326D01*
X0932Y09754D02*
Y09766D01*
X09274Y0968D02*
X09286D01*
X0928Y09674D02*
Y09686D01*
X09274Y0952D02*
X09286D01*
X0928Y09514D02*
Y09526D01*
X09314Y0944D02*
X09326D01*
X0932Y09434D02*
Y09446D01*
X09274Y092D02*
X09286D01*
X0928Y09194D02*
Y09206D01*
X09314Y0912D02*
X09326D01*
X0932Y09114D02*
Y09126D01*
X09274Y0904D02*
X09286D01*
X0928Y09034D02*
Y09046D01*
X09314Y0896D02*
X09326D01*
X0932Y08954D02*
Y08966D01*
X09274Y0888D02*
X09286D01*
X0928Y08874D02*
Y08886D01*
X09274Y0856D02*
X09286D01*
X0928Y08554D02*
Y08566D01*
X09314Y0784D02*
X09326D01*
X0932Y07834D02*
Y07846D01*
X09314Y0752D02*
X09326D01*
X0932Y07514D02*
Y07526D01*
X09274Y0712D02*
X09286D01*
X0928Y07114D02*
Y07126D01*
X09314Y0704D02*
X09326D01*
X0932Y07034D02*
Y07046D01*
X09274Y0696D02*
X09286D01*
X0928Y06954D02*
Y06966D01*
X09234Y1184D02*
X09246D01*
X0924Y11834D02*
Y11846D01*
X09194Y1176D02*
X09206D01*
X092Y11754D02*
Y11766D01*
X09194Y116D02*
X09206D01*
X092Y11594D02*
Y11606D01*
X09194Y1144D02*
X09206D01*
X092Y11434D02*
Y11446D01*
X09194Y1128D02*
X09206D01*
X092Y11274D02*
Y11286D01*
X09194Y1112D02*
X09206D01*
X092Y11114D02*
Y11126D01*
X09194Y1096D02*
X09206D01*
X092Y10954D02*
Y10966D01*
X09194Y108D02*
X09206D01*
X092Y10794D02*
Y10806D01*
X09194Y1064D02*
X09206D01*
X092Y10634D02*
Y10646D01*
X09194Y0936D02*
X09206D01*
X092Y09354D02*
Y09366D01*
X09194Y092D02*
X09206D01*
X092Y09194D02*
Y09206D01*
X09194Y0904D02*
X09206D01*
X092Y09034D02*
Y09046D01*
X09234Y088D02*
X09246D01*
X0924Y08794D02*
Y08806D01*
X09234Y0864D02*
X09246D01*
X0924Y08634D02*
Y08646D01*
X09234Y0848D02*
X09246D01*
X0924Y08474D02*
Y08486D01*
X09194Y0728D02*
X09206D01*
X092Y07274D02*
Y07286D01*
X09194Y0712D02*
X09206D01*
X092Y07114D02*
Y07126D01*
X09234Y0704D02*
X09246D01*
X0924Y07034D02*
Y07046D01*
X09194Y0696D02*
X09206D01*
X092Y06954D02*
Y06966D01*
X09786Y11127D02*
X09798D01*
X09792Y11121D02*
Y11133D01*
X09804Y11192D02*
X09816D01*
X0981Y11186D02*
Y11198D01*
X09748Y11206D02*
X0976D01*
X09754Y112D02*
Y11212D01*
X09748Y11151D02*
X0976D01*
X09754Y11145D02*
Y11157D01*
X09682Y09339D02*
X09694D01*
X09688Y09333D02*
Y09345D01*
X09785Y10525D02*
X09797D01*
X09791Y10519D02*
Y10531D01*
X09644Y10475D02*
X09656D01*
X0965Y10469D02*
Y10481D01*
X0998Y09828D02*
X09992D01*
X09986Y09822D02*
Y09834D01*
X09171Y08387D02*
X09183D01*
X09177Y08381D02*
Y08393D01*
X09462Y11284D02*
X09474D01*
X09468Y11278D02*
Y1129D01*
X09462Y11238D02*
X09474D01*
X09468Y11232D02*
Y11244D01*
X09607Y08212D02*
X09619D01*
X09613Y08206D02*
Y08218D01*
X0966Y08212D02*
X09672D01*
X09666Y08206D02*
Y08218D01*
X09338Y08443D02*
X0935D01*
X09344Y08437D02*
Y08449D01*
X09462Y08434D02*
X09474D01*
X09468Y08428D02*
Y0844D01*
X09405Y08439D02*
X09417D01*
X09411Y08433D02*
Y08445D01*
X091269Y109276D02*
X091389D01*
X091329Y109216D02*
Y109336D01*
X091269Y107442D02*
X091389D01*
X091329Y107382D02*
Y107502D01*
X091269Y111109D02*
X091389D01*
X091329Y111049D02*
Y111169D01*
X091269Y11661D02*
X091389D01*
X091329Y11655D02*
Y11667D01*
X091269Y114776D02*
X091389D01*
X091329Y114716D02*
Y114836D01*
X091269Y112943D02*
X091389D01*
X091329Y112883D02*
Y113003D01*
X118179Y10234D02*
X118299D01*
X118239Y10228D02*
Y1024D01*
X118179Y099842D02*
X118299D01*
X118239Y099782D02*
Y099902D01*
X118179Y097344D02*
X118299D01*
X118239Y097284D02*
Y097404D01*
X118179Y094847D02*
X118299D01*
X118239Y094787D02*
Y094907D01*
X118179Y092349D02*
X118299D01*
X118239Y092289D02*
Y092409D01*
X118179Y089851D02*
X118299D01*
X118239Y089791D02*
Y089911D01*
X118179Y087353D02*
X118299D01*
X118239Y087293D02*
Y087413D01*
X118179Y084856D02*
X118299D01*
X118239Y084796D02*
Y084916D01*
X118179Y082358D02*
X118299D01*
X118239Y082298D02*
Y082418D01*
X118227Y07986D02*
X118347D01*
X118287Y0798D02*
Y07992D01*
X091269Y07994D02*
X091389D01*
X091329Y07988D02*
Y08D01*
X091269Y078106D02*
X091389D01*
X091329Y078046D02*
Y078166D01*
X091269Y076273D02*
X091389D01*
X091329Y076213D02*
Y076333D01*
X091269Y074439D02*
X091389D01*
X091329Y074379D02*
Y074499D01*
X091269Y072606D02*
X091389D01*
X091329Y072546D02*
Y072666D01*
X091269Y089107D02*
X091389D01*
X091329Y089047D02*
Y089167D01*
X091269Y087274D02*
X091389D01*
X091329Y087214D02*
Y087334D01*
X091269Y08544D02*
X091389D01*
X091329Y08538D02*
Y0855D01*
X091269Y083607D02*
X091389D01*
X091329Y083547D02*
Y083667D01*
X091269Y081773D02*
X091389D01*
X091329Y081713D02*
Y081833D01*
X091269Y098275D02*
X091389D01*
X091329Y098215D02*
Y098335D01*
X091269Y096441D02*
X091389D01*
X091329Y096381D02*
Y096501D01*
X091269Y094608D02*
X091389D01*
X091329Y094548D02*
Y094668D01*
X091269Y092774D02*
X091389D01*
X091329Y092714D02*
Y092834D01*
X091269Y090941D02*
X091389D01*
X091329Y090881D02*
Y091001D01*
X091269Y105609D02*
X091389D01*
X091329Y105549D02*
Y105669D01*
X091269Y103775D02*
X091389D01*
X091329Y103715D02*
Y103835D01*
X091269Y101942D02*
X091389D01*
X091329Y101882D02*
Y102002D01*
X091269Y100108D02*
X091389D01*
X091329Y100048D02*
Y100168D01*
X09614Y11619D02*
X09626D01*
X0962Y11613D02*
Y11625D01*
X095609Y11665D02*
X095729D01*
X095669Y11659D02*
Y11671D01*
X097827Y11576D02*
X097947D01*
X097887Y1157D02*
Y11582D01*
X096719Y11573D02*
X096839D01*
X096779Y11567D02*
Y11579D01*
X095639Y11573D02*
X095759D01*
X095699Y11567D02*
Y11579D01*
X097339Y11627D02*
X097459D01*
X097399Y11621D02*
Y11633D01*
X097829Y11666D02*
X097949D01*
X097889Y1166D02*
Y11672D01*
X096699Y11667D02*
X096819D01*
X096759Y11661D02*
Y11673D01*
X09737Y07868D02*
X09749D01*
X09743Y07862D02*
Y07874D01*
X097483Y08132D02*
X097603D01*
X097543Y08126D02*
Y08138D01*
X09532Y10386D02*
X09544D01*
X09538Y1038D02*
Y10392D01*
X10921Y10534D02*
X10933D01*
X10927Y10528D02*
Y1054D01*
X11089Y11268D02*
X11101D01*
X11095Y11262D02*
Y11274D01*
X10084Y1141D02*
X10096D01*
X1009Y11404D02*
Y11416D01*
X10049Y11285D02*
X10061D01*
X10055Y11279D02*
Y11291D01*
X10014Y1148D02*
X10026D01*
X1002Y11474D02*
Y11486D01*
X10118Y11338D02*
X1013D01*
X10124Y11332D02*
Y11344D01*
X11465Y09982D02*
X11477D01*
X11471Y09976D02*
Y09988D01*
X11536Y09981D02*
X11548D01*
X11542Y09975D02*
Y09987D01*
X11299Y11178D02*
X11311D01*
X11305Y11172D02*
Y11184D01*
X114455Y110535D02*
X114575D01*
X114515Y110475D02*
Y110595D01*
X11476Y10958D02*
X11488D01*
X11482Y10952D02*
Y10964D01*
X11791Y07893D02*
X11803D01*
X11797Y07887D02*
Y07899D01*
X11457Y0756D02*
X11469D01*
X11463Y07554D02*
Y07566D01*
X11296Y10579D02*
X11308D01*
X11302Y10573D02*
Y10585D01*
X10408Y0716D02*
X1042D01*
X10414Y07154D02*
Y07166D01*
X11775Y10624D02*
X11787D01*
X11781Y10618D02*
Y1063D01*
X11594Y10947D02*
X11606D01*
X116Y10941D02*
Y10953D01*
X099246Y071236D02*
X099366D01*
X099306Y071176D02*
Y071296D01*
X095442Y081618D02*
X095562D01*
X095502Y081558D02*
Y081678D01*
X110935Y10487D02*
X111055D01*
X110995Y10481D02*
Y10493D01*
X109915Y104895D02*
X110035D01*
X109975Y104835D02*
Y104955D01*
X10338Y10098D02*
X1035D01*
X10344Y10092D02*
Y10104D01*
X10931Y10357D02*
X10943D01*
X10937Y10351D02*
Y10363D01*
X11249Y10531D02*
X11261D01*
X11255Y10525D02*
Y10537D01*
X10247Y10213D02*
X10259D01*
X10253Y10207D02*
Y10219D01*
X09883Y10275D02*
X09895D01*
X09889Y10269D02*
Y10281D01*
X10698Y10335D02*
X1071D01*
X10704Y10329D02*
Y10341D01*
X10746Y10292D02*
X10758D01*
X10752Y10286D02*
Y10298D01*
X11033Y10393D02*
X11045D01*
X11039Y10387D02*
Y10399D01*
X11081Y10357D02*
X11093D01*
X11087Y10351D02*
Y10363D01*
X11217Y10109D02*
X11229D01*
X11223Y10103D02*
Y10115D01*
X11361Y10654D02*
X11373D01*
X11367Y10648D02*
Y1066D01*
X11354Y10948D02*
X11366D01*
X1136Y10942D02*
Y10954D01*
X11401Y10943D02*
X11413D01*
X11407Y10937D02*
Y10949D01*
X11435Y10851D02*
X11447D01*
X11441Y10845D02*
Y10857D01*
X11528Y10972D02*
X1154D01*
X11534Y10966D02*
Y10978D01*
X11447Y11282D02*
X11459D01*
X11453Y11276D02*
Y11288D01*
X11504Y11249D02*
X11516D01*
X1151Y11243D02*
Y11255D01*
X11571Y11213D02*
X11583D01*
X11577Y11207D02*
Y11219D01*
X10873Y10602D02*
X10885D01*
X10879Y10596D02*
Y10608D01*
X10862Y1049D02*
X10874D01*
X10868Y10484D02*
Y10496D01*
X10875Y11473D02*
X10887D01*
X10881Y11467D02*
Y11479D01*
X11495Y11534D02*
X11507D01*
X11501Y11528D02*
Y1154D01*
X10806Y10664D02*
X10818D01*
X10812Y10658D02*
Y1067D01*
X11294Y11323D02*
X11306D01*
X113Y11317D02*
Y11329D01*
X11394Y11337D02*
X11406D01*
X114Y11331D02*
Y11343D01*
X11243Y11302D02*
X11255D01*
X11249Y11296D02*
Y11308D01*
X11194Y11272D02*
X11206D01*
X112Y11266D02*
Y11278D01*
X10535Y09753D02*
X10547D01*
X10541Y09747D02*
Y09759D01*
X10528Y09815D02*
X1054D01*
X10534Y09809D02*
Y09821D01*
X1042Y09823D02*
X10432D01*
X10426Y09817D02*
Y09829D01*
X10686Y09863D02*
X10698D01*
X10692Y09857D02*
Y09869D01*
X10728Y10383D02*
X1074D01*
X10734Y10377D02*
Y10389D01*
X10507Y10471D02*
X10519D01*
X10513Y10465D02*
Y10477D01*
X10881Y1036D02*
X10893D01*
X10887Y10354D02*
Y10366D01*
X10771Y1156D02*
X10783D01*
X10777Y11554D02*
Y11566D01*
X09827Y1044D02*
X09839D01*
X09833Y10434D02*
Y10446D01*
X09696Y10406D02*
X09708D01*
X09702Y104D02*
Y10412D01*
X10231Y11739D02*
X10243D01*
X10237Y11733D02*
Y11745D01*
X11094Y11721D02*
X11106D01*
X111Y11715D02*
Y11727D01*
X11348Y11727D02*
X1136D01*
X11354Y11721D02*
Y11733D01*
X11243Y11685D02*
X11255D01*
X11249Y11679D02*
Y11691D01*
X10315Y11673D02*
X10327D01*
X10321Y11667D02*
Y11679D01*
X10272Y11636D02*
X10284D01*
X10278Y1163D02*
Y11642D01*
X10471Y10705D02*
X10483D01*
X10477Y10699D02*
Y10711D01*
X11294Y1168D02*
X11306D01*
X113Y11674D02*
Y11686D01*
X11289Y08515D02*
X11301D01*
X11295Y08509D02*
Y08521D01*
X103436Y085904D02*
X103556D01*
X103496Y085844D02*
Y085964D01*
X10339Y0949D02*
X10351D01*
X10345Y09484D02*
Y09496D01*
X1024Y09533D02*
X10252D01*
X10246Y09527D02*
Y09539D01*
X106397Y095737D02*
X106517D01*
X106457Y095677D02*
Y095797D01*
M02*
