G04*
G04 #@! TF.GenerationSoftware,Altium Limited,Altium Designer,18.1.11 (251)*
G04*
G04 Layer_Physical_Order=2*
G04 Layer_Color=16711680*
%FSTAX24Y24*%
%MOIN*%
G70*
G01*
G75*
%ADD11C,0.0150*%
%ADD20C,0.0100*%
%ADD33C,0.0394*%
%ADD71C,0.0250*%
%ADD72C,0.0200*%
%ADD73C,0.0300*%
%ADD74C,0.0984*%
%ADD75C,0.0709*%
%ADD76O,0.0600X0.0900*%
%ADD77R,0.0600X0.0900*%
%ADD78C,0.0709*%
%ADD79C,0.0620*%
%ADD80R,0.0650X0.0650*%
%ADD81C,0.0650*%
%ADD82C,0.0600*%
%ADD83C,0.0591*%
%ADD84C,0.0787*%
%ADD85C,0.0240*%
%ADD86C,0.0400*%
G36*
X114108Y11965D02*
X114477Y119281D01*
X118386Y119281D01*
Y069412D01*
X114477Y069412D01*
X114108Y069043D01*
X114108Y066173D01*
X095451D01*
X095451Y069043D01*
X095082Y069412D01*
X091173Y069412D01*
Y119288D01*
X095082Y119288D01*
X095451Y119657D01*
X095451Y12252D01*
X114108D01*
X114108Y11965D01*
D02*
G37*
%LPC*%
G36*
X113026Y120312D02*
X112903Y120295D01*
X112787Y120248D01*
X112688Y120172D01*
X112612Y120072D01*
X112564Y119957D01*
X112559Y119921D01*
X112509D01*
X112504Y119957D01*
X112456Y120072D01*
X11238Y120172D01*
X112281Y120248D01*
X112166Y120295D01*
X112042Y120312D01*
X111918Y120295D01*
X111803Y120248D01*
X111704Y120172D01*
X111628Y120072D01*
X11158Y119957D01*
X111575Y119921D01*
X111525D01*
X11152Y119957D01*
X111472Y120072D01*
X111396Y120172D01*
X111297Y120248D01*
X111182Y120295D01*
X111058Y120312D01*
X110934Y120295D01*
X110819Y120248D01*
X11072Y120172D01*
X110644Y120072D01*
X110596Y119957D01*
X110591Y119921D01*
X110541D01*
X110536Y119957D01*
X110488Y120072D01*
X110412Y120172D01*
X110313Y120248D01*
X110197Y120295D01*
X110074Y120312D01*
X10995Y120295D01*
X109834Y120248D01*
X109735Y120172D01*
X109659Y120072D01*
X109612Y119957D01*
X109595Y119833D01*
X109612Y119709D01*
X109659Y119594D01*
X109735Y119495D01*
X109834Y119419D01*
X10995Y119371D01*
X110074Y119355D01*
X110197Y119371D01*
X110313Y119419D01*
X110412Y119495D01*
X110488Y119594D01*
X110536Y119709D01*
X110541Y119746D01*
X110591D01*
X110596Y119709D01*
X110644Y119594D01*
X11072Y119495D01*
X110819Y119419D01*
X110934Y119371D01*
X111058Y119355D01*
X111182Y119371D01*
X111297Y119419D01*
X111396Y119495D01*
X111472Y119594D01*
X11152Y119709D01*
X111525Y119746D01*
X111575D01*
X11158Y119709D01*
X111628Y119594D01*
X111655Y119558D01*
X111658Y119552D01*
X111658Y119551D01*
X111657Y119547D01*
X11165Y119535D01*
X111639Y119519D01*
X111623Y1195D01*
X111601Y119477D01*
X111525Y119401D01*
X111487Y119365D01*
X111449Y119334D01*
X11141Y119308D01*
X11137Y119285D01*
X111329Y119266D01*
X111286Y119251D01*
X111242Y119238D01*
X111196Y11923D01*
X111148Y119224D01*
X111095Y119222D01*
X108823D01*
X108053Y119993D01*
X107996Y120036D01*
X10793Y120063D01*
X10786Y120072D01*
X100108D01*
X100077Y120073D01*
X10005Y120075D01*
X100025Y120079D01*
X100003Y120084D01*
X099984Y12009D01*
X099966Y120097D01*
X099951Y120105D01*
X099937Y120114D01*
X099924Y120123D01*
X099917Y12013D01*
X09991Y120138D01*
X099811Y120214D01*
X099696Y120262D01*
X099572Y120278D01*
X099448Y120262D01*
X099333Y120214D01*
X099234Y120138D01*
X099227Y12013D01*
X09922Y120123D01*
X099207Y120114D01*
X099194Y120105D01*
X099178Y120097D01*
X09916Y12009D01*
X099141Y120084D01*
X099119Y120079D01*
X099094Y120075D01*
X09908Y120074D01*
X099066Y120075D01*
X099041Y120079D01*
X099019Y120084D01*
X099Y12009D01*
X098982Y120097D01*
X098966Y120105D01*
X098952Y120114D01*
X09894Y120123D01*
X098933Y12013D01*
X098926Y120138D01*
X098827Y120214D01*
X098712Y120262D01*
X098588Y120278D01*
X098464Y120262D01*
X098349Y120214D01*
X09825Y120138D01*
X098173Y120039D01*
X098126Y119924D01*
X098121Y119887D01*
X09807D01*
X098066Y119924D01*
X098018Y120039D01*
X097942Y120138D01*
X097843Y120214D01*
X097727Y120262D01*
X097604Y120278D01*
X09748Y120262D01*
X097364Y120214D01*
X097265Y120138D01*
X097189Y120039D01*
X097141Y119924D01*
X097137Y119887D01*
X097086D01*
X097081Y119924D01*
X097034Y120039D01*
X096958Y120138D01*
X096859Y120214D01*
X096743Y120262D01*
X096619Y120278D01*
X096495Y120262D01*
X09638Y120214D01*
X096281Y120138D01*
X096205Y120039D01*
X096157Y119924D01*
X096141Y1198D01*
X096157Y119676D01*
X096205Y119561D01*
X096281Y119462D01*
X09638Y119386D01*
X096495Y119338D01*
X096619Y119322D01*
X096743Y119338D01*
X096859Y119386D01*
X096958Y119462D01*
X097034Y119561D01*
X097081Y119676D01*
X097086Y119713D01*
X097137D01*
X097141Y119676D01*
X097189Y119561D01*
X097265Y119462D01*
X097364Y119386D01*
X09748Y119338D01*
X097604Y119322D01*
X097727Y119338D01*
X097843Y119386D01*
X097942Y119462D01*
X098018Y119561D01*
X098066Y119676D01*
X09807Y119713D01*
X098121D01*
X098126Y119676D01*
X098173Y119561D01*
X09825Y119462D01*
X098269Y119447D01*
X09827Y119445D01*
X098271Y119444D01*
X098271Y119444D01*
X098281Y119435D01*
X098285Y119429D01*
X09829Y119421D01*
X098295Y119409D01*
X098301Y119394D01*
X098305Y119376D01*
X098309Y119355D01*
X098309Y119354D01*
X097542Y118587D01*
X094065D01*
X093995Y118578D01*
X093929Y118551D01*
X093872Y118508D01*
X092207Y116843D01*
X092164Y116786D01*
X092137Y11672D01*
X092128Y11665D01*
X092128Y089683D01*
X091577Y089133D01*
X091534Y089076D01*
X091507Y08901D01*
X091498Y08894D01*
Y08387D01*
X091507Y0838D01*
X091508Y083798D01*
Y07466D01*
X091517Y07459D01*
X091544Y074524D01*
X091587Y074467D01*
X0916Y074458D01*
X096971Y069086D01*
X096993Y069064D01*
X09701Y069043D01*
X097025Y069023D01*
X097037Y069004D01*
X097047Y068986D01*
X097054Y068969D01*
X09706Y068952D01*
X097063Y068936D01*
X097066Y06892D01*
X097066Y068911D01*
X097064Y0689D01*
X097081Y068776D01*
X097129Y068661D01*
X097205Y068562D01*
X097271Y068511D01*
Y068457D01*
X09728Y068387D01*
X097307Y068321D01*
X09735Y068265D01*
X097767Y067847D01*
X097824Y067804D01*
X09789Y067777D01*
X09796Y067768D01*
X10367D01*
X10374Y067777D01*
X103806Y067804D01*
X103863Y067847D01*
X104324Y068309D01*
X104347Y068331D01*
X104392Y068369D01*
X104412Y068383D01*
X104432Y068396D01*
X104451Y068407D01*
X104469Y068417D01*
X104487Y068424D01*
X104504Y068429D01*
X104525Y068435D01*
X104526Y068435D01*
X104545Y068438D01*
X104661Y068486D01*
X10476Y068562D01*
X104836Y068661D01*
X104884Y068776D01*
X104888Y068813D01*
X104939D01*
X104944Y068776D01*
X104991Y068661D01*
X105067Y068562D01*
X105167Y068486D01*
X105282Y068438D01*
X105406Y068422D01*
X10553Y068438D01*
X105645Y068486D01*
X105744Y068562D01*
X10582Y068661D01*
X105868Y068776D01*
X105873Y068813D01*
X105923D01*
X105928Y068776D01*
X105976Y068661D01*
X106052Y068562D01*
X106151Y068486D01*
X106266Y068438D01*
X10639Y068422D01*
X106514Y068438D01*
X106629Y068486D01*
X106728Y068562D01*
X106804Y068661D01*
X106852Y068776D01*
X106868Y0689D01*
X106852Y069024D01*
X106804Y069139D01*
X106728Y069238D01*
X106629Y069314D01*
X106514Y069362D01*
X10639Y069378D01*
X106266Y069362D01*
X106151Y069314D01*
X106052Y069238D01*
X105976Y069139D01*
X105928Y069024D01*
X105923Y068987D01*
X105873D01*
X105868Y069024D01*
X10582Y069139D01*
X105744Y069238D01*
X105645Y069314D01*
X10553Y069362D01*
X105406Y069378D01*
X105282Y069362D01*
X105167Y069314D01*
X105067Y069238D01*
X104991Y069139D01*
X104944Y069024D01*
X104939Y068987D01*
X104888D01*
X104884Y069024D01*
X104836Y069139D01*
X10476Y069238D01*
X104661Y069314D01*
X104545Y069362D01*
X104421Y069378D01*
X104298Y069362D01*
X104182Y069314D01*
X104083Y069238D01*
X104007Y069139D01*
X103959Y069024D01*
X103955Y068987D01*
X103904D01*
X103899Y069024D01*
X103852Y069139D01*
X103776Y069238D01*
X103676Y069314D01*
X103561Y069362D01*
X103437Y069378D01*
X103313Y069362D01*
X103198Y069314D01*
X103099Y069238D01*
X103023Y069139D01*
X102975Y069024D01*
X102959Y0689D01*
X102971Y068811D01*
X10297Y068805D01*
X102973Y068786D01*
X102974Y068774D01*
X102973Y068763D01*
X10297Y06875D01*
X102966Y068737D01*
X102959Y068721D01*
X102949Y068705D01*
X102937Y068687D01*
X102921Y068667D01*
X102899Y068644D01*
X102745Y068491D01*
X102707Y068454D01*
X102669Y068424D01*
X10263Y068398D01*
X10259Y068375D01*
X102549Y068356D01*
X102506Y068341D01*
X102462Y068328D01*
X102416Y06832D01*
X102368Y068314D01*
X102315Y068312D01*
X099255D01*
X099202Y068314D01*
X099154Y06832D01*
X099108Y068328D01*
X099064Y068341D01*
X099021Y068356D01*
X09898Y068375D01*
X09894Y068398D01*
X098901Y068424D01*
X098863Y068454D01*
X098838Y068478D01*
X098834Y068521D01*
X098842Y068544D01*
X098865Y068562D01*
X098941Y068661D01*
X098989Y068776D01*
X098994Y068813D01*
X099045D01*
X099049Y068776D01*
X099097Y068661D01*
X099173Y068562D01*
X099272Y068486D01*
X099388Y068438D01*
X099511Y068422D01*
X099635Y068438D01*
X099751Y068486D01*
X09985Y068562D01*
X099926Y068661D01*
X099974Y068776D01*
X099978Y068813D01*
X100029D01*
X100034Y068776D01*
X100081Y068661D01*
X100157Y068562D01*
X100256Y068486D01*
X100372Y068438D01*
X100496Y068422D01*
X100619Y068438D01*
X100735Y068486D01*
X100834Y068562D01*
X10091Y068661D01*
X100958Y068776D01*
X100974Y0689D01*
X100958Y069024D01*
X10091Y069139D01*
X100834Y069238D01*
X100735Y069314D01*
X100619Y069362D01*
X100496Y069378D01*
X100372Y069362D01*
X100256Y069314D01*
X100157Y069238D01*
X100081Y069139D01*
X100034Y069024D01*
X100029Y068987D01*
X099978D01*
X099974Y069024D01*
X099926Y069139D01*
X09985Y069238D01*
X099751Y069314D01*
X099635Y069362D01*
X099511Y069378D01*
X099388Y069362D01*
X099272Y069314D01*
X099173Y069238D01*
X099097Y069139D01*
X099049Y069024D01*
X099045Y068987D01*
X098994D01*
X098989Y069024D01*
X098941Y069139D01*
X098865Y069238D01*
X098766Y069314D01*
X098651Y069362D01*
X098527Y069378D01*
X098403Y069362D01*
X098288Y069314D01*
X098189Y069238D01*
X098113Y069139D01*
X098065Y069024D01*
X09806Y068987D01*
X09801D01*
X098005Y069024D01*
X097957Y069139D01*
X097881Y069238D01*
X097782Y069314D01*
X097667Y069362D01*
X097543Y069378D01*
X097532Y069377D01*
X097523Y069377D01*
X097507Y06938D01*
X097491Y069383D01*
X097474Y069389D01*
X097457Y069396D01*
X097439Y069406D01*
X09742Y069418D01*
X0974Y069433D01*
X097379Y06945D01*
X097356Y069472D01*
X092052Y074776D01*
Y08387D01*
X092043Y08394D01*
X092042Y083942D01*
Y088827D01*
X092593Y089377D01*
X092636Y089434D01*
X092663Y0895D01*
X092672Y08957D01*
X092672Y116537D01*
X094178Y118043D01*
X097655D01*
X097725Y118052D01*
X097791Y118079D01*
X097848Y118122D01*
X09878Y119055D01*
X098824Y119112D01*
X098851Y119177D01*
X09886Y119248D01*
Y119264D01*
X098861Y119299D01*
X098863Y119328D01*
X098866Y119354D01*
X09887Y119376D01*
X098875Y119394D01*
X09888Y119409D01*
X098886Y119421D01*
X098891Y119429D01*
X098895Y119435D01*
X098905Y119444D01*
X098905Y119444D01*
X098905Y119445D01*
X098906Y119447D01*
X098926Y119462D01*
X098933Y11947D01*
X09894Y119477D01*
X098952Y119486D01*
X098966Y119495D01*
X098982Y119503D01*
X099Y11951D01*
X099019Y119516D01*
X099041Y119521D01*
X099066Y119525D01*
X09908Y119526D01*
X099094Y119525D01*
X099119Y119521D01*
X099141Y119516D01*
X09916Y11951D01*
X099178Y119503D01*
X099194Y119495D01*
X099207Y119486D01*
X09922Y119477D01*
X099227Y11947D01*
X099234Y119462D01*
X099333Y119386D01*
X099448Y119338D01*
X099572Y119322D01*
X099696Y119338D01*
X099811Y119386D01*
X09991Y119462D01*
X099917Y11947D01*
X099924Y119477D01*
X099937Y119486D01*
X099951Y119495D01*
X099966Y119503D01*
X099984Y11951D01*
X100003Y119516D01*
X100025Y119521D01*
X10005Y119525D01*
X100077Y119527D01*
X100108Y119528D01*
X107747D01*
X108517Y118757D01*
X108574Y118714D01*
X10864Y118687D01*
X10871Y118678D01*
X11265D01*
X11272Y118687D01*
X112786Y118714D01*
X112843Y118757D01*
X113219Y119134D01*
X113262Y11919D01*
X113289Y119256D01*
X113298Y119323D01*
X113299Y119325D01*
X113299Y119359D01*
X113301Y119414D01*
X113304Y119449D01*
X113365Y119495D01*
X113441Y119594D01*
X113489Y119709D01*
X113505Y119833D01*
X113489Y119957D01*
X113441Y120072D01*
X113365Y120172D01*
X113266Y120248D01*
X11315Y120295D01*
X113026Y120312D01*
D02*
G37*
G36*
X10778Y118695D02*
X10767Y118681D01*
X107568Y118639D01*
X10748Y118571D01*
X107413Y118483D01*
X10737Y118381D01*
X107356Y118272D01*
X10737Y118162D01*
X107413Y11806D01*
X10748Y117972D01*
X107568Y117905D01*
X10767Y117862D01*
X10778Y117848D01*
X107889Y117862D01*
X107991Y117905D01*
X108079Y117972D01*
X108146Y11806D01*
X108189Y118162D01*
X108203Y118272D01*
X108189Y118381D01*
X108146Y118483D01*
X108079Y118571D01*
X107991Y118639D01*
X107889Y118681D01*
X10778Y118695D01*
D02*
G37*
G36*
X10678D02*
X10667Y118681D01*
X106568Y118639D01*
X10648Y118571D01*
X106413Y118483D01*
X10637Y118381D01*
X106356Y118272D01*
X10637Y118162D01*
X106413Y11806D01*
X10648Y117972D01*
X106568Y117905D01*
X10667Y117862D01*
X10678Y117848D01*
X106889Y117862D01*
X106991Y117905D01*
X107079Y117972D01*
X107146Y11806D01*
X107189Y118162D01*
X107203Y118272D01*
X107189Y118381D01*
X107146Y118483D01*
X107079Y118571D01*
X106991Y118639D01*
X106889Y118681D01*
X10678Y118695D01*
D02*
G37*
G36*
X10478D02*
X10467Y118681D01*
X104568Y118639D01*
X10448Y118571D01*
X104413Y118483D01*
X10437Y118381D01*
X104356Y118272D01*
X10437Y118162D01*
X104413Y11806D01*
X10448Y117972D01*
X104568Y117905D01*
X10467Y117862D01*
X10478Y117848D01*
X104889Y117862D01*
X104991Y117905D01*
X105079Y117972D01*
X105146Y11806D01*
X105189Y118162D01*
X105203Y118272D01*
X105189Y118381D01*
X105146Y118483D01*
X105079Y118571D01*
X104991Y118639D01*
X104889Y118681D01*
X10478Y118695D01*
D02*
G37*
G36*
X10378D02*
X10367Y118681D01*
X103568Y118639D01*
X10348Y118571D01*
X103413Y118483D01*
X10337Y118381D01*
X103356Y118272D01*
X10337Y118162D01*
X103413Y11806D01*
X10348Y117972D01*
X103568Y117905D01*
X10367Y117862D01*
X10378Y117848D01*
X103889Y117862D01*
X103991Y117905D01*
X104079Y117972D01*
X104146Y11806D01*
X104189Y118162D01*
X104203Y118272D01*
X104189Y118381D01*
X104146Y118483D01*
X104079Y118571D01*
X103991Y118639D01*
X103889Y118681D01*
X10378Y118695D01*
D02*
G37*
G36*
X10278D02*
X10267Y118681D01*
X102568Y118639D01*
X10248Y118571D01*
X102413Y118483D01*
X10237Y118381D01*
X102356Y118272D01*
X10237Y118162D01*
X102413Y11806D01*
X10248Y117972D01*
X102568Y117905D01*
X10267Y117862D01*
X10278Y117848D01*
X102889Y117862D01*
X102991Y117905D01*
X103079Y117972D01*
X103146Y11806D01*
X103189Y118162D01*
X103203Y118272D01*
X103189Y118381D01*
X103146Y118483D01*
X103079Y118571D01*
X102991Y118639D01*
X102889Y118681D01*
X10278Y118695D01*
D02*
G37*
G36*
X10578D02*
X10567Y118681D01*
X105568Y118639D01*
X10548Y118571D01*
X105413Y118483D01*
X10537Y118381D01*
X105356Y118272D01*
X10537Y118162D01*
X105413Y11806D01*
X10548Y117972D01*
X105499Y117957D01*
X105502Y117908D01*
X105158Y117563D01*
X102543D01*
X102464Y117616D01*
X10237Y117635D01*
X102276Y117616D01*
X102197Y117563D01*
X102144Y117484D01*
X102125Y11739D01*
X102144Y117296D01*
X102184Y117236D01*
X102169Y117184D01*
X102166Y11718D01*
X102157Y117178D01*
X101953Y117382D01*
Y117802D01*
X101954Y117807D01*
X101958Y117818D01*
X101964Y117833D01*
X101974Y11785D01*
X101987Y11787D01*
X102003Y117891D01*
X102049Y117943D01*
X102072Y117966D01*
X102079Y117972D01*
X102146Y11806D01*
X102189Y118162D01*
X102203Y118272D01*
X102189Y118381D01*
X102146Y118483D01*
X102079Y118571D01*
X101991Y118639D01*
X101889Y118681D01*
X10178Y118695D01*
X10167Y118681D01*
X101568Y118639D01*
X10148Y118571D01*
X101413Y118483D01*
X10137Y118381D01*
X101356Y118272D01*
X10137Y118162D01*
X101413Y11806D01*
X10148Y117972D01*
X101488Y117966D01*
X10151Y117943D01*
X101556Y117891D01*
X101572Y11787D01*
X101585Y11785D01*
X101595Y117833D01*
X101601Y117818D01*
X101605Y117807D01*
X101606Y117802D01*
Y11731D01*
X101619Y117244D01*
X101657Y117188D01*
X101987Y116857D01*
X102044Y11682D01*
X10211Y116807D01*
X102941D01*
X102973Y116768D01*
X102965Y11673D01*
X102984Y116636D01*
X103015Y11659D01*
X102993Y116545D01*
X102947Y116537D01*
X102874Y116586D01*
X10278Y116605D01*
X102686Y116586D01*
X102607Y116533D01*
X102554Y116454D01*
X102535Y11636D01*
X102554Y116266D01*
X102607Y116187D01*
X102686Y116134D01*
X10278Y116115D01*
X102874Y116134D01*
X102953Y116187D01*
X108053D01*
X108069Y116137D01*
X108047Y116123D01*
X107769Y115845D01*
X107676Y115826D01*
X107597Y115773D01*
X107544Y115694D01*
X107525Y1156D01*
X107544Y115506D01*
X107597Y115427D01*
X107676Y115374D01*
X10777Y115355D01*
X107864Y115374D01*
X107943Y115427D01*
X107996Y115506D01*
X108015Y115599D01*
X108242Y115827D01*
X1122D01*
X112266Y11584D01*
X112323Y115877D01*
X113001Y116555D01*
X113094Y116574D01*
X113173Y116627D01*
X113226Y116706D01*
X113245Y1168D01*
X113226Y116894D01*
X113173Y116973D01*
X113094Y117026D01*
X113Y117045D01*
X112906Y117026D01*
X112827Y116973D01*
X112776Y116897D01*
X112762Y116896D01*
X112724Y116901D01*
X112716Y116944D01*
X112663Y117023D01*
X112628Y117047D01*
X112643Y117097D01*
X113367D01*
X113446Y117044D01*
X11354Y117025D01*
X113634Y117044D01*
X113713Y117097D01*
X113766Y117176D01*
X113785Y11727D01*
X113766Y117364D01*
X113713Y117443D01*
X113634Y117496D01*
X11354Y117515D01*
X113446Y117496D01*
X113367Y117443D01*
X11222D01*
X112154Y11743D01*
X112097Y117393D01*
X111608Y116903D01*
X111046D01*
X111018Y116953D01*
X111028Y116971D01*
X111094Y116984D01*
X111173Y117037D01*
X111226Y117116D01*
X111245Y11721D01*
X111226Y117304D01*
X111173Y117383D01*
X111094Y117436D01*
X111Y117455D01*
X110906Y117436D01*
X110827Y117383D01*
X110774Y117304D01*
X110755Y117211D01*
X110698Y117153D01*
X102583D01*
X10256Y117203D01*
X102571Y117217D01*
X10523D01*
X105296Y11723D01*
X105353Y117267D01*
X105902Y117817D01*
X10594Y117873D01*
X105942Y117884D01*
X105991Y117905D01*
X106079Y117972D01*
X106146Y11806D01*
X106189Y118162D01*
X106203Y118272D01*
X106189Y118381D01*
X106146Y118483D01*
X106079Y118571D01*
X105991Y118639D01*
X105889Y118681D01*
X10578Y118695D01*
D02*
G37*
G36*
X118305Y117765D02*
X117415D01*
Y116875D01*
X118305D01*
Y117765D01*
D02*
G37*
G36*
X11786Y116769D02*
X117744Y116753D01*
X117636Y116709D01*
X117543Y116637D01*
X117471Y116544D01*
X117427Y116436D01*
X117411Y11632D01*
X117427Y116204D01*
X117471Y116096D01*
X117543Y116003D01*
X117636Y115931D01*
X117744Y115887D01*
X11786Y115871D01*
X117976Y115887D01*
X118084Y115931D01*
X118177Y116003D01*
X118249Y116096D01*
X118293Y116204D01*
X118309Y11632D01*
X118293Y116436D01*
X118249Y116544D01*
X118177Y116637D01*
X118084Y116709D01*
X117976Y116753D01*
X11786Y116769D01*
D02*
G37*
G36*
X11501Y115585D02*
X114916Y115566D01*
X114837Y115513D01*
X10942D01*
X109354Y1155D01*
X109297Y115463D01*
X108809Y114975D01*
X108716Y114956D01*
X108637Y114903D01*
X108584Y114824D01*
X108565Y11473D01*
X108584Y114636D01*
X108637Y114557D01*
X108716Y114504D01*
X10881Y114485D01*
X108904Y114504D01*
X108983Y114557D01*
X109036Y114636D01*
X109055Y114729D01*
X109492Y115167D01*
X114837D01*
X114916Y115114D01*
X11501Y115095D01*
X115104Y115114D01*
X115183Y115167D01*
X115236Y115246D01*
X115255Y11534D01*
X115236Y115434D01*
X115183Y115513D01*
X115104Y115566D01*
X11501Y115585D01*
D02*
G37*
G36*
X11786Y115769D02*
X117744Y115753D01*
X117636Y115709D01*
X117543Y115637D01*
X117471Y115544D01*
X117427Y115436D01*
X117411Y11532D01*
X117427Y115204D01*
X117471Y115096D01*
X117543Y115003D01*
X117636Y114931D01*
X117744Y114887D01*
X11786Y114871D01*
X117976Y114887D01*
X118084Y114931D01*
X118177Y115003D01*
X118249Y115096D01*
X118293Y115204D01*
X118309Y11532D01*
X118293Y115436D01*
X118249Y115544D01*
X118177Y115637D01*
X118084Y115709D01*
X117976Y115753D01*
X11786Y115769D01*
D02*
G37*
G36*
X1002Y115045D02*
X100106Y115026D01*
X100027Y114973D01*
X099974Y114894D01*
X099955Y1148D01*
X099974Y114706D01*
X100027Y114627D01*
X100106Y114574D01*
X1002Y114555D01*
X100294Y114574D01*
X100373Y114627D01*
X107808D01*
X108112Y114323D01*
X108091Y114273D01*
X101073D01*
X100994Y114326D01*
X1009Y114345D01*
X100806Y114326D01*
X100727Y114273D01*
X100674Y114194D01*
X100655Y1141D01*
X100674Y114006D01*
X100727Y113927D01*
X100806Y113874D01*
X1009Y113855D01*
X100994Y113874D01*
X101073Y113927D01*
X108068D01*
X108392Y113603D01*
X108371Y113553D01*
X101413D01*
X101334Y113606D01*
X10124Y113625D01*
X101146Y113606D01*
X101067Y113553D01*
X101014Y113474D01*
X100995Y11338D01*
X101014Y113286D01*
X101067Y113207D01*
X101146Y113154D01*
X10124Y113135D01*
X101334Y113154D01*
X101413Y113207D01*
X108338D01*
X108492Y113053D01*
X108471Y113003D01*
X100736D01*
X100723Y113023D01*
X100644Y113076D01*
X10055Y113095D01*
X100456Y113076D01*
X100377Y113023D01*
X100324Y112944D01*
X100305Y11285D01*
X100324Y112756D01*
X100377Y112677D01*
X100456Y112624D01*
X10055Y112605D01*
X100644Y112624D01*
X100678Y112647D01*
X100688Y112651D01*
X100692Y112654D01*
X100692Y112654D01*
X100693Y112654D01*
X100694Y112655D01*
X100696Y112655D01*
X100699Y112656D01*
X100701Y112656D01*
X100706Y112657D01*
X108438D01*
X113287Y107807D01*
X113287Y107807D01*
X113344Y10777D01*
X11341Y107757D01*
X115398D01*
X115837Y107318D01*
Y101192D01*
X114709Y100065D01*
X114616Y100046D01*
X114537Y099993D01*
X114484Y099914D01*
X114465Y09982D01*
X114484Y099726D01*
X114537Y099647D01*
X114616Y099594D01*
X11471Y099575D01*
X114804Y099594D01*
X114883Y099647D01*
X114936Y099726D01*
X114955Y099819D01*
X116107Y100972D01*
X116157Y100951D01*
Y100792D01*
X115419Y100055D01*
X115326Y100036D01*
X115247Y099983D01*
X115194Y099904D01*
X115175Y09981D01*
X115194Y099716D01*
X115247Y099637D01*
X115326Y099584D01*
X11542Y099565D01*
X115514Y099584D01*
X115593Y099637D01*
X115646Y099716D01*
X115665Y099809D01*
X11643Y100575D01*
X11648Y100554D01*
Y093935D01*
X113787Y091243D01*
X11375Y091186D01*
X113737Y09112D01*
Y083312D01*
X111318Y080893D01*
X09453D01*
X094464Y08088D01*
X094407Y080843D01*
X093566Y080001D01*
X093532Y080027D01*
X09343Y080069D01*
X09332Y080084D01*
X09321Y080069D01*
X093108Y080027D01*
X09302Y07996D01*
X092953Y079872D01*
X092911Y07977D01*
X092896Y07966D01*
Y07936D01*
X092911Y07925D01*
X092953Y079148D01*
X09302Y07906D01*
X093108Y078993D01*
X09321Y078951D01*
X09332Y078936D01*
X09343Y078951D01*
X093532Y078993D01*
X09362Y07906D01*
X093687Y079148D01*
X093729Y07925D01*
X093744Y07936D01*
Y07966D01*
X093741Y079683D01*
X093754Y079698D01*
X093879Y079824D01*
X093922Y079796D01*
X093911Y07977D01*
X093896Y07966D01*
Y07936D01*
X093911Y07925D01*
X093953Y079148D01*
X09402Y07906D01*
X094108Y078993D01*
X09421Y078951D01*
X09432Y078936D01*
X09443Y078951D01*
X094532Y078993D01*
X09462Y07906D01*
X094687Y079148D01*
X094729Y07925D01*
X094744Y07936D01*
Y07966D01*
X094741Y079683D01*
X094754Y079698D01*
X094879Y079824D01*
X094922Y079796D01*
X094911Y07977D01*
X094896Y07966D01*
Y07936D01*
X094911Y07925D01*
X094953Y079148D01*
X09502Y07906D01*
X095108Y078993D01*
X09521Y078951D01*
X09532Y078936D01*
X09543Y078951D01*
X095532Y078993D01*
X09562Y07906D01*
X095687Y079148D01*
X095729Y07925D01*
X095744Y07936D01*
Y07966D01*
X095729Y07977D01*
X095687Y079872D01*
X09562Y07996D01*
X095532Y080027D01*
X09543Y080069D01*
X09532Y080084D01*
X09521Y080069D01*
X095184Y080058D01*
X095156Y080101D01*
X095262Y080207D01*
X11195D01*
X112016Y08022D01*
X112073Y080257D01*
X114453Y082637D01*
X11449Y082694D01*
X114503Y08276D01*
Y090968D01*
X117067Y093532D01*
X117117Y093511D01*
Y093352D01*
X114787Y091023D01*
X11475Y090966D01*
X114737Y0909D01*
Y082392D01*
X112028Y079683D01*
X09674D01*
Y08008D01*
X0959D01*
Y07894D01*
X09674D01*
Y079337D01*
X1121D01*
X112166Y07935D01*
X112223Y079387D01*
X115033Y082197D01*
X11507Y082254D01*
X115083Y08232D01*
Y090828D01*
X117377Y093122D01*
X117427Y093101D01*
Y081286D01*
X107914Y071773D01*
X104313D01*
X104234Y071826D01*
X10414Y071845D01*
X104046Y071826D01*
X103967Y071773D01*
X103914Y071694D01*
X103895Y0716D01*
X103914Y071506D01*
X103945Y07146D01*
X103918Y07141D01*
X099479D01*
X0994Y071462D01*
X099306Y071481D01*
X099213Y071462D01*
X099133Y071409D01*
X09908Y07133D01*
X099062Y071236D01*
X09908Y071143D01*
X099133Y071063D01*
X099213Y07101D01*
X099306Y070992D01*
X0994Y07101D01*
X099479Y071063D01*
X108356D01*
X108423Y071076D01*
X108479Y071114D01*
X118033Y080667D01*
X11807Y080724D01*
X118083Y08079D01*
X118083Y105435D01*
X118273Y105624D01*
X11831Y10568D01*
X118323Y105746D01*
Y10775D01*
X11831Y107816D01*
X118273Y107873D01*
X116553Y109593D01*
X116496Y10963D01*
X11643Y109643D01*
X116173D01*
X116094Y109696D01*
X116Y109715D01*
X115906Y109696D01*
X115827Y109643D01*
X115774Y109564D01*
X115755Y10947D01*
X115774Y109376D01*
X11578Y109367D01*
X115756Y109323D01*
X114958D01*
X114943Y109373D01*
X114993Y109407D01*
X115046Y109486D01*
X115065Y10958D01*
X115056Y109623D01*
X115057Y109628D01*
X1151Y109656D01*
X115109Y10965D01*
X115114Y109626D01*
X115167Y109547D01*
X115246Y109494D01*
X11534Y109475D01*
X115434Y109494D01*
X115513Y109547D01*
X115566Y109626D01*
X115585Y10972D01*
X115566Y109814D01*
X115513Y109893D01*
X115434Y109946D01*
X11534Y109965D01*
X115315Y10996D01*
X114963Y110312D01*
X114964Y110316D01*
X114979Y110362D01*
X116815D01*
X116881Y110375D01*
X116938Y110412D01*
X117622Y111097D01*
X117628Y111101D01*
X11764Y111106D01*
X117657Y111112D01*
X117679Y111118D01*
X117705Y111124D01*
X117735Y111128D01*
X117813Y111133D01*
X117849Y111133D01*
X11786Y111131D01*
X117976Y111147D01*
X118084Y111191D01*
X118177Y111263D01*
X118249Y111356D01*
X118293Y111464D01*
X118309Y11158D01*
X118293Y111696D01*
X118249Y111804D01*
X118177Y111897D01*
X118084Y111969D01*
X117976Y112013D01*
X11786Y112029D01*
X117744Y112013D01*
X117636Y111969D01*
X117543Y111897D01*
X117471Y111804D01*
X117427Y111696D01*
X117411Y11158D01*
X117413Y111569D01*
X117413Y111533D01*
X117408Y111455D01*
X117404Y111425D01*
X117398Y111399D01*
X117392Y111377D01*
X117386Y11136D01*
X117381Y111348D01*
X117377Y111342D01*
X116743Y110708D01*
X114688D01*
X114609Y110761D01*
X114515Y11078D01*
X114421Y110761D01*
X114342Y110708D01*
X114289Y110629D01*
X11427Y110535D01*
X114289Y110441D01*
X114312Y110407D01*
X114288Y110363D01*
X112562D01*
X108003Y114923D01*
X107946Y11496D01*
X10788Y114973D01*
X100373D01*
X100294Y115026D01*
X1002Y115045D01*
D02*
G37*
G36*
X11522Y11413D02*
X111645D01*
X111549Y114111D01*
X111468Y114057D01*
X110773Y113362D01*
X110719Y113281D01*
X1107Y113185D01*
Y11268D01*
X110719Y112584D01*
X110773Y112503D01*
X110854Y112449D01*
X11095Y11243D01*
X111046Y112449D01*
X111127Y112503D01*
X111181Y112584D01*
X1112Y11268D01*
Y113082D01*
X111748Y11363D01*
X115117D01*
X115343Y113403D01*
X115424Y113349D01*
X11552Y11333D01*
X117342D01*
X117361Y113329D01*
X117389Y113324D01*
X117408Y113319D01*
X117415Y113316D01*
Y113135D01*
X118305D01*
Y114025D01*
X117415D01*
Y113844D01*
X117408Y113841D01*
X117389Y113836D01*
X117361Y113831D01*
X117342Y11383D01*
X115623D01*
X115397Y114057D01*
X115316Y114111D01*
X11522Y11413D01*
D02*
G37*
G36*
X113Y113475D02*
X112906Y113456D01*
X112827Y113403D01*
X112774Y113324D01*
X112755Y11323D01*
X112774Y113136D01*
X112827Y113057D01*
X112906Y113004D01*
X112999Y112985D01*
X113272Y112713D01*
X113251Y112663D01*
X113092D01*
X112735Y113021D01*
X112716Y113114D01*
X112663Y113193D01*
X112584Y113246D01*
X11249Y113265D01*
X112396Y113246D01*
X112317Y113193D01*
X112264Y113114D01*
X112245Y11302D01*
X112264Y112926D01*
X112317Y112847D01*
X112396Y112794D01*
X112489Y112775D01*
X112897Y112367D01*
X112919Y112353D01*
X112903Y112303D01*
X112662D01*
X112245Y112721D01*
X112226Y112814D01*
X112173Y112893D01*
X112094Y112946D01*
X112Y112965D01*
X111906Y112946D01*
X111827Y112893D01*
X111774Y112814D01*
X111755Y11272D01*
X111774Y112626D01*
X111827Y112547D01*
X111906Y112494D01*
X111999Y112475D01*
X112467Y112007D01*
X112524Y11197D01*
X11259Y111957D01*
X112819D01*
X112846Y111907D01*
X112824Y111874D01*
X112805Y11178D01*
X112824Y111686D01*
X112877Y111607D01*
X112956Y111554D01*
X11305Y111535D01*
X113144Y111554D01*
X113178Y111577D01*
X113188Y111581D01*
X113192Y111584D01*
X113192Y111584D01*
X113193Y111584D01*
X113194Y111585D01*
X113196Y111585D01*
X113199Y111586D01*
X113201Y111586D01*
X113206Y111587D01*
X11643D01*
X116496Y1116D01*
X116553Y111637D01*
X117322Y112407D01*
X11735D01*
X117357Y112405D01*
X11737Y112401D01*
X117386Y112393D01*
X117405Y112382D01*
X117428Y112367D01*
X117452Y112348D01*
X11751Y112297D01*
X117536Y112272D01*
X117543Y112263D01*
X117636Y112191D01*
X117744Y112147D01*
X11786Y112131D01*
X117976Y112147D01*
X118084Y112191D01*
X118177Y112263D01*
X118249Y112356D01*
X118293Y112464D01*
X118309Y11258D01*
X118293Y112696D01*
X118249Y112804D01*
X118177Y112897D01*
X118084Y112969D01*
X117976Y113013D01*
X11786Y113029D01*
X117744Y113013D01*
X117636Y112969D01*
X117543Y112897D01*
X117536Y112888D01*
X11751Y112863D01*
X117452Y112812D01*
X117428Y112793D01*
X117405Y112778D01*
X117386Y112767D01*
X11737Y112759D01*
X117357Y112755D01*
X11735Y112753D01*
X11725D01*
X117184Y11274D01*
X117127Y112703D01*
X116358Y111933D01*
X115987D01*
X115961Y111983D01*
X115996Y112036D01*
X116015Y11213D01*
X115996Y112224D01*
X115943Y112303D01*
X115864Y112356D01*
X11577Y112375D01*
X115676Y112356D01*
X115597Y112303D01*
X115324D01*
X115297Y112353D01*
X115326Y112396D01*
X115345Y11249D01*
X115326Y112584D01*
X115273Y112663D01*
X115194Y112716D01*
X1151Y112735D01*
X115006Y112716D01*
X114927Y112663D01*
X114767D01*
X114743Y112707D01*
X114756Y112726D01*
X114775Y11282D01*
X114756Y112914D01*
X114703Y112993D01*
X114624Y113046D01*
X11453Y113065D01*
X114436Y113046D01*
X114357Y112993D01*
X113482D01*
X113245Y113231D01*
X113226Y113324D01*
X113173Y113403D01*
X113094Y113456D01*
X113Y113475D01*
D02*
G37*
G36*
X11792Y111021D02*
Y11064D01*
X118301D01*
X118293Y110696D01*
X118249Y110804D01*
X118177Y110897D01*
X118084Y110969D01*
X117976Y111013D01*
X11792Y111021D01*
D02*
G37*
G36*
X1178D02*
X117744Y111013D01*
X117636Y110969D01*
X117543Y110897D01*
X117471Y110804D01*
X117427Y110696D01*
X117419Y11064D01*
X1178D01*
Y111021D01*
D02*
G37*
G36*
X118301Y11052D02*
X11792D01*
Y110139D01*
X117976Y110147D01*
X118084Y110191D01*
X118177Y110263D01*
X118249Y110356D01*
X118293Y110464D01*
X118301Y11052D01*
D02*
G37*
G36*
X1178D02*
X117419D01*
X117427Y110464D01*
X117471Y110356D01*
X117543Y110263D01*
X117636Y110191D01*
X117744Y110147D01*
X1178Y110139D01*
Y11052D01*
D02*
G37*
G36*
X11053Y109712D02*
X110418Y109697D01*
X110313Y109654D01*
X110223Y109585D01*
X110154Y109495D01*
X110111Y109391D01*
X110096Y109279D01*
X110111Y109166D01*
X110154Y109062D01*
X110223Y108972D01*
X110313Y108903D01*
X110418Y10886D01*
X11053Y108845D01*
X110642Y10886D01*
X110747Y108903D01*
X110837Y108972D01*
X110906Y109062D01*
X110949Y109166D01*
X110964Y109279D01*
X110949Y109391D01*
X110906Y109495D01*
X110837Y109585D01*
X110747Y109654D01*
X110642Y109697D01*
X11053Y109712D01*
D02*
G37*
G36*
Y107744D02*
X110418Y107729D01*
X110313Y107686D01*
X110223Y107617D01*
X110154Y107527D01*
X110111Y107422D01*
X110096Y10731D01*
X110111Y107198D01*
X110154Y107093D01*
X110223Y107003D01*
X110313Y106934D01*
X110418Y106891D01*
X11053Y106876D01*
X110642Y106891D01*
X110747Y106934D01*
X110837Y107003D01*
X110906Y107093D01*
X110949Y107198D01*
X110964Y10731D01*
X110949Y107422D01*
X110906Y107527D01*
X110837Y107617D01*
X110747Y107686D01*
X110642Y107729D01*
X11053Y107744D01*
D02*
G37*
G36*
X11367Y106785D02*
X113576Y106766D01*
X113497Y106713D01*
X113484Y106693D01*
X11256D01*
X112494Y10668D01*
X112437Y106643D01*
X111988Y106193D01*
X108963D01*
X108884Y106246D01*
X10879Y106265D01*
X108696Y106246D01*
X108617Y106193D01*
X108564Y106114D01*
X108545Y10602D01*
X108564Y105926D01*
X108617Y105847D01*
X108696Y105794D01*
X10879Y105775D01*
X108884Y105794D01*
X108963Y105847D01*
X11206D01*
X112126Y10586D01*
X112183Y105897D01*
X112632Y106347D01*
X113516D01*
X113517Y106347D01*
X113521Y106346D01*
X113524Y106345D01*
X113526Y106345D01*
X113527Y106344D01*
X113528Y106344D01*
X113528Y106344D01*
X113532Y106341D01*
X113542Y106337D01*
X113576Y106314D01*
X11367Y106295D01*
X113764Y106314D01*
X113843Y106367D01*
X113896Y106446D01*
X113915Y10654D01*
X113896Y106634D01*
X113843Y106713D01*
X113764Y106766D01*
X11367Y106785D01*
D02*
G37*
G36*
X11302Y106035D02*
X112926Y106016D01*
X112847Y105963D01*
X112794Y105884D01*
X112775Y10579D01*
X112794Y105696D01*
X112847Y105617D01*
X112926Y105564D01*
X11302Y105545D01*
X113114Y105564D01*
X113193Y105617D01*
X113246Y105696D01*
X113265Y10579D01*
X113246Y105884D01*
X113193Y105963D01*
X113114Y106016D01*
X11302Y106035D01*
D02*
G37*
G36*
X10812Y106885D02*
X108026Y106866D01*
X107947Y106813D01*
X107894Y106734D01*
X107875Y10664D01*
X107894Y106546D01*
X107947Y106467D01*
Y1059D01*
X10796Y105834D01*
X107997Y105777D01*
X108167Y105608D01*
Y105531D01*
X108117Y105514D01*
X108076Y105568D01*
X107989Y105634D01*
X107888Y105676D01*
X10778Y105691D01*
X107671Y105676D01*
X10757Y105634D01*
X107483Y105568D01*
X107417Y105481D01*
X107375Y10538D01*
X107361Y105272D01*
X107375Y105163D01*
X107417Y105062D01*
X107483Y104975D01*
X107513Y104953D01*
X107516Y104904D01*
X107482Y104868D01*
X107016D01*
X107001Y104918D01*
X107076Y104975D01*
X107142Y105062D01*
X107184Y105163D01*
X107198Y105272D01*
X107184Y10538D01*
X107142Y105481D01*
X107076Y105568D01*
X106989Y105634D01*
X106888Y105676D01*
X10678Y105691D01*
X106671Y105676D01*
X10657Y105634D01*
X106483Y105568D01*
X106417Y105481D01*
X106375Y10538D01*
X106361Y105272D01*
X106375Y105163D01*
X106417Y105062D01*
X106483Y104975D01*
X10657Y104909D01*
X106625Y104886D01*
X106631Y10483D01*
X106612Y104818D01*
X106017Y104223D01*
X106003Y104201D01*
X105953Y104216D01*
Y104809D01*
X105954Y104815D01*
X105958Y104825D01*
X105964Y104839D01*
X105973Y104856D01*
X105986Y104876D01*
X106002Y104896D01*
X106046Y104947D01*
X106068Y10497D01*
X106076Y104975D01*
X106142Y105062D01*
X106184Y105163D01*
X106198Y105272D01*
X106184Y10538D01*
X106142Y105481D01*
X106076Y105568D01*
X105989Y105634D01*
X105888Y105676D01*
X10578Y105691D01*
X105671Y105676D01*
X10557Y105634D01*
X105483Y105568D01*
X105417Y105481D01*
X105375Y10538D01*
X105361Y105272D01*
X105375Y105163D01*
X105417Y105062D01*
X105483Y104975D01*
X105491Y10497D01*
X105513Y104947D01*
X105558Y104896D01*
X105573Y104876D01*
X105586Y104856D01*
X105595Y104839D01*
X105601Y104825D01*
X105605Y104815D01*
X105606Y104809D01*
Y101481D01*
X102859Y098734D01*
X101029D01*
X100962Y098721D01*
X100906Y098683D01*
X099706Y097483D01*
X099701Y097479D01*
X09969Y097474D01*
X099675Y097469D01*
X099656Y097463D01*
X099633Y097459D01*
X099607Y097455D01*
X099537Y09745D01*
X099505Y09745D01*
X099496Y097451D01*
X099386Y097437D01*
X099284Y097394D01*
X099268Y097383D01*
X099235Y09742D01*
X099852Y098037D01*
X09986Y098035D01*
X099954Y098054D01*
X100033Y098107D01*
X100086Y098186D01*
X100105Y09828D01*
X100086Y098374D01*
X100033Y098453D01*
X099954Y098506D01*
X09986Y098525D01*
X099766Y098506D01*
X099687Y098453D01*
X099634Y098374D01*
X09962Y098301D01*
X099618Y098297D01*
X099618Y098294D01*
X099618Y098293D01*
X099616Y098291D01*
X099616Y098291D01*
X098857Y097533D01*
X09882Y097476D01*
X098807Y09741D01*
Y097381D01*
X098757Y097357D01*
X098707Y097394D01*
X098605Y097437D01*
X098496Y097451D01*
X098386Y097437D01*
X098284Y097394D01*
X098196Y097327D01*
X098129Y097239D01*
X098086Y097137D01*
X098072Y097028D01*
X098086Y096918D01*
X098129Y096816D01*
X098196Y096728D01*
X098284Y096661D01*
X098386Y096618D01*
X098496Y096604D01*
X098605Y096618D01*
X098707Y096661D01*
X098757Y096698D01*
X098807Y096674D01*
Y08525D01*
X09882Y085184D01*
X098857Y085127D01*
X099322Y084663D01*
Y08449D01*
X099321Y084485D01*
X099318Y084474D01*
X099311Y08446D01*
X099302Y084443D01*
X099289Y084424D01*
X099274Y084403D01*
X099229Y084352D01*
X099207Y084329D01*
X099199Y084324D01*
X099133Y084237D01*
X099091Y084136D01*
X099077Y084028D01*
X099091Y083919D01*
X099133Y083818D01*
X099199Y083731D01*
X099286Y083665D01*
X099387Y083623D01*
X099496Y083609D01*
X099604Y083623D01*
X099705Y083665D01*
X099767Y083712D01*
X099817Y083687D01*
Y08366D01*
X09983Y083594D01*
X099867Y083537D01*
X100097Y083307D01*
X100154Y08327D01*
X10022Y083257D01*
X100898D01*
X100964Y08327D01*
X101021Y083307D01*
X101291Y083578D01*
X101296Y083581D01*
X101306Y083586D01*
X10132Y083591D01*
X101339Y083597D01*
X101362Y083601D01*
X101387Y083605D01*
X101455Y08361D01*
X101487Y08361D01*
X101496Y083609D01*
X101604Y083623D01*
X101705Y083665D01*
X101792Y083731D01*
X101858Y083818D01*
X1019Y083919D01*
X101915Y084028D01*
X1019Y084136D01*
X101858Y084237D01*
X101792Y084324D01*
X101705Y08439D01*
X101604Y084432D01*
X101496Y084446D01*
X101387Y084432D01*
X101286Y08439D01*
X101199Y084324D01*
X101133Y084237D01*
X101091Y084136D01*
X101077Y084028D01*
X101078Y084018D01*
X101078Y083987D01*
X101073Y083919D01*
X10107Y083894D01*
X101065Y083871D01*
X10106Y083852D01*
X101054Y083838D01*
X101049Y083828D01*
X101046Y083823D01*
X100826Y083603D01*
X100687D01*
X100677Y083653D01*
X100705Y083665D01*
X100792Y083731D01*
X100858Y083818D01*
X1009Y083919D01*
X100915Y084028D01*
X1009Y084136D01*
X100858Y084237D01*
X100792Y084324D01*
X100785Y084329D01*
X100762Y084352D01*
X100718Y084403D01*
X100702Y084424D01*
X100689Y084443D01*
X10068Y08446D01*
X100674Y084474D01*
X10067Y084485D01*
X100669Y08449D01*
Y096557D01*
X10067Y096563D01*
X100674Y096574D01*
X10068Y096588D01*
X10069Y096606D01*
X100703Y096626D01*
X100719Y096647D01*
X100765Y096699D01*
X100788Y096722D01*
X100795Y096728D01*
X100863Y096816D01*
X100905Y096918D01*
X100919Y097028D01*
X100905Y097137D01*
X100863Y097239D01*
X100795Y097327D01*
X100707Y097394D01*
X100605Y097437D01*
X100496Y097451D01*
X100386Y097437D01*
X100284Y097394D01*
X100196Y097327D01*
X100129Y097239D01*
X100086Y097137D01*
X100072Y097028D01*
X100086Y096918D01*
X100129Y096816D01*
X100196Y096728D01*
X100204Y096722D01*
X100226Y096699D01*
X100272Y096647D01*
X100288Y096626D01*
X100301Y096606D01*
X100311Y096588D01*
X100317Y096574D01*
X100321Y096563D01*
X100322Y096557D01*
Y08449D01*
X100321Y084485D01*
X100318Y084474D01*
X100311Y08446D01*
X100302Y084443D01*
X100289Y084424D01*
X100274Y084403D01*
X100229Y084352D01*
X100213Y084336D01*
X100186Y084341D01*
X100163Y084353D01*
Y08534D01*
X10015Y085406D01*
X100113Y085463D01*
X099643Y085932D01*
Y096554D01*
X099645Y09656D01*
X099648Y09657D01*
X099654Y096582D01*
X099663Y096597D01*
X099676Y096615D01*
X099692Y096633D01*
X099738Y096679D01*
X099766Y096703D01*
X099771Y09671D01*
X099795Y096728D01*
X099863Y096816D01*
X099905Y096918D01*
X099919Y097028D01*
X099918Y097037D01*
X099918Y097069D01*
X099923Y097139D01*
X099927Y097165D01*
X099931Y097188D01*
X099937Y097207D01*
X099942Y097222D01*
X099947Y097232D01*
X099951Y097237D01*
X1011Y098387D01*
X102931D01*
X102997Y0984D01*
X103053Y098438D01*
X105902Y101287D01*
X105917Y101309D01*
X105967Y101294D01*
Y101012D01*
X104727Y099773D01*
X10469Y099716D01*
X104677Y09965D01*
Y08733D01*
X103495Y086149D01*
X103402Y08613D01*
X103323Y086077D01*
X10327Y085998D01*
X103251Y085904D01*
X10327Y085811D01*
X103322Y085732D01*
Y08449D01*
X103321Y084485D01*
X103318Y084474D01*
X103311Y08446D01*
X103302Y084443D01*
X103289Y084424D01*
X103274Y084403D01*
X103229Y084352D01*
X103207Y084329D01*
X103199Y084324D01*
X103133Y084237D01*
X103091Y084136D01*
X103077Y084028D01*
X103091Y083919D01*
X103133Y083818D01*
X103199Y083731D01*
X103286Y083665D01*
X103387Y083623D01*
X103496Y083609D01*
X103604Y083623D01*
X103705Y083665D01*
X103792Y083731D01*
X103858Y083818D01*
X1039Y083919D01*
X103915Y084028D01*
X1039Y084136D01*
X103858Y084237D01*
X103792Y084324D01*
X103785Y084329D01*
X103762Y084352D01*
X103718Y084403D01*
X103702Y084424D01*
X103689Y084443D01*
X10368Y08446D01*
X103674Y084474D01*
X10367Y084485D01*
X103669Y08449D01*
Y085732D01*
X103722Y085811D01*
X10374Y085904D01*
X104973Y087136D01*
X10501Y087192D01*
X105023Y087259D01*
Y099578D01*
X10621Y100765D01*
X106257Y100746D01*
Y099332D01*
X10532Y098395D01*
X105319Y098395D01*
X105317Y098393D01*
X105315Y098392D01*
X105314Y098391D01*
X105313Y098391D01*
X105309Y09839D01*
X105298Y098386D01*
X105246Y098376D01*
X105167Y098323D01*
X105114Y098244D01*
X105095Y09815D01*
X105114Y098056D01*
X105167Y097977D01*
X105246Y097924D01*
X10534Y097905D01*
X105414Y09792D01*
X105439Y097874D01*
X105333Y097768D01*
X105325Y097761D01*
X105322Y097759D01*
X105319Y097757D01*
X105316Y097756D01*
X105237Y097703D01*
X105184Y097624D01*
X105165Y09753D01*
X105184Y097436D01*
X105237Y097357D01*
X105316Y097304D01*
X10541Y097285D01*
X105504Y097304D01*
X105555Y097338D01*
X1056Y097308D01*
X105597Y09729D01*
Y087655D01*
X10561Y087588D01*
X105647Y087532D01*
X108284Y084896D01*
Y08449D01*
X108283Y084485D01*
X108279Y084474D01*
X108273Y08446D01*
X108263Y084443D01*
X10825Y084424D01*
X108235Y084403D01*
X10819Y084352D01*
X108168Y084329D01*
X108161Y084324D01*
X108094Y084237D01*
X108053Y084136D01*
X108038Y084028D01*
X108053Y083919D01*
X108094Y083818D01*
X108161Y083731D01*
X108248Y083665D01*
X108349Y083623D01*
X108457Y083609D01*
X108565Y083623D01*
X108667Y083665D01*
X108753Y083731D01*
X10882Y083818D01*
X108862Y083919D01*
X108876Y084028D01*
X108862Y084136D01*
X10882Y084237D01*
X108753Y084324D01*
X108746Y084329D01*
X108724Y084352D01*
X108679Y084403D01*
X108664Y084424D01*
X108651Y084443D01*
X108641Y08446D01*
X108635Y084474D01*
X108632Y084485D01*
X10863Y08449D01*
Y084968D01*
X108617Y085034D01*
X10858Y08509D01*
X105943Y087726D01*
Y097218D01*
X107043Y098317D01*
X10708Y098374D01*
X107093Y09844D01*
X107093Y09844D01*
Y098457D01*
X107146Y098536D01*
X107165Y09863D01*
X107146Y098724D01*
X107093Y098803D01*
X107014Y098856D01*
X10692Y098875D01*
X106893Y098869D01*
X106843Y09891D01*
Y103133D01*
X106893Y103159D01*
X106946Y103124D01*
X10704Y103105D01*
X107134Y103124D01*
X107213Y103177D01*
X107382D01*
X107397Y103127D01*
X107347Y103093D01*
X107294Y103014D01*
X107275Y10292D01*
X107294Y102826D01*
X107347Y102747D01*
X107426Y102694D01*
X10752Y102675D01*
X107614Y102694D01*
X107616Y102696D01*
X111188D01*
X111206Y102694D01*
X111233Y10269D01*
X111258Y102685D01*
X11128Y102678D01*
X1113Y10267D01*
X111319Y102661D01*
X111335Y102651D01*
X111347Y102642D01*
X112031Y101958D01*
Y101224D01*
X112004Y101184D01*
X111985Y10109D01*
X112004Y100996D01*
X112057Y100917D01*
X112136Y100864D01*
X11223Y100845D01*
X112324Y100864D01*
X112403Y100917D01*
X112456Y100996D01*
X112475Y10109D01*
X112456Y101184D01*
X112429Y101224D01*
Y10204D01*
X112414Y102116D01*
X112371Y102181D01*
X111659Y102892D01*
X111657Y102895D01*
X111658Y102898D01*
X111662Y102906D01*
X11167Y10292D01*
X111679Y102932D01*
X112709Y103961D01*
X112757Y104034D01*
X112774Y10412D01*
Y105214D01*
X112776Y105216D01*
X112795Y10531D01*
X112776Y105404D01*
X112723Y105483D01*
X112644Y105536D01*
X112614Y105542D01*
X112606Y105547D01*
X11252Y105564D01*
X109366D01*
X109364Y105566D01*
X10927Y105585D01*
X109176Y105566D01*
X109097Y105513D01*
X109044Y105434D01*
X109025Y10534D01*
X109044Y105246D01*
X109097Y105167D01*
X109176Y105114D01*
X10927Y105095D01*
X109364Y105114D01*
X109366Y105116D01*
X112326D01*
Y104213D01*
X111336Y103223D01*
X111318Y103209D01*
X111295Y103193D01*
X111271Y10318D01*
X111247Y103168D01*
X111222Y103159D01*
X111196Y103152D01*
X111168Y103147D01*
X111146Y103144D01*
X111067D01*
X111043Y103188D01*
X111054Y103204D01*
X111069Y10328D01*
Y103436D01*
X111096Y103476D01*
X111115Y10357D01*
X111096Y103664D01*
X111043Y103743D01*
X110964Y103796D01*
X11087Y103815D01*
X110776Y103796D01*
X110697Y103743D01*
X110644Y103664D01*
X110625Y10357D01*
X110644Y103476D01*
X110671Y103436D01*
Y103362D01*
X110507Y103198D01*
X110495Y103189D01*
X110479Y103179D01*
X11046Y10317D01*
X11044Y103162D01*
X110418Y103155D01*
X110393Y10315D01*
X110366Y103146D01*
X110348Y103144D01*
X107781D01*
X107774Y103168D01*
X107773Y103194D01*
X107823Y103227D01*
X108022Y103427D01*
X108697D01*
X108776Y103374D01*
X10887Y103355D01*
X108964Y103374D01*
X109043Y103427D01*
X109096Y103506D01*
X109115Y1036D01*
X109096Y103694D01*
X109077Y103723D01*
X1091Y103767D01*
X11021D01*
X110217Y103757D01*
X110296Y103704D01*
X11039Y103685D01*
X110484Y103704D01*
X110563Y103757D01*
X110616Y103836D01*
X110635Y10393D01*
X110616Y104024D01*
X110563Y104103D01*
X110484Y104156D01*
X11039Y104175D01*
X110296Y104156D01*
X110244Y104121D01*
X110236Y104117D01*
X110233Y104115D01*
X110232Y104114D01*
X110231Y104114D01*
X110228Y104113D01*
X110227Y104113D01*
X108394D01*
X108375Y10416D01*
X108803Y104587D01*
X10884Y104644D01*
X108853Y10471D01*
Y104727D01*
X108906Y104806D01*
X108925Y1049D01*
X108906Y104994D01*
X108853Y105073D01*
X108774Y105126D01*
X10868Y105145D01*
X108586Y105126D01*
X108557Y105107D01*
X108513Y10513D01*
Y10568D01*
X1085Y105746D01*
X108463Y105803D01*
X108293Y105972D01*
Y106467D01*
X108346Y106546D01*
X108365Y10664D01*
X108346Y106734D01*
X108293Y106813D01*
X108214Y106866D01*
X10812Y106885D01*
D02*
G37*
G36*
X10477Y107295D02*
X104676Y107276D01*
X104597Y107223D01*
X104544Y107144D01*
X104525Y10705D01*
X104544Y106956D01*
X104597Y106877D01*
X104606Y106871D01*
Y105734D01*
X104605Y105729D01*
X104601Y105718D01*
X104595Y105704D01*
X104586Y105687D01*
X104573Y105668D01*
X104558Y105647D01*
X104513Y105596D01*
X104491Y105573D01*
X104483Y105568D01*
X104417Y105481D01*
X104375Y10538D01*
X104361Y105272D01*
X104362Y105263D01*
X104362Y105231D01*
X104357Y105163D01*
X104353Y105138D01*
X104349Y105115D01*
X104343Y105096D01*
X104338Y105082D01*
X104333Y105072D01*
X10433Y105067D01*
X103496Y104233D01*
X103054D01*
X10304Y104259D01*
X103036Y104283D01*
X103575Y104822D01*
X10358Y104825D01*
X10359Y10483D01*
X103604Y104836D01*
X103623Y104841D01*
X103646Y104845D01*
X103671Y104849D01*
X103739Y104854D01*
X10377Y104854D01*
X10378Y104853D01*
X103888Y104867D01*
X103989Y104909D01*
X104076Y104975D01*
X104142Y105062D01*
X104184Y105163D01*
X104198Y105272D01*
X104184Y10538D01*
X104142Y105481D01*
X104076Y105568D01*
X103989Y105634D01*
X103888Y105676D01*
X10378Y105691D01*
X103671Y105676D01*
X10357Y105634D01*
X103483Y105568D01*
X103417Y105481D01*
X103375Y10538D01*
X103361Y105272D01*
X103362Y105263D01*
X103362Y105231D01*
X103357Y105163D01*
X103353Y105138D01*
X103349Y105115D01*
X103343Y105096D01*
X103338Y105082D01*
X103333Y105072D01*
X10333Y105067D01*
X102836Y104573D01*
X102389D01*
X102374Y104623D01*
X10238Y104627D01*
X102575Y104822D01*
X10258Y104825D01*
X10259Y10483D01*
X102604Y104836D01*
X102623Y104841D01*
X102646Y104845D01*
X102671Y104849D01*
X102739Y104854D01*
X10277Y104854D01*
X10278Y104853D01*
X102888Y104867D01*
X102989Y104909D01*
X103076Y104975D01*
X103142Y105062D01*
X103184Y105163D01*
X103198Y105272D01*
X103184Y10538D01*
X103142Y105481D01*
X103076Y105568D01*
X102989Y105634D01*
X102888Y105676D01*
X10278Y105691D01*
X102671Y105676D01*
X10257Y105634D01*
X102483Y105568D01*
X102417Y105481D01*
X102375Y10538D01*
X102361Y105272D01*
X102362Y105263D01*
X102362Y105231D01*
X102357Y105163D01*
X102353Y105138D01*
X102349Y105115D01*
X102343Y105096D01*
X102338Y105082D01*
X102333Y105072D01*
X10233Y105067D01*
X102186Y104923D01*
X102086D01*
X102069Y104971D01*
X102076Y104975D01*
X102142Y105062D01*
X102184Y105163D01*
X102198Y105272D01*
X102184Y10538D01*
X102142Y105481D01*
X102076Y105568D01*
X101989Y105634D01*
X101888Y105676D01*
X10178Y105691D01*
X101671Y105676D01*
X10157Y105634D01*
X101483Y105568D01*
X101478Y105561D01*
X101455Y105538D01*
X101404Y105494D01*
X101383Y105478D01*
X101364Y105465D01*
X101347Y105456D01*
X101333Y10545D01*
X101323Y105446D01*
X101317Y105445D01*
X098062D01*
X098061Y105445D01*
X098057Y105446D01*
X098054Y105447D01*
X098052Y105447D01*
X098051Y105448D01*
X09805Y105448D01*
X09805Y105448D01*
X098046Y105451D01*
X098035Y105455D01*
X098004Y105476D01*
X09791Y105495D01*
X097816Y105476D01*
X097737Y105423D01*
X097684Y105344D01*
X097665Y10525D01*
X097684Y105156D01*
X097737Y105077D01*
X097816Y105024D01*
X09791Y105005D01*
X098004Y105024D01*
X098083Y105077D01*
X098097Y105098D01*
X101317D01*
X101323Y105097D01*
X101333Y105094D01*
X101347Y105087D01*
X101364Y105078D01*
X101383Y105065D01*
X101404Y10505D01*
X101455Y105005D01*
X101478Y104983D01*
X101483Y104975D01*
X10149Y104971D01*
X101474Y104923D01*
X096673D01*
X096594Y104976D01*
X0965Y104995D01*
X096406Y104976D01*
X096327Y104923D01*
X096274Y104844D01*
X096255Y10475D01*
X096274Y104656D01*
X096327Y104577D01*
X096406Y104524D01*
X0965Y104505D01*
X096594Y104524D01*
X096673Y104577D01*
X098099D01*
X098126Y104527D01*
X098104Y104494D01*
X098085Y1044D01*
X098104Y104306D01*
X098123Y104277D01*
X0981Y104233D01*
X097193D01*
X097114Y104286D01*
X09702Y104305D01*
X096926Y104286D01*
X096847Y104233D01*
X096794Y104154D01*
X096775Y10406D01*
X096794Y103966D01*
X096847Y103887D01*
X096926Y103834D01*
X09702Y103815D01*
X097114Y103834D01*
X097193Y103887D01*
X103568D01*
X103634Y1039D01*
X10369Y103937D01*
X104575Y104822D01*
X10458Y104825D01*
X10459Y10483D01*
X104604Y104836D01*
X104623Y104841D01*
X104646Y104845D01*
X104671Y104849D01*
X104739Y104854D01*
X10477Y104854D01*
X10478Y104853D01*
X104886Y104867D01*
X104891Y104862D01*
X104919Y104826D01*
X104904Y104804D01*
X104885Y104711D01*
X103898Y103723D01*
X095762D01*
X095625Y103861D01*
X095606Y103954D01*
X095553Y104033D01*
X095474Y104086D01*
X09538Y104105D01*
X095286Y104086D01*
X095207Y104033D01*
X095154Y103954D01*
X095135Y10386D01*
X095154Y103766D01*
X095207Y103687D01*
X095286Y103634D01*
X095379Y103615D01*
X095567Y103427D01*
X095624Y10339D01*
X09569Y103377D01*
X10397D01*
X104036Y10339D01*
X104093Y103427D01*
X105131Y104465D01*
X105224Y104484D01*
X105303Y104537D01*
X105356Y104616D01*
X105375Y10471D01*
X105356Y104804D01*
X105303Y104883D01*
X105224Y104936D01*
X10513Y104955D01*
X105121Y104953D01*
X105093Y104998D01*
X105142Y105062D01*
X105184Y105163D01*
X105198Y105272D01*
X105184Y10538D01*
X105142Y105481D01*
X105076Y105568D01*
X105068Y105573D01*
X105046Y105596D01*
X105002Y105647D01*
X104986Y105668D01*
X104973Y105687D01*
X104964Y105704D01*
X104958Y105718D01*
X104954Y105729D01*
X104953Y105734D01*
Y106887D01*
X104953Y106888D01*
X104953Y10689D01*
X104954Y106892D01*
X104954Y106892D01*
X104956Y106895D01*
X10496Y106903D01*
X104996Y106956D01*
X105015Y10705D01*
X104996Y107144D01*
X104943Y107223D01*
X104864Y107276D01*
X10477Y107295D01*
D02*
G37*
G36*
X09838Y112822D02*
X09754Y112822D01*
X097493Y112813D01*
X097453Y112787D01*
X097193Y112527D01*
X097167Y112487D01*
X097158Y11244D01*
X097158Y11082D01*
X097158Y110816D01*
X096921Y110579D01*
X096873Y110506D01*
X096856Y11042D01*
Y107303D01*
X094681Y105129D01*
X094633Y105056D01*
X094616Y10497D01*
Y10353D01*
Y10261D01*
X094633Y102524D01*
X094681Y102451D01*
X095406Y101727D01*
Y10074D01*
X095406Y08526D01*
Y08262D01*
X095423Y082534D01*
X095471Y082461D01*
X095587Y082345D01*
X095518Y082277D01*
X095492Y082237D01*
X095483Y08219D01*
Y08204D01*
X095492Y081993D01*
X095518Y081953D01*
X095628Y081843D01*
X095668Y081817D01*
X095715Y081808D01*
X096755D01*
X096802Y081817D01*
X096842Y081843D01*
X096932Y081933D01*
X096958Y081973D01*
X096967Y08202D01*
Y08218D01*
X096958Y082227D01*
X096932Y082267D01*
X096812Y082387D01*
X096772Y082413D01*
X096725Y082422D01*
X096145D01*
X095854Y082713D01*
Y08526D01*
X095854Y10074D01*
Y10182D01*
X095837Y101906D01*
X095789Y101979D01*
X095064Y102703D01*
Y102923D01*
X095111Y102942D01*
X095461Y102591D01*
X095534Y102543D01*
X09562Y102526D01*
X098794D01*
X098796Y102524D01*
X09889Y102505D01*
X098984Y102524D01*
X098986Y102526D01*
X101817D01*
X102303Y102039D01*
X102304Y102036D01*
X102357Y101957D01*
X102436Y101904D01*
X10253Y101885D01*
X102624Y101904D01*
X102703Y101957D01*
X102756Y102036D01*
X102775Y10213D01*
X102756Y102224D01*
X102703Y102303D01*
X102624Y102356D01*
X102621Y102357D01*
X102069Y102909D01*
X101996Y102957D01*
X10191Y102974D01*
X098986D01*
X098984Y102976D01*
X09889Y102995D01*
X098796Y102976D01*
X098794Y102974D01*
X095713D01*
X095143Y103544D01*
X095129Y103562D01*
X095113Y103585D01*
X0951Y103609D01*
X095088Y103633D01*
X095079Y103658D01*
X095072Y103684D01*
X095067Y103712D01*
X095064Y103734D01*
Y104877D01*
X097239Y107051D01*
X097287Y107124D01*
X097304Y10721D01*
Y110327D01*
X097505Y110528D01*
X09847Y110528D01*
X098517Y110537D01*
X098557Y110563D01*
X098747Y110753D01*
X098773Y110793D01*
X098782Y11084D01*
X098782Y11242D01*
X098773Y112467D01*
X098747Y112507D01*
X098467Y112787D01*
X098427Y112813D01*
X09838Y112822D01*
D02*
G37*
G36*
X112457Y097451D02*
X112347Y097437D01*
X112245Y097394D01*
X112158Y097327D01*
X11209Y097239D01*
X112048Y097137D01*
X112033Y097028D01*
X112048Y096918D01*
X11209Y096816D01*
X112158Y096728D01*
X112245Y096661D01*
X112347Y096618D01*
X112457Y096604D01*
X112567Y096618D01*
X112669Y096661D01*
X112757Y096728D01*
X112824Y096816D01*
X112866Y096918D01*
X112881Y097028D01*
X112866Y097137D01*
X112824Y097239D01*
X112757Y097327D01*
X112669Y097394D01*
X112567Y097437D01*
X112457Y097451D01*
D02*
G37*
G36*
X111457D02*
X111347Y097437D01*
X111245Y097394D01*
X111158Y097327D01*
X11109Y097239D01*
X111048Y097137D01*
X111033Y097028D01*
X111048Y096918D01*
X11109Y096816D01*
X111158Y096728D01*
X111245Y096661D01*
X111347Y096618D01*
X111457Y096604D01*
X111567Y096618D01*
X111669Y096661D01*
X111757Y096728D01*
X111824Y096816D01*
X111866Y096918D01*
X111881Y097028D01*
X111866Y097137D01*
X111824Y097239D01*
X111757Y097327D01*
X111669Y097394D01*
X111567Y097437D01*
X111457Y097451D01*
D02*
G37*
G36*
X110457D02*
X110347Y097437D01*
X110245Y097394D01*
X110158Y097327D01*
X11009Y097239D01*
X110048Y097137D01*
X110033Y097028D01*
X110048Y096918D01*
X11009Y096816D01*
X110158Y096728D01*
X110245Y096661D01*
X110347Y096618D01*
X110457Y096604D01*
X110567Y096618D01*
X110669Y096661D01*
X110757Y096728D01*
X110824Y096816D01*
X110866Y096918D01*
X110881Y097028D01*
X110866Y097137D01*
X110824Y097239D01*
X110757Y097327D01*
X110669Y097394D01*
X110567Y097437D01*
X110457Y097451D01*
D02*
G37*
G36*
X108457Y097526D02*
X108391Y097513D01*
X108335Y097475D01*
X108297Y097419D01*
X108296Y097416D01*
X108245Y097394D01*
X108158Y097327D01*
X10809Y097239D01*
X108048Y097137D01*
X108033Y097028D01*
X108048Y096918D01*
X10809Y096816D01*
X108158Y096728D01*
X108245Y096661D01*
X108347Y096618D01*
X108457Y096604D01*
X108567Y096618D01*
X108669Y096661D01*
X108757Y096728D01*
X108824Y096816D01*
X108866Y096918D01*
X108881Y097028D01*
X108866Y097137D01*
X108824Y097239D01*
X108757Y097327D01*
X108669Y097394D01*
X108618Y097416D01*
X108617Y097419D01*
X10858Y097475D01*
X108523Y097513D01*
X108457Y097526D01*
D02*
G37*
G36*
X107457Y097451D02*
X107347Y097437D01*
X107245Y097394D01*
X107158Y097327D01*
X10709Y097239D01*
X107048Y097137D01*
X107033Y097028D01*
X107048Y096918D01*
X10709Y096816D01*
X107158Y096728D01*
X107245Y096661D01*
X107347Y096618D01*
X107457Y096604D01*
X107567Y096618D01*
X107669Y096661D01*
X107757Y096728D01*
X107824Y096816D01*
X107866Y096918D01*
X107881Y097028D01*
X107866Y097137D01*
X107824Y097239D01*
X107757Y097327D01*
X107669Y097394D01*
X107567Y097437D01*
X107457Y097451D01*
D02*
G37*
G36*
X101496D02*
X101386Y097437D01*
X101284Y097394D01*
X101196Y097327D01*
X101129Y097239D01*
X101086Y097137D01*
X101072Y097028D01*
X101086Y096918D01*
X101129Y096816D01*
X101196Y096728D01*
X101284Y096661D01*
X101386Y096618D01*
X101496Y096604D01*
X101605Y096618D01*
X101707Y096661D01*
X101795Y096728D01*
X101863Y096816D01*
X101905Y096918D01*
X101919Y097028D01*
X101905Y097137D01*
X101863Y097239D01*
X101795Y097327D01*
X101707Y097394D01*
X101605Y097437D01*
X101496Y097451D01*
D02*
G37*
G36*
X106457D02*
X106347Y097437D01*
X106245Y097394D01*
X106158Y097327D01*
X10609Y097239D01*
X106048Y097137D01*
X106033Y097028D01*
X106048Y096918D01*
X10609Y096816D01*
X106158Y096728D01*
X106165Y096722D01*
X106188Y096699D01*
X106234Y096647D01*
X106249Y096626D01*
X106263Y096606D01*
X106272Y096588D01*
X106279Y096574D01*
X106283Y096563D01*
X106284Y096557D01*
Y09591D01*
X106231Y095831D01*
X106212Y095737D01*
X106231Y095643D01*
X106284Y095564D01*
X106363Y095511D01*
X106457Y095492D01*
X106551Y095511D01*
X10663Y095564D01*
X106683Y095643D01*
X106702Y095737D01*
X106683Y095831D01*
X10663Y09591D01*
Y096557D01*
X106632Y096563D01*
X106635Y096574D01*
X106642Y096588D01*
X106652Y096606D01*
X106665Y096626D01*
X106681Y096647D01*
X106726Y096699D01*
X106749Y096722D01*
X106757Y096728D01*
X106824Y096816D01*
X106866Y096918D01*
X106881Y097028D01*
X106866Y097137D01*
X106824Y097239D01*
X106757Y097327D01*
X106669Y097394D01*
X106567Y097437D01*
X106457Y097451D01*
D02*
G37*
G36*
X09486Y113132D02*
X09452D01*
X094473Y113123D01*
X094433Y113097D01*
X094273Y112937D01*
X094247Y112897D01*
X094238Y11285D01*
Y11206D01*
X094247Y112013D01*
X094273Y111973D01*
X09443Y111817D01*
Y111023D01*
X093733Y110327D01*
X093679Y110246D01*
X09366Y11015D01*
Y096716D01*
X093656Y096692D01*
X093648Y096663D01*
X093637Y096631D01*
X093622Y096599D01*
X093602Y096565D01*
X093578Y09653D01*
X09355Y096493D01*
X093517Y096455D01*
X09348Y096417D01*
X093475Y096413D01*
X093399Y09632D01*
X093342Y096214D01*
X093307Y096098D01*
X093295Y095978D01*
X093307Y095858D01*
X093342Y095743D01*
X093399Y095636D01*
X093475Y095543D01*
X093568Y095467D01*
X093675Y09541D01*
X09379Y095375D01*
X09391Y095363D01*
X09403Y095375D01*
X094145Y09541D01*
X094252Y095467D01*
X094345Y095543D01*
X094421Y095636D01*
X094478Y095743D01*
X094513Y095858D01*
X094525Y095978D01*
X094513Y096098D01*
X094478Y096214D01*
X094421Y09632D01*
X094345Y096413D01*
X09434Y096417D01*
X094303Y096455D01*
X09427Y096493D01*
X094242Y09653D01*
X094218Y096565D01*
X094198Y096599D01*
X094183Y096631D01*
X094172Y096663D01*
X094164Y096692D01*
X09416Y096716D01*
Y110047D01*
X094857Y110743D01*
X094911Y110824D01*
X09493Y11092D01*
Y111797D01*
X095087Y111953D01*
X095113Y111993D01*
X095122Y11204D01*
Y11287D01*
X095113Y112917D01*
X095087Y112957D01*
X094947Y113097D01*
X094907Y113123D01*
X09486Y113132D01*
D02*
G37*
G36*
X102496Y097451D02*
X102386Y097437D01*
X102284Y097394D01*
X102196Y097327D01*
X102129Y097239D01*
X102086Y097137D01*
X102072Y097028D01*
X102086Y096918D01*
X102129Y096816D01*
X10216Y096775D01*
X102165Y096764D01*
X102192Y09673D01*
X102215Y0967D01*
X102252Y096643D01*
X102265Y09662D01*
X102275Y0966D01*
X102282Y096583D01*
X102285Y096571D01*
X102287Y096565D01*
Y095503D01*
X102234Y095424D01*
X102215Y09533D01*
X102234Y095236D01*
X102287Y095157D01*
X102366Y095104D01*
X10246Y095085D01*
X102554Y095104D01*
X102633Y095157D01*
X102686Y095236D01*
X102705Y09533D01*
X102686Y095424D01*
X102633Y095503D01*
Y096554D01*
X102635Y096559D01*
X102638Y096568D01*
X102644Y09658D01*
X102653Y096595D01*
X102665Y096611D01*
X10268Y096628D01*
X102727Y096672D01*
X102755Y096695D01*
X102762Y096703D01*
X102795Y096728D01*
X102863Y096816D01*
X102905Y096918D01*
X102919Y097028D01*
X102905Y097137D01*
X102863Y097239D01*
X102795Y097327D01*
X102707Y097394D01*
X102605Y097437D01*
X102496Y097451D01*
D02*
G37*
G36*
X103496D02*
X103386Y097437D01*
X103284Y097394D01*
X103196Y097327D01*
X103129Y097239D01*
X103086Y097137D01*
X103072Y097028D01*
X103086Y096918D01*
X103129Y096816D01*
X103152Y096786D01*
X103156Y096777D01*
X103206Y096706D01*
X103225Y096678D01*
X103255Y096624D01*
X103265Y096604D01*
X103272Y096587D01*
X103276Y096574D01*
X103277Y096568D01*
Y095073D01*
X103224Y094994D01*
X103205Y0949D01*
X103224Y094806D01*
X103277Y094727D01*
X103356Y094674D01*
X10345Y094655D01*
X103544Y094674D01*
X103623Y094727D01*
X103676Y094806D01*
X103695Y0949D01*
X103676Y094994D01*
X103623Y095073D01*
Y096554D01*
X103624Y096559D01*
X103628Y096568D01*
X103633Y096579D01*
X103642Y096592D01*
X103654Y096608D01*
X103669Y096623D01*
X103716Y096665D01*
X103744Y096686D01*
X103752Y096695D01*
X103795Y096728D01*
X103863Y096816D01*
X103905Y096918D01*
X103919Y097028D01*
X103905Y097137D01*
X103863Y097239D01*
X103795Y097327D01*
X103707Y097394D01*
X103605Y097437D01*
X103496Y097451D01*
D02*
G37*
G36*
X097496D02*
X097386Y097437D01*
X097284Y097394D01*
X097196Y097327D01*
X097129Y097239D01*
X097086Y097137D01*
X097072Y097028D01*
X097086Y096918D01*
X097129Y096816D01*
X097196Y096728D01*
X097204Y096722D01*
X097226Y096699D01*
X097272Y096647D01*
X097288Y096626D01*
X097301Y096606D01*
X097311Y096588D01*
X097317Y096574D01*
X097321Y096563D01*
X097322Y096557D01*
Y095817D01*
X096757Y095253D01*
X09672Y095196D01*
X096707Y09513D01*
Y093563D01*
X096654Y093484D01*
X096635Y09339D01*
X096654Y093296D01*
X096707Y093217D01*
X096786Y093164D01*
X09688Y093145D01*
X096974Y093164D01*
X097053Y093217D01*
X097106Y093296D01*
X097125Y09339D01*
X097106Y093484D01*
X097053Y093563D01*
Y095058D01*
X097618Y095623D01*
X097656Y095679D01*
X097669Y095746D01*
Y096557D01*
X09767Y096563D01*
X097674Y096574D01*
X09768Y096588D01*
X09769Y096606D01*
X097703Y096626D01*
X097719Y096647D01*
X097765Y096699D01*
X097788Y096722D01*
X097795Y096728D01*
X097863Y096816D01*
X097905Y096918D01*
X097919Y097028D01*
X097905Y097137D01*
X097863Y097239D01*
X097795Y097327D01*
X097707Y097394D01*
X097605Y097437D01*
X097496Y097451D01*
D02*
G37*
G36*
X09391Y088717D02*
X09379Y088705D01*
X093675Y08867D01*
X093568Y088613D01*
X093475Y088537D01*
X093399Y088444D01*
X093342Y088337D01*
X093307Y088222D01*
X093295Y088102D01*
X093307Y087982D01*
X093342Y087866D01*
X093399Y08776D01*
X093475Y087667D01*
X093568Y08759D01*
X093675Y087534D01*
X09379Y087499D01*
X09391Y087487D01*
X09403Y087499D01*
X094145Y087534D01*
X094252Y08759D01*
X094345Y087667D01*
X094421Y08776D01*
X094478Y087866D01*
X094513Y087982D01*
X094525Y088102D01*
X094513Y088222D01*
X094478Y088337D01*
X094421Y088444D01*
X094345Y088537D01*
X094252Y088613D01*
X094145Y08867D01*
X09403Y088705D01*
X09391Y088717D01*
D02*
G37*
G36*
X11295Y085395D02*
X112856Y085376D01*
X112777Y085323D01*
X11202D01*
X111954Y08531D01*
X111897Y085273D01*
X111335Y08471D01*
X111297Y084653D01*
X111284Y084587D01*
Y08449D01*
X111283Y084485D01*
X111279Y084474D01*
X111273Y08446D01*
X111263Y084443D01*
X11125Y084424D01*
X111235Y084403D01*
X11119Y084352D01*
X111168Y084329D01*
X111161Y084324D01*
X111094Y084237D01*
X111053Y084136D01*
X111038Y084028D01*
X111053Y083919D01*
X111094Y083818D01*
X111161Y083731D01*
X111248Y083665D01*
X111349Y083623D01*
X111457Y083609D01*
X111565Y083623D01*
X111667Y083665D01*
X111753Y083731D01*
X11182Y083818D01*
X111862Y083919D01*
X111876Y084028D01*
X111862Y084136D01*
X11182Y084237D01*
X111753Y084324D01*
X111746Y084329D01*
X111724Y084352D01*
X111679Y084403D01*
X111664Y084424D01*
X111651Y084443D01*
X111641Y08446D01*
X111635Y084474D01*
X111632Y084485D01*
X11163Y08449D01*
Y084515D01*
X112092Y084977D01*
X112777D01*
X112856Y084924D01*
X11295Y084905D01*
X113044Y084924D01*
X113123Y084977D01*
X113176Y085056D01*
X113195Y08515D01*
X113176Y085244D01*
X113123Y085323D01*
X113044Y085376D01*
X11295Y085395D01*
D02*
G37*
G36*
X112457Y084446D02*
X112349Y084432D01*
X112248Y08439D01*
X112161Y084324D01*
X112094Y084237D01*
X112052Y084136D01*
X112038Y084028D01*
X112052Y083919D01*
X112094Y083818D01*
X112161Y083731D01*
X112248Y083665D01*
X112349Y083623D01*
X112457Y083609D01*
X112565Y083623D01*
X112667Y083665D01*
X112753Y083731D01*
X11282Y083818D01*
X112862Y083919D01*
X112876Y084028D01*
X112862Y084136D01*
X11282Y084237D01*
X112753Y084324D01*
X112667Y08439D01*
X112565Y084432D01*
X112457Y084446D01*
D02*
G37*
G36*
X110457D02*
X110349Y084432D01*
X110248Y08439D01*
X110161Y084324D01*
X110094Y084237D01*
X110052Y084136D01*
X110038Y084028D01*
X110052Y083919D01*
X110094Y083818D01*
X110161Y083731D01*
X110248Y083665D01*
X110349Y083623D01*
X110457Y083609D01*
X110565Y083623D01*
X110667Y083665D01*
X110753Y083731D01*
X11082Y083818D01*
X110862Y083919D01*
X110876Y084028D01*
X110862Y084136D01*
X11082Y084237D01*
X110753Y084324D01*
X110667Y08439D01*
X110565Y084432D01*
X110457Y084446D01*
D02*
G37*
G36*
X109457Y097451D02*
X109347Y097437D01*
X109245Y097394D01*
X109158Y097327D01*
X10909Y097239D01*
X109048Y097137D01*
X109033Y097028D01*
X109048Y096918D01*
X10909Y096816D01*
X109158Y096728D01*
X109165Y096722D01*
X109188Y096699D01*
X109234Y096647D01*
X109249Y096626D01*
X109263Y096606D01*
X109272Y096588D01*
X109279Y096574D01*
X109283Y096563D01*
X109284Y096557D01*
Y08449D01*
X109283Y084485D01*
X109279Y084474D01*
X109273Y08446D01*
X109263Y084443D01*
X10925Y084424D01*
X109235Y084403D01*
X10919Y084352D01*
X109168Y084329D01*
X109161Y084324D01*
X109094Y084237D01*
X109052Y084136D01*
X109038Y084028D01*
X109052Y083919D01*
X109094Y083818D01*
X109161Y083731D01*
X109248Y083665D01*
X109349Y083623D01*
X109457Y083609D01*
X109565Y083623D01*
X109667Y083665D01*
X109753Y083731D01*
X10982Y083818D01*
X109862Y083919D01*
X109876Y084028D01*
X109862Y084136D01*
X10982Y084237D01*
X109753Y084324D01*
X109746Y084329D01*
X109724Y084352D01*
X109679Y084403D01*
X109664Y084424D01*
X109651Y084443D01*
X109641Y08446D01*
X109635Y084474D01*
X109632Y084485D01*
X10963Y08449D01*
Y096557D01*
X109632Y096563D01*
X109635Y096574D01*
X109642Y096588D01*
X109652Y096606D01*
X109665Y096626D01*
X109681Y096647D01*
X109726Y096699D01*
X109749Y096722D01*
X109757Y096728D01*
X109824Y096816D01*
X109866Y096918D01*
X109881Y097028D01*
X109866Y097137D01*
X109824Y097239D01*
X109757Y097327D01*
X109669Y097394D01*
X109567Y097437D01*
X109457Y097451D01*
D02*
G37*
G36*
X107457Y084446D02*
X107349Y084432D01*
X107248Y08439D01*
X107161Y084324D01*
X107094Y084237D01*
X107052Y084136D01*
X107038Y084028D01*
X107052Y083919D01*
X107094Y083818D01*
X107161Y083731D01*
X107248Y083665D01*
X107349Y083623D01*
X107457Y083609D01*
X107565Y083623D01*
X107667Y083665D01*
X107753Y083731D01*
X10782Y083818D01*
X107862Y083919D01*
X107876Y084028D01*
X107862Y084136D01*
X10782Y084237D01*
X107753Y084324D01*
X107667Y08439D01*
X107565Y084432D01*
X107457Y084446D01*
D02*
G37*
G36*
X106457D02*
X106349Y084432D01*
X106248Y08439D01*
X106161Y084324D01*
X106094Y084237D01*
X106053Y084136D01*
X106038Y084028D01*
X106053Y083919D01*
X106094Y083818D01*
X106161Y083731D01*
X106248Y083665D01*
X106349Y083623D01*
X106457Y083609D01*
X106565Y083623D01*
X106667Y083665D01*
X106753Y083731D01*
X10682Y083818D01*
X106862Y083919D01*
X106876Y084028D01*
X106862Y084136D01*
X10682Y084237D01*
X106753Y084324D01*
X106667Y08439D01*
X106565Y084432D01*
X106457Y084446D01*
D02*
G37*
G36*
X10426Y098475D02*
X104166Y098456D01*
X104087Y098403D01*
X104034Y098324D01*
X104015Y09823D01*
X104034Y098136D01*
X104087Y098057D01*
Y094122D01*
X102373Y092408D01*
X102336Y092352D01*
X102322Y092286D01*
Y08449D01*
X102321Y084485D01*
X102318Y084474D01*
X102311Y08446D01*
X102302Y084443D01*
X102289Y084424D01*
X102274Y084403D01*
X102229Y084352D01*
X102207Y084329D01*
X102199Y084324D01*
X102133Y084237D01*
X102091Y084136D01*
X102077Y084028D01*
X102091Y083919D01*
X102133Y083818D01*
X102199Y083731D01*
X102286Y083665D01*
X102387Y083623D01*
X102496Y083609D01*
X102604Y083623D01*
X102705Y083665D01*
X102792Y083731D01*
X102858Y083818D01*
X1029Y083919D01*
X102915Y084028D01*
X1029Y084136D01*
X102858Y084237D01*
X102792Y084324D01*
X102785Y084329D01*
X102762Y084352D01*
X102718Y084403D01*
X102702Y084424D01*
X10269Y084443D01*
X10268Y08446D01*
X102674Y084474D01*
X10267Y084485D01*
X102669Y08449D01*
Y092214D01*
X104383Y093927D01*
X10442Y093984D01*
X104433Y09405D01*
Y098057D01*
X104486Y098136D01*
X104505Y09823D01*
X104486Y098324D01*
X104433Y098403D01*
X104354Y098456D01*
X10426Y098475D01*
D02*
G37*
G36*
X098496Y084446D02*
X098387Y084432D01*
X098286Y08439D01*
X098199Y084324D01*
X098133Y084237D01*
X098091Y084136D01*
X098077Y084028D01*
X098091Y083919D01*
X098133Y083818D01*
X098199Y083731D01*
X098286Y083665D01*
X098387Y083623D01*
X098496Y083609D01*
X098604Y083623D01*
X098705Y083665D01*
X098792Y083731D01*
X098858Y083818D01*
X0989Y083919D01*
X098915Y084028D01*
X0989Y084136D01*
X098858Y084237D01*
X098792Y084324D01*
X098705Y08439D01*
X098604Y084432D01*
X098496Y084446D01*
D02*
G37*
G36*
X097496D02*
X097387Y084432D01*
X097286Y08439D01*
X097199Y084324D01*
X097133Y084237D01*
X097091Y084136D01*
X097077Y084028D01*
X097091Y083919D01*
X097133Y083818D01*
X097199Y083731D01*
X097286Y083665D01*
X097387Y083623D01*
X097496Y083609D01*
X097604Y083623D01*
X097705Y083665D01*
X097792Y083731D01*
X097858Y083818D01*
X0979Y083919D01*
X097915Y084028D01*
X0979Y084136D01*
X097858Y084237D01*
X097792Y084324D01*
X097705Y08439D01*
X097604Y084432D01*
X097496Y084446D01*
D02*
G37*
G36*
X11797Y079175D02*
X117876Y079156D01*
X117797Y079103D01*
X117744Y079024D01*
X11773Y078951D01*
X117728Y078947D01*
X117728Y078944D01*
X117727Y078943D01*
X117726Y078941D01*
X117726Y078941D01*
X114629Y075845D01*
X114536Y075826D01*
X114457Y075773D01*
X114404Y075694D01*
X114385Y0756D01*
X114404Y075506D01*
X114457Y075427D01*
X114536Y075374D01*
X11463Y075355D01*
X114724Y075374D01*
X114803Y075427D01*
X114856Y075506D01*
X114875Y075599D01*
X117962Y078687D01*
X11797Y078685D01*
X118064Y078704D01*
X118143Y078757D01*
X118196Y078836D01*
X118215Y07893D01*
X118196Y079024D01*
X118143Y079103D01*
X118064Y079156D01*
X11797Y079175D01*
D02*
G37*
G36*
X09338Y077076D02*
Y07657D01*
X093744D01*
Y07666D01*
X093729Y07677D01*
X093687Y076872D01*
X09362Y07696D01*
X093532Y077027D01*
X09343Y077069D01*
X09338Y077076D01*
D02*
G37*
G36*
X09326D02*
X09321Y077069D01*
X093108Y077027D01*
X09302Y07696D01*
X092953Y076872D01*
X092911Y07677D01*
X092896Y07666D01*
Y07657D01*
X09326D01*
Y077076D01*
D02*
G37*
G36*
X105976Y077345D02*
X105842Y077327D01*
X105717Y077275D01*
X10561Y077193D01*
X105528Y077086D01*
X105476Y076961D01*
X105458Y076827D01*
X105476Y076693D01*
X105528Y076568D01*
X10561Y07646D01*
X105717Y076378D01*
X105842Y076326D01*
X105976Y076309D01*
X10611Y076326D01*
X106235Y076378D01*
X106343Y07646D01*
X106425Y076568D01*
X106477Y076693D01*
X106495Y076827D01*
X106477Y076961D01*
X106425Y077086D01*
X106343Y077193D01*
X106235Y077275D01*
X10611Y077327D01*
X105976Y077345D01*
D02*
G37*
G36*
X103976D02*
X103842Y077327D01*
X103717Y077275D01*
X10361Y077193D01*
X103528Y077086D01*
X103476Y076961D01*
X103458Y076827D01*
X103476Y076693D01*
X103528Y076568D01*
X10361Y07646D01*
X103717Y076378D01*
X103842Y076326D01*
X103976Y076309D01*
X10411Y076326D01*
X104235Y076378D01*
X104343Y07646D01*
X104425Y076568D01*
X104477Y076693D01*
X104495Y076827D01*
X104477Y076961D01*
X104425Y077086D01*
X104343Y077193D01*
X104235Y077275D01*
X10411Y077327D01*
X103976Y077345D01*
D02*
G37*
G36*
X093744Y07645D02*
X09338D01*
Y075944D01*
X09343Y075951D01*
X093532Y075993D01*
X09362Y07606D01*
X093687Y076148D01*
X093729Y07625D01*
X093744Y07636D01*
Y07645D01*
D02*
G37*
G36*
X09326D02*
X092896D01*
Y07636D01*
X092911Y07625D01*
X092953Y076148D01*
X09302Y07606D01*
X093108Y075993D01*
X09321Y075951D01*
X09326Y075944D01*
Y07645D01*
D02*
G37*
G36*
X09632Y077084D02*
X09621Y077069D01*
X096108Y077027D01*
X09602Y07696D01*
X095953Y076872D01*
X095911Y07677D01*
X095896Y07666D01*
Y07636D01*
X095911Y07625D01*
X095953Y076148D01*
X09602Y07606D01*
X096108Y075993D01*
X09621Y075951D01*
X09632Y075936D01*
X09643Y075951D01*
X096532Y075993D01*
X09662Y07606D01*
X096687Y076148D01*
X096729Y07625D01*
X096744Y07636D01*
Y07666D01*
X096729Y07677D01*
X096687Y076872D01*
X09662Y07696D01*
X096532Y077027D01*
X09643Y077069D01*
X09632Y077084D01*
D02*
G37*
G36*
X09532D02*
X09521Y077069D01*
X095108Y077027D01*
X09502Y07696D01*
X094953Y076872D01*
X094911Y07677D01*
X094896Y07666D01*
Y07636D01*
X094911Y07625D01*
X094953Y076148D01*
X09502Y07606D01*
X095108Y075993D01*
X09521Y075951D01*
X09532Y075936D01*
X09543Y075951D01*
X095532Y075993D01*
X09562Y07606D01*
X095687Y076148D01*
X095729Y07625D01*
X095744Y07636D01*
Y07666D01*
X095729Y07677D01*
X095687Y076872D01*
X09562Y07696D01*
X095532Y077027D01*
X09543Y077069D01*
X09532Y077084D01*
D02*
G37*
G36*
X09432D02*
X09421Y077069D01*
X094108Y077027D01*
X09402Y07696D01*
X093953Y076872D01*
X093911Y07677D01*
X093896Y07666D01*
Y07636D01*
X093911Y07625D01*
X093953Y076148D01*
X09402Y07606D01*
X094108Y075993D01*
X09421Y075951D01*
X09432Y075936D01*
X09443Y075951D01*
X094532Y075993D01*
X09462Y07606D01*
X094687Y076148D01*
X094729Y07625D01*
X094744Y07636D01*
Y07666D01*
X094729Y07677D01*
X094687Y076872D01*
X09462Y07696D01*
X094532Y077027D01*
X09443Y077069D01*
X09432Y077084D01*
D02*
G37*
G36*
X11612Y073773D02*
X115996Y073757D01*
X115881Y073709D01*
X115782Y073633D01*
X115706Y073534D01*
X115658Y073419D01*
X115642Y073295D01*
X115658Y073171D01*
X115706Y073056D01*
X115782Y072957D01*
X115881Y072881D01*
X115996Y072833D01*
X11612Y072817D01*
X116244Y072833D01*
X116359Y072881D01*
X116458Y072957D01*
X116534Y073056D01*
X116582Y073171D01*
X116598Y073295D01*
X116582Y073419D01*
X116534Y073534D01*
X116458Y073633D01*
X116359Y073709D01*
X116244Y073757D01*
X11612Y073773D01*
D02*
G37*
G36*
X11356D02*
X113436Y073757D01*
X113321Y073709D01*
X113222Y073633D01*
X113146Y073534D01*
X113098Y073419D01*
X113082Y073295D01*
X113098Y073171D01*
X113146Y073056D01*
X113222Y072957D01*
X113321Y072881D01*
X113436Y072833D01*
X11356Y072817D01*
X113684Y072833D01*
X113799Y072881D01*
X113898Y072957D01*
X113974Y073056D01*
X114022Y073171D01*
X114038Y073295D01*
X114022Y073419D01*
X113974Y073534D01*
X113898Y073633D01*
X113799Y073709D01*
X113684Y073757D01*
X11356Y073773D01*
D02*
G37*
G36*
X11612Y072013D02*
X115996Y071997D01*
X115881Y071949D01*
X115782Y071873D01*
X115706Y071774D01*
X115658Y071659D01*
X115642Y071535D01*
X115658Y071411D01*
X115706Y071296D01*
X115782Y071197D01*
X115881Y071121D01*
X115996Y071073D01*
X11612Y071057D01*
X116244Y071073D01*
X116359Y071121D01*
X116458Y071197D01*
X116534Y071296D01*
X116582Y071411D01*
X116598Y071535D01*
X116582Y071659D01*
X116534Y071774D01*
X116458Y071873D01*
X116359Y071949D01*
X116244Y071997D01*
X11612Y072013D01*
D02*
G37*
G36*
X11357Y072003D02*
X113446Y071987D01*
X113331Y071939D01*
X113232Y071863D01*
X113156Y071764D01*
X113108Y071649D01*
X113092Y071525D01*
X113108Y071401D01*
X113156Y071286D01*
X113232Y071187D01*
X113331Y071111D01*
X113446Y071063D01*
X11357Y071047D01*
X113694Y071063D01*
X113809Y071111D01*
X113908Y071187D01*
X113984Y071286D01*
X114032Y071401D01*
X114048Y071525D01*
X114032Y071649D01*
X113984Y071764D01*
X113908Y071863D01*
X113809Y071939D01*
X113694Y071987D01*
X11357Y072003D01*
D02*
G37*
G36*
X112344Y069371D02*
Y06896D01*
X112755D01*
X112746Y069024D01*
X112699Y069139D01*
X112623Y069238D01*
X112523Y069314D01*
X112408Y069362D01*
X112344Y069371D01*
D02*
G37*
G36*
X09472Y085142D02*
X09322Y085142D01*
X093173Y085133D01*
X093133Y085107D01*
X092853Y084827D01*
X092827Y084787D01*
X092818Y08474D01*
X092818Y08393D01*
X092827Y083883D01*
X092853Y083843D01*
X093117Y08358D01*
Y082184D01*
X092232Y081298D01*
X09218Y081231D01*
X092148Y081154D01*
X092137Y08107D01*
Y07514D01*
X092148Y075056D01*
X09218Y074979D01*
X092232Y074912D01*
X097202Y069942D01*
X097269Y06989D01*
X097346Y069858D01*
X09743Y069847D01*
X107928D01*
X108756Y069019D01*
X108794Y068979D01*
X108829Y068937D01*
X10884Y068922D01*
X108849Y068908D01*
X108853Y0689D01*
X108869Y068776D01*
X108917Y068661D01*
X108993Y068562D01*
X109092Y068486D01*
X109208Y068438D01*
X109331Y068422D01*
X109455Y068438D01*
X109571Y068486D01*
X10967Y068562D01*
X109746Y068661D01*
X109794Y068776D01*
X109798Y068813D01*
X109849D01*
X109854Y068776D01*
X109901Y068661D01*
X109977Y068562D01*
X110077Y068486D01*
X110192Y068438D01*
X110316Y068422D01*
X11044Y068438D01*
X110555Y068486D01*
X110654Y068562D01*
X11073Y068661D01*
X110778Y068776D01*
X110783Y068813D01*
X110833D01*
X110838Y068776D01*
X110886Y068661D01*
X110962Y068562D01*
X111061Y068486D01*
X111176Y068438D01*
X1113Y068422D01*
X111424Y068438D01*
X111539Y068486D01*
X111638Y068562D01*
X111714Y068661D01*
X111762Y068776D01*
X111767Y068813D01*
X111817D01*
X111822Y068776D01*
X11187Y068661D01*
X111946Y068562D01*
X112045Y068486D01*
X11216Y068438D01*
X112224Y068429D01*
Y0689D01*
Y069371D01*
X11216Y069362D01*
X112045Y069314D01*
X111946Y069238D01*
X11187Y069139D01*
X111822Y069024D01*
X111817Y068987D01*
X111767D01*
X111762Y069024D01*
X111714Y069139D01*
X111638Y069238D01*
X111539Y069314D01*
X111424Y069362D01*
X1113Y069378D01*
X111176Y069362D01*
X111061Y069314D01*
X110962Y069238D01*
X110886Y069139D01*
X110838Y069024D01*
X110833Y068987D01*
X110783D01*
X110778Y069024D01*
X11073Y069139D01*
X110654Y069238D01*
X110555Y069314D01*
X11044Y069362D01*
X110316Y069378D01*
X110192Y069362D01*
X110077Y069314D01*
X109977Y069238D01*
X109901Y069139D01*
X109854Y069024D01*
X109849Y068987D01*
X109798D01*
X109794Y069024D01*
X109746Y069139D01*
X10967Y069238D01*
X109571Y069314D01*
X109455Y069362D01*
X109332Y069378D01*
X109323Y069383D01*
X10931Y069391D01*
X109295Y069402D01*
X109227Y069461D01*
X109226Y069462D01*
X10829Y070398D01*
X108223Y07045D01*
X108145Y070482D01*
X108061Y070493D01*
X097564D01*
X092783Y075274D01*
Y080936D01*
X093668Y081822D01*
X09372Y081889D01*
X093752Y081966D01*
X093763Y08205D01*
Y083528D01*
X0947Y083528D01*
X094721Y083532D01*
X094747Y083537D01*
X094747Y083537D01*
X094787Y083563D01*
X095037Y083813D01*
X095052Y083837D01*
X095063Y083853D01*
X095063Y083853D01*
X095063Y083853D01*
X095072Y0839D01*
X095072Y08479D01*
X095063Y084837D01*
X095037Y084877D01*
X094807Y085107D01*
X094767Y085133D01*
X09472Y085142D01*
D02*
G37*
G36*
X112755Y06884D02*
X112344D01*
Y068429D01*
X112408Y068438D01*
X112523Y068486D01*
X112623Y068562D01*
X112699Y068661D01*
X112746Y068776D01*
X112755Y06884D01*
D02*
G37*
%LPD*%
G36*
X099319Y119552D02*
X099299Y119571D01*
X099277Y119587D01*
X099253Y119602D01*
X099228Y119615D01*
X099201Y119625D01*
X099172Y119634D01*
X099141Y119641D01*
X099109Y119646D01*
X09908Y119649D01*
X099051Y119646D01*
X099019Y119641D01*
X098988Y119634D01*
X098959Y119625D01*
X098932Y119615D01*
X098906Y119602D01*
X098883Y119587D01*
X098861Y119571D01*
X098841Y119552D01*
Y120048D01*
X098861Y120029D01*
X098883Y120013D01*
X098906Y119998D01*
X098932Y119985D01*
X098959Y119975D01*
X098988Y119966D01*
X099019Y119959D01*
X099051Y119954D01*
X09908Y119951D01*
X099109Y119954D01*
X099141Y119959D01*
X099172Y119966D01*
X099201Y119975D01*
X099228Y119985D01*
X099253Y119998D01*
X099277Y120013D01*
X099299Y120029D01*
X099319Y120048D01*
Y119552D01*
D02*
G37*
G36*
X099845Y120029D02*
X099867Y120013D01*
X099891Y119998D01*
X099916Y119985D01*
X099943Y119975D01*
X099972Y119966D01*
X100003Y119959D01*
X100035Y119954D01*
X10007Y119951D01*
X100106Y11995D01*
Y11965D01*
X10007Y119649D01*
X100035Y119646D01*
X100003Y119641D01*
X099972Y119634D01*
X099943Y119625D01*
X099916Y119615D01*
X099891Y119602D01*
X099867Y119587D01*
X099845Y119571D01*
X099825Y119552D01*
Y120048D01*
X099845Y120029D01*
D02*
G37*
G36*
X113199Y119522D02*
X113194Y119514D01*
X11319Y119502D01*
X113186Y119487D01*
X113183Y119469D01*
X113179Y119422D01*
X113177Y119362D01*
X113176Y119326D01*
X112876D01*
X112876Y119362D01*
X112869Y119469D01*
X112866Y119487D01*
X112863Y119502D01*
X112858Y119514D01*
X112854Y119522D01*
X112848Y119527D01*
X113204D01*
X113199Y119522D01*
D02*
G37*
G36*
X098803Y119516D02*
X09879Y119498D01*
X098777Y119478D01*
X098767Y119455D01*
X098758Y11943D01*
X098751Y119403D01*
X098745Y119372D01*
X098741Y11934D01*
X098739Y119304D01*
X098738Y119266D01*
X098438D01*
X098437Y119304D01*
X098431Y119372D01*
X098425Y119403D01*
X098418Y11943D01*
X098409Y119455D01*
X098398Y119478D01*
X098386Y119498D01*
X098372Y119516D01*
X098357Y119531D01*
X098819D01*
X098803Y119516D01*
D02*
G37*
G36*
X112226Y11953D02*
X112027Y119312D01*
X112034D01*
X111997Y119272D01*
X11197Y119236D01*
X111953Y119204D01*
X111946Y119176D01*
X11195Y119153D01*
X111964Y119134D01*
X111988Y119119D01*
X112023Y119108D01*
X112067Y119102D01*
X112122Y1191D01*
X11146Y1188D01*
X111098Y1191D01*
X111157Y119102D01*
X111214Y119108D01*
X11127Y119119D01*
X111324Y119134D01*
X111376Y119153D01*
X111426Y119176D01*
X111475Y119204D01*
X111522Y119236D01*
X111567Y119272D01*
X11161Y119312D01*
X111814D01*
X11169Y119392D01*
X111715Y119419D01*
X111737Y119445D01*
X111754Y11947D01*
X111768Y119494D01*
X111777Y119517D01*
X111782Y119539D01*
X111783Y119561D01*
X11178Y119581D01*
X111772Y1196D01*
X111761Y119618D01*
X112226Y11953D01*
D02*
G37*
G36*
X097298Y069359D02*
X097324Y069336D01*
X097351Y069317D01*
X097377Y0693D01*
X097404Y069286D01*
X097431Y069274D01*
X097458Y069265D01*
X097485Y069259D01*
X097512Y069255D01*
X097539Y069254D01*
X097189Y068904D01*
X097188Y068931D01*
X097184Y068958D01*
X097178Y068985D01*
X097169Y069012D01*
X097157Y069039D01*
X097143Y069066D01*
X097126Y069092D01*
X097106Y069119D01*
X097084Y069145D01*
X09706Y069171D01*
X097272Y069383D01*
X097298Y069359D01*
D02*
G37*
G36*
X098691Y068584D02*
X098688Y068577D01*
X098685Y068567D01*
X098683Y068554D01*
X09868Y068517D01*
X098677Y068436D01*
X098677Y068403D01*
X098377D01*
X098377Y068436D01*
X098369Y068567D01*
X098367Y068577D01*
X098364Y068584D01*
X098361Y068587D01*
X098694D01*
X098691Y068584D01*
D02*
G37*
G36*
X104495Y068553D02*
X10447Y068547D01*
X104444Y068539D01*
X104419Y068528D01*
X104393Y068516D01*
X104368Y068501D01*
X104342Y068484D01*
X104317Y068465D01*
X104265Y068422D01*
X104239Y068397D01*
X103974Y068556D01*
X103999Y068583D01*
X104021Y068609D01*
X104039Y068636D01*
X104054Y068662D01*
X104066Y068688D01*
X104075Y068715D01*
X10408Y068741D01*
X104082Y068767D01*
X104081Y068794D01*
X104076Y06882D01*
X104495Y068553D01*
D02*
G37*
G36*
X103506Y068552D02*
X103481Y068546D01*
X103455Y068538D01*
X10343Y068528D01*
X103404Y068516D01*
X103379Y068501D01*
X103353Y068484D01*
X103327Y068466D01*
X103275Y068422D01*
X103253Y0684D01*
X103217Y068362D01*
X10319Y068326D01*
X103173Y068294D01*
X103167Y068266D01*
X10317Y068243D01*
X103184Y068224D01*
X103208Y068209D01*
X103243Y068198D01*
X103287Y068192D01*
X103342Y06819D01*
X10268Y06789D01*
X102318Y06819D01*
X102377Y068192D01*
X102434Y068198D01*
X10249Y068209D01*
X102544Y068224D01*
X102596Y068243D01*
X102646Y068266D01*
X102695Y068294D01*
X102742Y068326D01*
X102787Y068362D01*
X10283Y068402D01*
X103242D01*
X102988Y06856D01*
X103013Y068586D01*
X103034Y068613D01*
X103053Y068639D01*
X103068Y068666D01*
X10308Y068692D01*
X103089Y068718D01*
X103094Y068745D01*
X103096Y068771D01*
X103095Y068798D01*
X103091Y068824D01*
X103506Y068552D01*
D02*
G37*
G36*
X098783Y068362D02*
X098828Y068326D01*
X098875Y068294D01*
X098924Y068266D01*
X098974Y068243D01*
X099026Y068224D01*
X09908Y068209D01*
X099136Y068198D01*
X099193Y068192D01*
X099252Y06819D01*
X09889Y06789D01*
X098228Y06819D01*
X098284Y068191D01*
X098332Y068194D01*
X098371Y0682D01*
X098403Y068207D01*
X098426Y068217D01*
X098441Y068228D01*
X098449Y068242D01*
X098448Y068258D01*
X098438Y068276D01*
X098421Y068297D01*
X09874Y068402D01*
X098783Y068362D01*
D02*
G37*
G36*
X101959Y118027D02*
X101908Y117968D01*
X101887Y11794D01*
X10187Y117914D01*
X101855Y117888D01*
X101844Y117863D01*
X101836Y11784D01*
X101831Y117817D01*
X10183Y117796D01*
X10173D01*
X101728Y117817D01*
X101723Y11784D01*
X101715Y117863D01*
X101704Y117888D01*
X10169Y117914D01*
X101672Y11794D01*
X101651Y117968D01*
X1016Y118027D01*
X10157Y118057D01*
X10199D01*
X101959Y118027D01*
D02*
G37*
G36*
X102463Y117468D02*
X10247Y117462D01*
X102478Y117457D01*
X102487Y117452D01*
X102496Y117449D01*
X102506Y117445D01*
X102516Y117443D01*
X102527Y117441D01*
X102539Y11744D01*
X102551Y11744D01*
Y11734D01*
X102539Y11734D01*
X102527Y117339D01*
X102516Y117337D01*
X102506Y117335D01*
X102496Y117331D01*
X102487Y117328D01*
X102478Y117323D01*
X10247Y117318D01*
X102463Y117312D01*
X102456Y117306D01*
Y117474D01*
X102463Y117468D01*
D02*
G37*
G36*
X113454Y117186D02*
X113447Y117192D01*
X11344Y117198D01*
X113432Y117203D01*
X113423Y117208D01*
X113414Y117212D01*
X113404Y117215D01*
X113394Y117217D01*
X113383Y117219D01*
X113371Y11722D01*
X113359Y11722D01*
Y11732D01*
X113371Y11732D01*
X113383Y117321D01*
X113394Y117323D01*
X113404Y117325D01*
X113414Y117329D01*
X113423Y117332D01*
X113432Y117337D01*
X11344Y117342D01*
X113447Y117348D01*
X113454Y117354D01*
Y117186D01*
D02*
G37*
G36*
X110999Y11709D02*
X110989Y11709D01*
X11098Y117088D01*
X110971Y117086D01*
X110961Y117083D01*
X110952Y117079D01*
X110943Y117075D01*
X110934Y117069D01*
X110925Y117062D01*
X110916Y117055D01*
X110907Y117047D01*
X110837Y117117D01*
X110845Y117126D01*
X110852Y117135D01*
X110859Y117144D01*
X110865Y117153D01*
X110869Y117162D01*
X110873Y117171D01*
X110876Y117181D01*
X110878Y11719D01*
X11088Y117199D01*
X11088Y117209D01*
X110999Y11709D01*
D02*
G37*
G36*
X112489Y11673D02*
X112479Y11673D01*
X11247Y116728D01*
X112461Y116726D01*
X112451Y116723D01*
X112442Y116719D01*
X112433Y116715D01*
X112424Y116709D01*
X112415Y116702D01*
X112406Y116695D01*
X112397Y116687D01*
X112327Y116757D01*
X112335Y116766D01*
X112342Y116775D01*
X112349Y116784D01*
X112355Y116793D01*
X112359Y116802D01*
X112363Y116811D01*
X112366Y116821D01*
X112368Y11683D01*
X11237Y116839D01*
X11237Y116849D01*
X112489Y11673D01*
D02*
G37*
G36*
X103303Y116808D02*
X10331Y116802D01*
X103318Y116797D01*
X103327Y116792D01*
X103336Y116789D01*
X103346Y116785D01*
X103356Y116783D01*
X103367Y116781D01*
X103379Y11678D01*
X103391Y11678D01*
Y11668D01*
X103379Y11668D01*
X103367Y116679D01*
X103356Y116677D01*
X103346Y116675D01*
X103336Y116671D01*
X103327Y116668D01*
X103318Y116663D01*
X10331Y116658D01*
X103303Y116652D01*
X103296Y116646D01*
Y116814D01*
X103303Y116808D01*
D02*
G37*
G36*
X112999Y11668D02*
X112989Y11668D01*
X11298Y116678D01*
X112971Y116676D01*
X112961Y116673D01*
X112952Y116669D01*
X112943Y116665D01*
X112934Y116659D01*
X112925Y116652D01*
X112916Y116645D01*
X112907Y116637D01*
X112837Y116707D01*
X112845Y116716D01*
X112852Y116725D01*
X112859Y116734D01*
X112865Y116743D01*
X112869Y116752D01*
X112873Y116761D01*
X112876Y116771D01*
X112878Y11678D01*
X11288Y116789D01*
X11288Y116799D01*
X112999Y11668D01*
D02*
G37*
G36*
X102873Y116438D02*
X10288Y116432D01*
X102888Y116427D01*
X102897Y116422D01*
X102906Y116419D01*
X102916Y116415D01*
X102926Y116413D01*
X102937Y116411D01*
X102949Y11641D01*
X102961Y11641D01*
Y11631D01*
X102949Y11631D01*
X102937Y116309D01*
X102926Y116307D01*
X102916Y116305D01*
X102906Y116301D01*
X102897Y116298D01*
X102888Y116293D01*
X10288Y116288D01*
X102873Y116282D01*
X102866Y116276D01*
Y116444D01*
X102873Y116438D01*
D02*
G37*
G36*
X107933Y115693D02*
X107925Y115684D01*
X107918Y115675D01*
X107911Y115666D01*
X107905Y115657D01*
X107901Y115648D01*
X107897Y115639D01*
X107894Y115629D01*
X107892Y11562D01*
X10789Y115611D01*
X10789Y115601D01*
X107771Y11572D01*
X107781Y11572D01*
X10779Y115722D01*
X107799Y115724D01*
X107809Y115727D01*
X107818Y115731D01*
X107827Y115735D01*
X107836Y115741D01*
X107845Y115748D01*
X107854Y115755D01*
X107863Y115763D01*
X107933Y115693D01*
D02*
G37*
G36*
X114924Y115256D02*
X114917Y115262D01*
X11491Y115268D01*
X114902Y115273D01*
X114893Y115278D01*
X114884Y115281D01*
X114874Y115285D01*
X114864Y115287D01*
X114853Y115289D01*
X114841Y11529D01*
X114829Y11529D01*
Y11539D01*
X114841Y11539D01*
X114853Y115391D01*
X114864Y115393D01*
X114874Y115395D01*
X114884Y115399D01*
X114893Y115402D01*
X114902Y115407D01*
X11491Y115412D01*
X114917Y115418D01*
X114924Y115424D01*
Y115256D01*
D02*
G37*
G36*
X108973Y114823D02*
X108965Y114814D01*
X108958Y114805D01*
X108951Y114796D01*
X108945Y114787D01*
X108941Y114778D01*
X108937Y114769D01*
X108934Y114759D01*
X108932Y11475D01*
X10893Y114741D01*
X10893Y114731D01*
X108811Y11485D01*
X108821Y11485D01*
X10883Y114852D01*
X108839Y114854D01*
X108849Y114857D01*
X108858Y114861D01*
X108867Y114865D01*
X108876Y114871D01*
X108885Y114878D01*
X108894Y114885D01*
X108903Y114893D01*
X108973Y114823D01*
D02*
G37*
G36*
X100293Y114878D02*
X1003Y114872D01*
X100308Y114867D01*
X100317Y114862D01*
X100326Y114859D01*
X100336Y114855D01*
X100346Y114853D01*
X100357Y114851D01*
X100369Y11485D01*
X100381Y11485D01*
Y11475D01*
X100369Y11475D01*
X100357Y114749D01*
X100346Y114747D01*
X100336Y114745D01*
X100326Y114741D01*
X100317Y114738D01*
X100308Y114733D01*
X1003Y114728D01*
X100293Y114722D01*
X100286Y114716D01*
Y114884D01*
X100293Y114878D01*
D02*
G37*
G36*
X100993Y114178D02*
X101Y114172D01*
X101008Y114167D01*
X101017Y114162D01*
X101026Y114158D01*
X101036Y114155D01*
X101046Y114153D01*
X101057Y114151D01*
X101069Y11415D01*
X101081Y11415D01*
Y11405D01*
X101069Y11405D01*
X101057Y114049D01*
X101046Y114047D01*
X101036Y114045D01*
X101026Y114042D01*
X101017Y114038D01*
X101008Y114033D01*
X101Y114028D01*
X100993Y114022D01*
X100986Y114016D01*
Y114184D01*
X100993Y114178D01*
D02*
G37*
G36*
X101333Y113458D02*
X10134Y113452D01*
X101348Y113447D01*
X101357Y113442D01*
X101366Y113439D01*
X101376Y113435D01*
X101386Y113433D01*
X101397Y113431D01*
X101409Y11343D01*
X101421Y11343D01*
Y11333D01*
X101409Y11333D01*
X101397Y113329D01*
X101386Y113327D01*
X101376Y113325D01*
X101366Y113322D01*
X101357Y113318D01*
X101348Y113313D01*
X10134Y113308D01*
X101333Y113302D01*
X101326Y113296D01*
Y113464D01*
X101333Y113458D01*
D02*
G37*
G36*
X100654Y112911D02*
X100661Y112905D01*
X100668Y112899D01*
X100676Y112894D01*
X100684Y11289D01*
X100694Y112886D01*
X100704Y112883D01*
X100714Y112882D01*
X100726Y11288D01*
X100738Y11288D01*
X100719Y11278D01*
X100707Y11278D01*
X100685Y112778D01*
X100674Y112776D01*
X100664Y112773D01*
X100654Y11277D01*
X100645Y112767D01*
X100636Y112763D01*
X100628Y112758D01*
X10062Y112753D01*
X100648Y112919D01*
X100654Y112911D01*
D02*
G37*
G36*
X117857Y111255D02*
X117809Y111255D01*
X117723Y111249D01*
X117685Y111244D01*
X117651Y111238D01*
X11762Y111229D01*
X117593Y111219D01*
X117569Y111208D01*
X117548Y111195D01*
X117531Y11118D01*
X11746Y111251D01*
X117475Y111268D01*
X117488Y111289D01*
X117499Y111313D01*
X117509Y11134D01*
X117518Y111371D01*
X117524Y111405D01*
X117529Y111443D01*
X117535Y111529D01*
X117535Y111577D01*
X117857Y111255D01*
D02*
G37*
G36*
X114608Y110613D02*
X114615Y110607D01*
X114623Y110602D01*
X114632Y110597D01*
X114641Y110594D01*
X114651Y11059D01*
X114661Y110588D01*
X114672Y110586D01*
X114684Y110585D01*
X114696Y110585D01*
Y110485D01*
X114684Y110485D01*
X114672Y110484D01*
X114661Y110482D01*
X114651Y11048D01*
X114641Y110477D01*
X114632Y110473D01*
X114623Y110468D01*
X114615Y110463D01*
X114608Y110457D01*
X114601Y110451D01*
Y110619D01*
X114608Y110613D01*
D02*
G37*
G36*
X115236Y109865D02*
X115245Y109858D01*
X115254Y109852D01*
X115263Y109847D01*
X115272Y109842D01*
X115281Y109839D01*
X11529Y109837D01*
X115299Y109837D01*
X115308Y109837D01*
X115318Y109838D01*
X115222Y1097D01*
X11522Y109709D01*
X115217Y109718D01*
X115214Y109727D01*
X11521Y109736D01*
X115205Y109745D01*
X1152Y109754D01*
X115193Y109763D01*
X115186Y109771D01*
X11517Y109789D01*
X115227Y109874D01*
X115236Y109865D01*
D02*
G37*
G36*
X114736Y109735D02*
X114745Y109728D01*
X114754Y109721D01*
X114763Y109715D01*
X114772Y109711D01*
X114781Y109707D01*
X114791Y109704D01*
X1148Y109702D01*
X114809Y1097D01*
X114819Y1097D01*
X1147Y109581D01*
X1147Y109591D01*
X114698Y1096D01*
X114696Y109609D01*
X114693Y109619D01*
X114689Y109628D01*
X114685Y109637D01*
X114679Y109646D01*
X114672Y109655D01*
X114665Y109664D01*
X114657Y109673D01*
X114727Y109743D01*
X114736Y109735D01*
D02*
G37*
G36*
X116093Y109548D02*
X1161Y109542D01*
X116108Y109537D01*
X116117Y109532D01*
X116126Y109529D01*
X116136Y109525D01*
X116146Y109523D01*
X116157Y109521D01*
X116169Y10952D01*
X116181Y10952D01*
Y10942D01*
X116169Y10942D01*
X116157Y109419D01*
X116146Y109417D01*
X116136Y109415D01*
X116126Y109411D01*
X116117Y109408D01*
X116108Y109403D01*
X1161Y109398D01*
X116093Y109392D01*
X116086Y109386D01*
Y109554D01*
X116093Y109548D01*
D02*
G37*
G36*
X11372Y109462D02*
X11372Y109453D01*
X113722Y109444D01*
X113725Y109434D01*
X113728Y109425D01*
X113733Y109416D01*
X113738Y109407D01*
X113745Y109398D01*
X113752Y109389D01*
X11376Y10938D01*
X113685Y109314D01*
X113676Y109322D01*
X113668Y10933D01*
X113659Y109337D01*
X11365Y109342D01*
X113641Y109347D01*
X113631Y109352D01*
X113622Y109355D01*
X113613Y109358D01*
X113604Y109359D01*
X113594Y10936D01*
X11372Y109472D01*
X11372Y109462D01*
D02*
G37*
G36*
X11419Y109419D02*
X114192Y10941D01*
X114194Y109401D01*
X114197Y109391D01*
X114201Y109382D01*
X114205Y109373D01*
X114211Y109364D01*
X114218Y109355D01*
X114225Y109346D01*
X114233Y109337D01*
X114163Y109267D01*
X114154Y109275D01*
X114145Y109282D01*
X114136Y109289D01*
X114127Y109295D01*
X114118Y109299D01*
X114109Y109303D01*
X114099Y109306D01*
X11409Y109308D01*
X114081Y10931D01*
X114071Y10931D01*
X11419Y109429D01*
X11419Y109419D01*
D02*
G37*
G36*
X114488Y108602D02*
X114496Y108597D01*
X114505Y108593D01*
X114514Y10859D01*
X114524Y108587D01*
X114534Y108584D01*
X114545Y108582D01*
X114556Y108581D01*
X114579Y10858D01*
X114598Y10848D01*
X114586Y10848D01*
X114574Y108478D01*
X114564Y108477D01*
X114554Y108474D01*
X114544Y10847D01*
X114536Y108466D01*
X114528Y108461D01*
X114521Y108455D01*
X114514Y108449D01*
X114508Y108441D01*
X11448Y108607D01*
X114488Y108602D01*
D02*
G37*
G36*
X117809Y10612D02*
X117799Y10612D01*
X11779Y106118D01*
X117781Y106116D01*
X117771Y106113D01*
X117762Y106109D01*
X117753Y106105D01*
X117744Y106099D01*
X117735Y106092D01*
X117726Y106085D01*
X117717Y106077D01*
X117647Y106147D01*
X117655Y106156D01*
X117662Y106165D01*
X117669Y106174D01*
X117675Y106183D01*
X117679Y106192D01*
X117683Y106201D01*
X117686Y106211D01*
X117688Y10622D01*
X11769Y106229D01*
X11769Y106239D01*
X117809Y10612D01*
D02*
G37*
G36*
X114873Y099913D02*
X114865Y099904D01*
X114858Y099895D01*
X114851Y099886D01*
X114845Y099877D01*
X114841Y099868D01*
X114837Y099859D01*
X114834Y099849D01*
X114832Y09984D01*
X11483Y099831D01*
X11483Y099821D01*
X114711Y09994D01*
X114721Y09994D01*
X11473Y099942D01*
X114739Y099944D01*
X114749Y099947D01*
X114758Y099951D01*
X114767Y099955D01*
X114776Y099961D01*
X114785Y099968D01*
X114794Y099975D01*
X114803Y099983D01*
X114873Y099913D01*
D02*
G37*
G36*
X115583Y099903D02*
X115575Y099894D01*
X115568Y099885D01*
X115561Y099876D01*
X115555Y099867D01*
X115551Y099858D01*
X115547Y099849D01*
X115544Y099839D01*
X115542Y09983D01*
X11554Y099821D01*
X11554Y099811D01*
X115421Y09993D01*
X115431Y09993D01*
X11544Y099932D01*
X115449Y099934D01*
X115459Y099937D01*
X115468Y099941D01*
X115477Y099945D01*
X115486Y099951D01*
X115495Y099958D01*
X115504Y099965D01*
X115513Y099973D01*
X115583Y099903D01*
D02*
G37*
G36*
X094682Y079801D02*
X094666Y079785D01*
X094641Y079754D01*
X094631Y079739D01*
X094624Y079726D01*
X094619Y079713D01*
X094615Y079701D01*
X094614Y079689D01*
X094615Y079678D01*
X094618Y079668D01*
X094535Y079867D01*
X09454Y079858D01*
X094546Y079852D01*
X094553Y079849D01*
X094562Y079848D01*
X094572Y07985D01*
X094583Y079855D01*
X094595Y079862D01*
X094608Y079872D01*
X094623Y079884D01*
X094639Y079899D01*
X094682Y079801D01*
D02*
G37*
G36*
X093682D02*
X093666Y079785D01*
X093641Y079754D01*
X093631Y079739D01*
X093624Y079726D01*
X093619Y079713D01*
X093615Y079701D01*
X093614Y079689D01*
X093615Y079678D01*
X093618Y079668D01*
X093535Y079867D01*
X09354Y079858D01*
X093546Y079852D01*
X093553Y079849D01*
X093562Y079848D01*
X093572Y07985D01*
X093583Y079855D01*
X093595Y079862D01*
X093608Y079872D01*
X093623Y079884D01*
X093639Y079899D01*
X093682Y079801D01*
D02*
G37*
G36*
X096619Y079601D02*
X096622Y079592D01*
X096627Y079584D01*
X096634Y079578D01*
X096643Y079573D01*
X096654Y079568D01*
X096667Y079564D01*
X096682Y079562D01*
X0967Y07956D01*
X096719Y07956D01*
Y07946D01*
X0967Y07946D01*
X096682Y079458D01*
X096667Y079455D01*
X096654Y079452D01*
X096643Y079447D01*
X096634Y079442D01*
X096627Y079436D01*
X096622Y079428D01*
X096619Y079419D01*
X096618Y07941D01*
Y07961D01*
X096619Y079601D01*
D02*
G37*
G36*
X104233Y071678D02*
X10424Y071672D01*
X104248Y071667D01*
X104257Y071662D01*
X104266Y071659D01*
X104276Y071655D01*
X104286Y071653D01*
X104297Y071651D01*
X104309Y07165D01*
X104321Y07165D01*
Y07155D01*
X104309Y07155D01*
X104297Y071549D01*
X104286Y071547D01*
X104276Y071545D01*
X104266Y071542D01*
X104257Y071538D01*
X104248Y071533D01*
X10424Y071528D01*
X104233Y071522D01*
X104226Y071516D01*
Y071684D01*
X104233Y071678D01*
D02*
G37*
G36*
X099399Y071314D02*
X099407Y071308D01*
X099415Y071303D01*
X099423Y071299D01*
X099433Y071295D01*
X099442Y071292D01*
X099453Y071289D01*
X099464Y071288D01*
X099475Y071287D01*
X099487Y071286D01*
Y071186D01*
X099475Y071186D01*
X099464Y071185D01*
X099453Y071183D01*
X099442Y071181D01*
X099433Y071178D01*
X099423Y071174D01*
X099415Y07117D01*
X099407Y071165D01*
X099399Y071159D01*
X099392Y071152D01*
Y07132D01*
X099399Y071314D01*
D02*
G37*
G36*
X117538Y11333D02*
X117535Y113354D01*
X117528Y113375D01*
X117515Y113394D01*
X117497Y11341D01*
X117475Y113424D01*
X117447Y113435D01*
X117415Y113444D01*
X117377Y11345D01*
X117334Y113454D01*
X117286Y113455D01*
Y113705D01*
X117334Y113706D01*
X117377Y11371D01*
X117415Y113716D01*
X117447Y113725D01*
X117475Y113736D01*
X117497Y11375D01*
X117515Y113766D01*
X117528Y113785D01*
X117535Y113806D01*
X117538Y11383D01*
Y11333D01*
D02*
G37*
G36*
X11312Y113219D02*
X113122Y11321D01*
X113124Y113201D01*
X113127Y113191D01*
X113131Y113182D01*
X113135Y113173D01*
X113141Y113164D01*
X113148Y113155D01*
X113155Y113146D01*
X113163Y113137D01*
X113093Y113067D01*
X113084Y113075D01*
X113075Y113082D01*
X113066Y113089D01*
X113057Y113095D01*
X113048Y113099D01*
X113039Y113103D01*
X113029Y113106D01*
X11302Y113108D01*
X113011Y11311D01*
X113001Y11311D01*
X11312Y113229D01*
X11312Y113219D01*
D02*
G37*
G36*
X11261Y113009D02*
X112612Y113D01*
X112614Y112991D01*
X112617Y112981D01*
X112621Y112972D01*
X112625Y112963D01*
X112631Y112954D01*
X112638Y112945D01*
X112645Y112936D01*
X112653Y112927D01*
X112583Y112857D01*
X112574Y112865D01*
X112565Y112872D01*
X112556Y112879D01*
X112547Y112885D01*
X112538Y112889D01*
X112529Y112893D01*
X112519Y112896D01*
X11251Y112898D01*
X112501Y1129D01*
X112491Y1129D01*
X11261Y113019D01*
X11261Y113009D01*
D02*
G37*
G36*
X114444Y112736D02*
X114437Y112742D01*
X11443Y112748D01*
X114422Y112753D01*
X114413Y112758D01*
X114404Y112761D01*
X114394Y112765D01*
X114384Y112767D01*
X114373Y112769D01*
X114361Y11277D01*
X114349Y11277D01*
Y11287D01*
X114361Y11287D01*
X114373Y112871D01*
X114384Y112873D01*
X114394Y112875D01*
X114404Y112879D01*
X114413Y112882D01*
X114422Y112887D01*
X11443Y112892D01*
X114437Y112898D01*
X114444Y112904D01*
Y112736D01*
D02*
G37*
G36*
X11212Y112709D02*
X112122Y1127D01*
X112124Y112691D01*
X112127Y112681D01*
X112131Y112672D01*
X112135Y112663D01*
X112141Y112654D01*
X112148Y112645D01*
X112155Y112636D01*
X112163Y112627D01*
X112093Y112557D01*
X112084Y112565D01*
X112075Y112572D01*
X112066Y112579D01*
X112057Y112585D01*
X112048Y112589D01*
X112039Y112593D01*
X112029Y112596D01*
X11202Y112598D01*
X112011Y1126D01*
X112001Y1126D01*
X11212Y112719D01*
X11212Y112709D01*
D02*
G37*
G36*
X115014Y112406D02*
X115007Y112412D01*
X115Y112418D01*
X114992Y112423D01*
X114983Y112428D01*
X114974Y112431D01*
X114964Y112435D01*
X114954Y112437D01*
X114943Y112439D01*
X114931Y11244D01*
X114919Y11244D01*
Y11254D01*
X114931Y11254D01*
X114943Y112541D01*
X114954Y112543D01*
X114964Y112545D01*
X114974Y112549D01*
X114983Y112552D01*
X114992Y112557D01*
X115Y112562D01*
X115007Y112568D01*
X115014Y112574D01*
Y112406D01*
D02*
G37*
G36*
X117628Y112353D02*
X117594Y112386D01*
X117529Y112443D01*
X117499Y112466D01*
X11747Y112486D01*
X117442Y112502D01*
X117416Y112514D01*
X117391Y112523D01*
X117367Y112528D01*
X117344Y11253D01*
Y11263D01*
X117367Y112632D01*
X117391Y112637D01*
X117416Y112646D01*
X117442Y112658D01*
X11747Y112674D01*
X117499Y112694D01*
X117529Y112717D01*
X117594Y112774D01*
X117628Y112807D01*
Y112353D01*
D02*
G37*
G36*
X115684Y112046D02*
X115677Y112052D01*
X11567Y112058D01*
X115662Y112063D01*
X115653Y112068D01*
X115644Y112072D01*
X115634Y112075D01*
X115624Y112077D01*
X115613Y112079D01*
X115601Y11208D01*
X115589Y11208D01*
Y11218D01*
X115601Y11218D01*
X115613Y112181D01*
X115624Y112183D01*
X115634Y112185D01*
X115644Y112189D01*
X115653Y112192D01*
X115662Y112197D01*
X11567Y112202D01*
X115677Y112208D01*
X115684Y112214D01*
Y112046D01*
D02*
G37*
G36*
X113154Y111841D02*
X113161Y111835D01*
X113168Y111829D01*
X113176Y111824D01*
X113184Y11182D01*
X113194Y111816D01*
X113204Y111813D01*
X113214Y111812D01*
X113226Y11181D01*
X113238Y11181D01*
X113219Y11171D01*
X113207Y11171D01*
X113185Y111708D01*
X113174Y111706D01*
X113164Y111703D01*
X113154Y1117D01*
X113145Y111697D01*
X113136Y111693D01*
X113128Y111688D01*
X11312Y111683D01*
X113148Y111849D01*
X113154Y111841D01*
D02*
G37*
G36*
X1136Y106443D02*
X113592Y106448D01*
X113584Y106453D01*
X113575Y106457D01*
X113566Y10646D01*
X113556Y106463D01*
X113546Y106466D01*
X113535Y106468D01*
X113524Y106469D01*
X113501Y10647D01*
X113482Y10657D01*
X113494Y10657D01*
X113506Y106572D01*
X113516Y106573D01*
X113526Y106576D01*
X113536Y10658D01*
X113544Y106584D01*
X113552Y106589D01*
X113559Y106595D01*
X113566Y106601D01*
X113572Y106609D01*
X1136Y106443D01*
D02*
G37*
G36*
X108883Y106098D02*
X10889Y106092D01*
X108898Y106087D01*
X108907Y106082D01*
X108916Y106079D01*
X108926Y106075D01*
X108936Y106073D01*
X108947Y106071D01*
X108959Y10607D01*
X108971Y10607D01*
Y10597D01*
X108959Y10597D01*
X108947Y105969D01*
X108936Y105967D01*
X108926Y105965D01*
X108916Y105962D01*
X108907Y105958D01*
X108898Y105953D01*
X10889Y105948D01*
X108883Y105942D01*
X108876Y105936D01*
Y106104D01*
X108883Y106098D01*
D02*
G37*
G36*
X108198Y106547D02*
X108192Y10654D01*
X108187Y106532D01*
X108182Y106523D01*
X108179Y106514D01*
X108175Y106504D01*
X108173Y106494D01*
X108171Y106483D01*
X10817Y106471D01*
X10817Y106459D01*
X10807D01*
X10807Y106471D01*
X108069Y106483D01*
X108067Y106494D01*
X108065Y106504D01*
X108062Y106514D01*
X108058Y106523D01*
X108053Y106532D01*
X108048Y10654D01*
X108042Y106547D01*
X108036Y106554D01*
X108204D01*
X108198Y106547D01*
D02*
G37*
G36*
X107843Y104983D02*
X10784Y10498D01*
X107838Y104977D01*
X107835Y104972D01*
X107834Y104966D01*
X107832Y104959D01*
X107831Y104951D01*
X10783Y104931D01*
X10783Y10492D01*
X10773D01*
X107729Y104931D01*
X107727Y104959D01*
X107725Y104966D01*
X107724Y104972D01*
X107722Y104977D01*
X107719Y10498D01*
X107716Y104983D01*
X107713Y104984D01*
X107846D01*
X107843Y104983D01*
D02*
G37*
G36*
X105956Y105031D02*
X105906Y104973D01*
X105886Y104946D01*
X105869Y10492D01*
X105855Y104894D01*
X105844Y10487D01*
X105836Y104847D01*
X105831Y104825D01*
X10583Y104803D01*
X10573D01*
X105728Y104825D01*
X105723Y104847D01*
X105715Y10487D01*
X105704Y104894D01*
X10569Y10492D01*
X105673Y104946D01*
X105653Y104973D01*
X105603Y105031D01*
X105573Y105061D01*
X105986D01*
X105956Y105031D01*
D02*
G37*
G36*
X108756Y104806D02*
X10875Y104799D01*
X108746Y104791D01*
X108741Y104783D01*
X108738Y104774D01*
X108735Y104764D01*
X108733Y104754D01*
X108731Y104743D01*
X10873Y104731D01*
X10873Y104719D01*
X10863D01*
X10863Y104731D01*
X108629Y104743D01*
X108627Y104754D01*
X108625Y104764D01*
X108622Y104774D01*
X108619Y104783D01*
X108614Y104791D01*
X10861Y104799D01*
X108604Y104806D01*
X108598Y104812D01*
X108762D01*
X108756Y104806D01*
D02*
G37*
G36*
X110298Y103853D02*
X110291Y10386D01*
X110284Y103867D01*
X110277Y103872D01*
X110268Y103877D01*
X110259Y103881D01*
X11025Y103884D01*
X110239Y103887D01*
X110229Y103889D01*
X110217Y10389D01*
X110205Y10389D01*
X110214Y10399D01*
X110226Y10399D01*
X110238Y103991D01*
X110249Y103993D01*
X110259Y103995D01*
X110269Y103998D01*
X110279Y104001D01*
X110288Y104005D01*
X110296Y10401D01*
X110304Y104015D01*
X110312Y104021D01*
X110298Y103853D01*
D02*
G37*
G36*
X108784Y103516D02*
X108777Y103522D01*
X10877Y103528D01*
X108762Y103533D01*
X108753Y103538D01*
X108744Y103541D01*
X108734Y103545D01*
X108724Y103547D01*
X108713Y103549D01*
X108701Y10355D01*
X108689Y10355D01*
Y10365D01*
X108701Y10365D01*
X108713Y103651D01*
X108724Y103653D01*
X108734Y103655D01*
X108744Y103659D01*
X108753Y103662D01*
X108762Y103667D01*
X10877Y103672D01*
X108777Y103678D01*
X108784Y103684D01*
Y103516D01*
D02*
G37*
G36*
X110952Y103482D02*
X110951Y103478D01*
X110949Y103473D01*
X110948Y103467D01*
X110947Y10346D01*
X110946Y103441D01*
X110945Y103404D01*
X110795D01*
X110795Y103418D01*
X110792Y103467D01*
X110791Y103473D01*
X110789Y103478D01*
X110788Y103482D01*
X110786Y103484D01*
X110954D01*
X110952Y103482D01*
D02*
G37*
G36*
X107133Y103428D02*
X10714Y103422D01*
X107148Y103417D01*
X107157Y103412D01*
X107166Y103408D01*
X107176Y103405D01*
X107186Y103403D01*
X107197Y103401D01*
X107209Y1034D01*
X107221Y1034D01*
Y1033D01*
X107209Y1033D01*
X107197Y103299D01*
X107186Y103297D01*
X107176Y103295D01*
X107166Y103292D01*
X107157Y103288D01*
X107148Y103283D01*
X10714Y103278D01*
X107133Y103272D01*
X107126Y103266D01*
Y103434D01*
X107133Y103428D01*
D02*
G37*
G36*
X110804Y103106D02*
X110792Y103088D01*
X110786Y103072D01*
X110786Y103058D01*
X110793Y103047D01*
X110805Y103037D01*
X110824Y10303D01*
X110848Y103024D01*
X110879Y103021D01*
X110916Y10302D01*
X11051Y10282D01*
X110304Y10302D01*
X110343Y103021D01*
X11038Y103024D01*
X110415Y10303D01*
X110449Y103037D01*
X11048Y103047D01*
X11051Y103058D01*
X110538Y103072D01*
X110564Y103088D01*
X110588Y103106D01*
X11061Y103126D01*
X110822D01*
X110804Y103106D01*
D02*
G37*
G36*
X111615Y103044D02*
X111589Y103016D01*
X111568Y102989D01*
X111553Y102962D01*
X111542Y102936D01*
X111536Y102911D01*
X111535Y102887D01*
X111538Y102863D01*
X111547Y10284D01*
X111561Y102818D01*
X11158Y102796D01*
X11145Y102714D01*
X111428Y102734D01*
X111404Y102752D01*
X111378Y102768D01*
X11135Y102782D01*
X11132Y102793D01*
X111289Y102803D01*
X111255Y10281D01*
X11122Y102816D01*
X111183Y102819D01*
X111144Y10282D01*
X111109Y10302D01*
X111148Y103021D01*
X111186Y103026D01*
X111223Y103033D01*
X111259Y103043D01*
X111294Y103055D01*
X111327Y103071D01*
X11136Y103089D01*
X111391Y103111D01*
X111421Y103135D01*
X11145Y103161D01*
X111615Y103044D01*
D02*
G37*
G36*
X112305Y101242D02*
X112308Y101193D01*
X112309Y101187D01*
X112311Y101182D01*
X112312Y101178D01*
X112314Y101176D01*
X112146D01*
X112148Y101178D01*
X112149Y101182D01*
X112151Y101187D01*
X112152Y101193D01*
X112153Y1012D01*
X112154Y101219D01*
X112155Y101256D01*
X112305D01*
X112305Y101242D01*
D02*
G37*
G36*
X106996Y098536D02*
X10699Y098529D01*
X106986Y098521D01*
X106981Y098513D01*
X106978Y098504D01*
X106975Y098494D01*
X106973Y098484D01*
X106971Y098473D01*
X10697Y098461D01*
X10697Y098449D01*
X10687D01*
X10687Y098461D01*
X106869Y098473D01*
X106867Y098484D01*
X106865Y098494D01*
X106862Y098504D01*
X106859Y098513D01*
X106854Y098521D01*
X10685Y098529D01*
X106844Y098536D01*
X106838Y098542D01*
X107002D01*
X106996Y098536D01*
D02*
G37*
G36*
X105497Y098257D02*
X105489Y098248D01*
X105482Y098239D01*
X105475Y09823D01*
X10547Y098221D01*
X105466Y098212D01*
X105462Y098202D01*
X10546Y098193D01*
X105459Y098184D01*
X105458Y098175D01*
X105459Y098165D01*
X105327Y098269D01*
X105336Y098271D01*
X105346Y098273D01*
X105355Y098276D01*
X105364Y09828D01*
X105373Y098284D01*
X105382Y098289D01*
X105391Y098295D01*
X1054Y098302D01*
X105409Y09831D01*
X105417Y098318D01*
X105497Y098257D01*
D02*
G37*
G36*
X099852Y09816D02*
X099842Y09816D01*
X099833Y09816D01*
X099824Y098158D01*
X099814Y098155D01*
X099805Y098152D01*
X099796Y098147D01*
X099787Y098142D01*
X099778Y098135D01*
X099769Y098128D01*
X09976Y098119D01*
X099694Y098195D01*
X099702Y098204D01*
X09971Y098212D01*
X099717Y098221D01*
X099722Y09823D01*
X099727Y098239D01*
X099732Y098249D01*
X099735Y098258D01*
X099738Y098267D01*
X099739Y098276D01*
X09974Y098286D01*
X099852Y09816D01*
D02*
G37*
G36*
X105546Y097665D02*
X105538Y097656D01*
X10553Y097647D01*
X105525Y097639D01*
X10552Y09763D01*
X105517Y097621D01*
X105514Y097613D01*
X105514Y097605D01*
X105514Y097597D01*
X105516Y097589D01*
X105519Y097581D01*
X105363Y09764D01*
X105369Y097643D01*
X105375Y097647D01*
X105382Y097651D01*
X105396Y097661D01*
X105404Y097667D01*
X105429Y09769D01*
X105438Y097699D01*
X105546Y097665D01*
D02*
G37*
G36*
X099867Y097329D02*
X099853Y097312D01*
X099841Y097293D01*
X09983Y097271D01*
X09982Y097245D01*
X099812Y097217D01*
X099806Y097186D01*
X099801Y097151D01*
X099796Y097074D01*
X099796Y097031D01*
X099499Y097328D01*
X099542Y097328D01*
X09962Y097333D01*
X099654Y097338D01*
X099685Y097344D01*
X099714Y097352D01*
X099739Y097362D01*
X099761Y097373D01*
X09978Y097385D01*
X099797Y097399D01*
X099867Y097329D01*
D02*
G37*
G36*
X100675Y096782D02*
X100624Y096724D01*
X100603Y096696D01*
X100586Y09667D01*
X100571Y096644D01*
X10056Y096619D01*
X100552Y096596D01*
X100547Y096573D01*
X100546Y096552D01*
X100446D01*
X100444Y096573D01*
X100439Y096596D01*
X100431Y096619D01*
X10042Y096644D01*
X100406Y09667D01*
X100388Y096696D01*
X100367Y096724D01*
X100316Y096782D01*
X100286Y096813D01*
X100706D01*
X100675Y096782D01*
D02*
G37*
G36*
X099687Y096796D02*
X099655Y096769D01*
X099602Y096716D01*
X09958Y096691D01*
X099562Y096666D01*
X099547Y096641D01*
X099535Y096617D01*
X099527Y096594D01*
X099522Y096571D01*
X09952Y096549D01*
X09942Y096557D01*
X099418Y096578D01*
X099414Y0966D01*
X099406Y096623D01*
X099396Y096648D01*
X099382Y096675D01*
X099365Y096703D01*
X099323Y096764D01*
X099297Y096798D01*
X099268Y096832D01*
X099687Y096796D01*
D02*
G37*
G36*
X103659Y085997D02*
X103651Y085988D01*
X103643Y085979D01*
X103637Y08597D01*
X103631Y085961D01*
X103626Y085952D01*
X103622Y085943D01*
X103619Y085934D01*
X103617Y085924D01*
X103616Y085915D01*
X103616Y085906D01*
X103497Y086024D01*
X103506Y086025D01*
X103516Y086026D01*
X103525Y086028D01*
X103534Y086031D01*
X103544Y086035D01*
X103553Y08604D01*
X103562Y086045D01*
X103571Y086052D01*
X10358Y086059D01*
X103588Y086068D01*
X103659Y085997D01*
D02*
G37*
G36*
X103573Y085812D02*
X103567Y085804D01*
X103562Y085796D01*
X103558Y085787D01*
X103554Y085778D01*
X103551Y085768D01*
X103549Y085758D01*
X103547Y085747D01*
X103546Y085735D01*
X103546Y085723D01*
X103446D01*
X103445Y085735D01*
X103444Y085747D01*
X103443Y085758D01*
X10344Y085768D01*
X103437Y085778D01*
X103433Y085787D01*
X103429Y085796D01*
X103424Y085804D01*
X103418Y085812D01*
X103412Y085819D01*
X10358D01*
X103573Y085812D01*
D02*
G37*
G36*
X108509Y084474D02*
X108513Y084452D01*
X108521Y084429D01*
X108532Y084405D01*
X108546Y08438D01*
X108563Y084353D01*
X108584Y084326D01*
X108634Y084269D01*
X108664Y084238D01*
X10825D01*
X10828Y084269D01*
X10833Y084326D01*
X108351Y084353D01*
X108368Y08438D01*
X108382Y084405D01*
X108393Y084429D01*
X108401Y084452D01*
X108406Y084474D01*
X108407Y084496D01*
X108507D01*
X108509Y084474D01*
D02*
G37*
G36*
X103547D02*
X103552Y084452D01*
X10356Y084429D01*
X103571Y084405D01*
X103585Y08438D01*
X103602Y084353D01*
X103622Y084326D01*
X103673Y084269D01*
X103702Y084238D01*
X103289D01*
X103319Y084269D01*
X103369Y084326D01*
X103389Y084353D01*
X103406Y08438D01*
X103421Y084405D01*
X103432Y084429D01*
X103439Y084452D01*
X103444Y084474D01*
X103446Y084496D01*
X103546D01*
X103547Y084474D01*
D02*
G37*
G36*
X100547D02*
X100552Y084452D01*
X10056Y084429D01*
X100571Y084405D01*
X100585Y08438D01*
X100602Y084353D01*
X100622Y084326D01*
X100673Y084269D01*
X100702Y084238D01*
X100289D01*
X100319Y084269D01*
X100369Y084326D01*
X100389Y084353D01*
X100407Y08438D01*
X100421Y084405D01*
X100432Y084429D01*
X100439Y084452D01*
X100444Y084474D01*
X100446Y084496D01*
X100546D01*
X100547Y084474D01*
D02*
G37*
G36*
X099547D02*
X099552Y084452D01*
X09956Y084429D01*
X099571Y084405D01*
X099585Y08438D01*
X099602Y084353D01*
X099622Y084326D01*
X099673Y084269D01*
X099702Y084238D01*
X099289D01*
X099319Y084269D01*
X099369Y084326D01*
X099389Y084353D01*
X099406Y08438D01*
X099421Y084405D01*
X099432Y084429D01*
X099439Y084452D01*
X099444Y084474D01*
X099446Y084496D01*
X099546D01*
X099547Y084474D01*
D02*
G37*
G36*
X101493Y083732D02*
X10145Y083732D01*
X101374Y083727D01*
X101341Y083722D01*
X10131Y083716D01*
X101282Y083708D01*
X101257Y083698D01*
X101235Y083687D01*
X101216Y083675D01*
X1012Y083661D01*
X101129Y083732D01*
X101143Y083748D01*
X101156Y083767D01*
X101166Y083789D01*
X101176Y083814D01*
X101184Y083842D01*
X10119Y083872D01*
X101195Y083906D01*
X1012Y083982D01*
X1012Y084025D01*
X101493Y083732D01*
D02*
G37*
G36*
X104855Y106964D02*
X104849Y106956D01*
X104845Y106947D01*
X104841Y106939D01*
X104837Y106929D01*
X104834Y106919D01*
X104832Y106909D01*
X104831Y106897D01*
X10483Y106886D01*
X10483Y106874D01*
X10473Y106865D01*
X104729Y106877D01*
X104728Y106889D01*
X104726Y1069D01*
X104724Y10691D01*
X10472Y106919D01*
X104716Y106928D01*
X104712Y106937D01*
X104706Y106944D01*
X1047Y106951D01*
X104693Y106958D01*
X104861Y106971D01*
X104855Y106964D01*
D02*
G37*
G36*
X104831Y105719D02*
X104836Y105696D01*
X104844Y105673D01*
X104855Y105649D01*
X104869Y105624D01*
X104886Y105597D01*
X104906Y10557D01*
X104956Y105513D01*
X104986Y105483D01*
X104573D01*
X104603Y105513D01*
X104653Y10557D01*
X104673Y105597D01*
X10469Y105624D01*
X104704Y105649D01*
X104715Y105673D01*
X104723Y105696D01*
X104728Y105719D01*
X10473Y10574D01*
X10483D01*
X104831Y105719D01*
D02*
G37*
G36*
X097987Y105343D02*
X097995Y105339D01*
X098004Y105335D01*
X098013Y105331D01*
X098023Y105328D01*
X098033Y105326D01*
X098043Y105324D01*
X098055Y105323D01*
X098078Y105322D01*
X098099Y105222D01*
X098086Y105221D01*
X098075Y10522D01*
X098064Y105218D01*
X098054Y105215D01*
X098045Y105212D01*
X098036Y105208D01*
X098028Y105203D01*
X098021Y105197D01*
X098015Y10519D01*
X098009Y105183D01*
X097979Y105348D01*
X097987Y105343D01*
D02*
G37*
G36*
X101569Y105065D02*
X101538Y105095D01*
X101481Y105145D01*
X101454Y105165D01*
X101428Y105182D01*
X101402Y105197D01*
X101378Y105208D01*
X101355Y105215D01*
X101333Y10522D01*
X101311Y105222D01*
Y105322D01*
X101333Y105323D01*
X101355Y105328D01*
X101378Y105336D01*
X101402Y105347D01*
X101428Y105361D01*
X101454Y105378D01*
X101481Y105398D01*
X101538Y105449D01*
X101569Y105478D01*
Y105065D01*
D02*
G37*
G36*
X104777Y104976D02*
X104734Y104976D01*
X104658Y104971D01*
X104624Y104966D01*
X104594Y10496D01*
X104566Y104952D01*
X104541Y104942D01*
X104519Y104932D01*
X1045Y104919D01*
X104484Y104905D01*
X104413Y104976D01*
X104427Y104992D01*
X104439Y105011D01*
X10445Y105033D01*
X10446Y105058D01*
X104468Y105086D01*
X104474Y105117D01*
X104479Y10515D01*
X104484Y105226D01*
X104484Y105269D01*
X104777Y104976D01*
D02*
G37*
G36*
X103777D02*
X103734Y104976D01*
X103658Y104971D01*
X103624Y104966D01*
X103594Y10496D01*
X103566Y104952D01*
X103541Y104942D01*
X103519Y104932D01*
X1035Y104919D01*
X103484Y104905D01*
X103413Y104976D01*
X103427Y104992D01*
X103439Y105011D01*
X10345Y105033D01*
X10346Y105058D01*
X103468Y105086D01*
X103474Y105117D01*
X103479Y10515D01*
X103484Y105226D01*
X103484Y105269D01*
X103777Y104976D01*
D02*
G37*
G36*
X102777D02*
X102734Y104976D01*
X102658Y104971D01*
X102624Y104966D01*
X102594Y10496D01*
X102566Y104952D01*
X102541Y104942D01*
X102519Y104932D01*
X1025Y104919D01*
X102484Y104905D01*
X102413Y104976D01*
X102427Y104992D01*
X102439Y105011D01*
X10245Y105033D01*
X10246Y105058D01*
X102468Y105086D01*
X102474Y105117D01*
X102479Y10515D01*
X102484Y105226D01*
X102484Y105269D01*
X102777Y104976D01*
D02*
G37*
G36*
X096593Y104828D02*
X0966Y104822D01*
X096608Y104817D01*
X096617Y104812D01*
X096626Y104809D01*
X096636Y104805D01*
X096646Y104803D01*
X096657Y104801D01*
X096669Y1048D01*
X096681Y1048D01*
Y1047D01*
X096669Y1047D01*
X096657Y104699D01*
X096646Y104697D01*
X096636Y104695D01*
X096626Y104691D01*
X096617Y104688D01*
X096608Y104683D01*
X0966Y104678D01*
X096593Y104672D01*
X096586Y104666D01*
Y104834D01*
X096593Y104828D01*
D02*
G37*
G36*
X105129Y10459D02*
X105119Y10459D01*
X10511Y104588D01*
X105101Y104586D01*
X105091Y104583D01*
X105082Y104579D01*
X105073Y104575D01*
X105064Y104569D01*
X105055Y104562D01*
X105046Y104555D01*
X105037Y104547D01*
X104967Y104617D01*
X104975Y104626D01*
X104982Y104635D01*
X104989Y104644D01*
X104995Y104653D01*
X104999Y104662D01*
X105003Y104671D01*
X105006Y104681D01*
X105008Y10469D01*
X10501Y104699D01*
X10501Y104709D01*
X105129Y10459D01*
D02*
G37*
G36*
X098423Y104478D02*
X09843Y104472D01*
X098438Y104467D01*
X098447Y104462D01*
X098456Y104459D01*
X098466Y104455D01*
X098476Y104453D01*
X098487Y104451D01*
X098499Y10445D01*
X098511Y10445D01*
Y10435D01*
X098499Y10435D01*
X098487Y104349D01*
X098476Y104347D01*
X098466Y104345D01*
X098456Y104341D01*
X098447Y104338D01*
X098438Y104333D01*
X09843Y104328D01*
X098423Y104322D01*
X098416Y104316D01*
Y104484D01*
X098423Y104478D01*
D02*
G37*
G36*
X097113Y104138D02*
X09712Y104132D01*
X097128Y104127D01*
X097137Y104122D01*
X097146Y104118D01*
X097156Y104115D01*
X097166Y104113D01*
X097177Y104111D01*
X097189Y10411D01*
X097201Y10411D01*
Y10401D01*
X097189Y10401D01*
X097177Y104009D01*
X097166Y104007D01*
X097156Y104005D01*
X097146Y104002D01*
X097137Y103998D01*
X097128Y103993D01*
X09712Y103988D01*
X097113Y103982D01*
X097106Y103976D01*
Y104144D01*
X097113Y104138D01*
D02*
G37*
G36*
X0955Y103849D02*
X095502Y10384D01*
X095504Y103831D01*
X095507Y103821D01*
X095511Y103812D01*
X095515Y103803D01*
X095521Y103794D01*
X095528Y103785D01*
X095535Y103776D01*
X095543Y103767D01*
X095473Y103697D01*
X095464Y103705D01*
X095455Y103712D01*
X095446Y103719D01*
X095437Y103725D01*
X095428Y103729D01*
X095419Y103733D01*
X095409Y103736D01*
X0954Y103738D01*
X095391Y10374D01*
X095381Y10374D01*
X0955Y103859D01*
X0955Y103849D01*
D02*
G37*
G36*
X09866Y11242D02*
X09866Y11084D01*
X09847Y11065D01*
X09745Y11065D01*
X09728Y11082D01*
X09728Y11244D01*
X09754Y1127D01*
X09838Y1127D01*
X09866Y11242D01*
D02*
G37*
G36*
X094941Y103732D02*
X094946Y103694D01*
X094953Y103657D01*
X094963Y103621D01*
X094975Y103586D01*
X094991Y103553D01*
X095009Y10352D01*
X095031Y103489D01*
X095055Y103459D01*
X095081Y10343D01*
Y103147D01*
X095055Y103172D01*
X095031Y10319D01*
X095009Y103201D01*
X094991Y103206D01*
X094975Y103203D01*
X094963Y103194D01*
X094953Y103178D01*
X094946Y103155D01*
X094941Y103125D01*
X09494Y103089D01*
X09474Y10353D01*
X09494Y103771D01*
X094941Y103732D01*
D02*
G37*
G36*
X096845Y08218D02*
Y08202D01*
X096755Y08193D01*
X095715D01*
X095605Y08204D01*
Y08219D01*
X095715Y0823D01*
X096725D01*
X096845Y08218D01*
D02*
G37*
G36*
X106637Y096782D02*
X106585Y096724D01*
X106565Y096696D01*
X106547Y09667D01*
X106533Y096644D01*
X106521Y096619D01*
X106513Y096596D01*
X106509Y096573D01*
X106507Y096552D01*
X106407D01*
X106405Y096573D01*
X106401Y096596D01*
X106393Y096619D01*
X106381Y096644D01*
X106367Y09667D01*
X106349Y096696D01*
X106329Y096724D01*
X106277Y096782D01*
X106247Y096813D01*
X106667D01*
X106637Y096782D01*
D02*
G37*
G36*
X106507Y095906D02*
X106508Y095894D01*
X10651Y095884D01*
X106513Y095873D01*
X106516Y095863D01*
X106519Y095854D01*
X106524Y095845D01*
X106529Y095837D01*
X106535Y09583D01*
X106541Y095823D01*
X106373D01*
X10638Y09583D01*
X106385Y095837D01*
X10639Y095845D01*
X106395Y095854D01*
X106399Y095863D01*
X106402Y095873D01*
X106404Y095884D01*
X106406Y095894D01*
X106407Y095906D01*
X106407Y095918D01*
X106507D01*
X106507Y095906D01*
D02*
G37*
G36*
X095Y11287D02*
Y11204D01*
X09482Y11186D01*
X09456D01*
X09436Y11206D01*
Y11285D01*
X09452Y11301D01*
X09486D01*
X095Y11287D01*
D02*
G37*
G36*
X094037Y096708D02*
X094044Y096667D01*
X094055Y096626D01*
X09407Y096584D01*
X09409Y096542D01*
X094114Y0965D01*
X094143Y096458D01*
X094175Y096415D01*
X094213Y096373D01*
X094254Y09633D01*
X093566D01*
X093607Y096373D01*
X093645Y096415D01*
X093677Y096458D01*
X093706Y0965D01*
X09373Y096542D01*
X09375Y096584D01*
X093765Y096626D01*
X093776Y096667D01*
X093783Y096708D01*
X093785Y096749D01*
X094035D01*
X094037Y096708D01*
D02*
G37*
G36*
X102679Y09679D02*
X102647Y096764D01*
X102593Y096714D01*
X102571Y096689D01*
X102552Y096664D01*
X102537Y09664D01*
X102525Y096617D01*
X102517Y096593D01*
X102512Y09657D01*
X10251Y096548D01*
X10241Y09656D01*
X102409Y09658D01*
X102404Y096602D01*
X102397Y096625D01*
X102386Y09665D01*
X102373Y096677D01*
X102357Y096706D01*
X102315Y096769D01*
X10229Y096804D01*
X102262Y09684D01*
X102679Y09679D01*
D02*
G37*
G36*
X10251Y095499D02*
X102511Y095487D01*
X102513Y095476D01*
X102515Y095466D01*
X102519Y095456D01*
X102522Y095447D01*
X102527Y095438D01*
X102532Y09543D01*
X102538Y095423D01*
X102544Y095416D01*
X102376D01*
X102382Y095423D01*
X102388Y09543D01*
X102393Y095438D01*
X102398Y095447D01*
X102402Y095456D01*
X102405Y095466D01*
X102407Y095476D01*
X102409Y095487D01*
X10241Y095499D01*
X10241Y095511D01*
X10251D01*
X10251Y095499D01*
D02*
G37*
G36*
X103671Y096784D02*
X103638Y096759D01*
X103584Y096711D01*
X103561Y096687D01*
X103543Y096664D01*
X103527Y09664D01*
X103515Y096617D01*
X103507Y096593D01*
X103502Y09657D01*
X1035Y096548D01*
X1034Y096563D01*
X103399Y096583D01*
X103394Y096604D01*
X103387Y096627D01*
X103377Y096653D01*
X103364Y09668D01*
X103329Y096741D01*
X103308Y096775D01*
X103256Y096848D01*
X103671Y096784D01*
D02*
G37*
G36*
X1035Y095069D02*
X103501Y095057D01*
X103503Y095046D01*
X103505Y095036D01*
X103509Y095026D01*
X103512Y095017D01*
X103517Y095008D01*
X103522Y095D01*
X103528Y094993D01*
X103534Y094986D01*
X103366D01*
X103372Y094993D01*
X103378Y095D01*
X103383Y095008D01*
X103388Y095017D01*
X103392Y095026D01*
X103395Y095036D01*
X103397Y095046D01*
X103399Y095057D01*
X1034Y095069D01*
X1034Y095081D01*
X1035D01*
X1035Y095069D01*
D02*
G37*
G36*
X097675Y096782D02*
X097624Y096724D01*
X097603Y096696D01*
X097586Y09667D01*
X097571Y096644D01*
X09756Y096619D01*
X097552Y096596D01*
X097547Y096573D01*
X097546Y096552D01*
X097446D01*
X097444Y096573D01*
X097439Y096596D01*
X097431Y096619D01*
X09742Y096644D01*
X097406Y09667D01*
X097388Y096696D01*
X097367Y096724D01*
X097316Y096782D01*
X097286Y096813D01*
X097706D01*
X097675Y096782D01*
D02*
G37*
G36*
X09693Y093559D02*
X096931Y093547D01*
X096933Y093536D01*
X096935Y093526D01*
X096938Y093516D01*
X096942Y093507D01*
X096947Y093498D01*
X096952Y09349D01*
X096958Y093483D01*
X096964Y093476D01*
X096796D01*
X096802Y093483D01*
X096808Y09349D01*
X096813Y093498D01*
X096818Y093507D01*
X096821Y093516D01*
X096825Y093526D01*
X096827Y093536D01*
X096829Y093547D01*
X09683Y093559D01*
X09683Y093571D01*
X09693D01*
X09693Y093559D01*
D02*
G37*
G36*
X112864Y085066D02*
X112857Y085072D01*
X11285Y085078D01*
X112842Y085083D01*
X112833Y085088D01*
X112824Y085091D01*
X112814Y085095D01*
X112804Y085097D01*
X112793Y085099D01*
X112781Y0851D01*
X112769Y0851D01*
Y0852D01*
X112781Y0852D01*
X112793Y085201D01*
X112804Y085203D01*
X112814Y085205D01*
X112824Y085209D01*
X112833Y085212D01*
X112842Y085217D01*
X11285Y085222D01*
X112857Y085228D01*
X112864Y085234D01*
Y085066D01*
D02*
G37*
G36*
X111509Y084474D02*
X111513Y084452D01*
X111521Y084429D01*
X111532Y084405D01*
X111546Y08438D01*
X111564Y084353D01*
X111584Y084326D01*
X111634Y084269D01*
X111664Y084238D01*
X11125D01*
X11128Y084269D01*
X11133Y084326D01*
X111351Y084353D01*
X111368Y08438D01*
X111382Y084405D01*
X111393Y084429D01*
X111401Y084452D01*
X111406Y084474D01*
X111407Y084496D01*
X111507D01*
X111509Y084474D01*
D02*
G37*
G36*
X109637Y096782D02*
X109585Y096724D01*
X109565Y096696D01*
X109547Y09667D01*
X109533Y096644D01*
X109521Y096619D01*
X109513Y096596D01*
X109509Y096573D01*
X109507Y096552D01*
X109407D01*
X109405Y096573D01*
X109401Y096596D01*
X109393Y096619D01*
X109381Y096644D01*
X109367Y09667D01*
X109349Y096696D01*
X109329Y096724D01*
X109277Y096782D01*
X109247Y096813D01*
X109667D01*
X109637Y096782D01*
D02*
G37*
G36*
X109509Y084474D02*
X109513Y084452D01*
X109521Y084429D01*
X109532Y084405D01*
X109546Y08438D01*
X109564Y084353D01*
X109584Y084326D01*
X109634Y084269D01*
X109664Y084238D01*
X10925D01*
X10928Y084269D01*
X10933Y084326D01*
X109351Y084353D01*
X109368Y08438D01*
X109382Y084405D01*
X109393Y084429D01*
X109401Y084452D01*
X109406Y084474D01*
X109407Y084496D01*
X109507D01*
X109509Y084474D01*
D02*
G37*
G36*
X104338Y098137D02*
X104332Y09813D01*
X104327Y098122D01*
X104322Y098113D01*
X104319Y098104D01*
X104315Y098094D01*
X104313Y098084D01*
X104311Y098073D01*
X10431Y098061D01*
X10431Y098049D01*
X10421D01*
X10421Y098061D01*
X104209Y098073D01*
X104207Y098084D01*
X104205Y098094D01*
X104201Y098104D01*
X104198Y098113D01*
X104193Y098122D01*
X104188Y09813D01*
X104182Y098137D01*
X104176Y098144D01*
X104344D01*
X104338Y098137D01*
D02*
G37*
G36*
X102547Y084474D02*
X102552Y084452D01*
X10256Y084429D01*
X102571Y084405D01*
X102585Y08438D01*
X102602Y084353D01*
X102622Y084326D01*
X102673Y084269D01*
X102702Y084238D01*
X102289D01*
X102319Y084269D01*
X102369Y084326D01*
X102389Y084353D01*
X102407Y08438D01*
X102421Y084405D01*
X102432Y084429D01*
X102439Y084452D01*
X102444Y084474D01*
X102446Y084496D01*
X102546D01*
X102547Y084474D01*
D02*
G37*
G36*
X117962Y07881D02*
X117952Y07881D01*
X117943Y07881D01*
X117934Y078808D01*
X117924Y078805D01*
X117915Y078802D01*
X117906Y078797D01*
X117897Y078792D01*
X117888Y078785D01*
X117879Y078778D01*
X11787Y078769D01*
X117804Y078845D01*
X117812Y078854D01*
X11782Y078862D01*
X117827Y078871D01*
X117832Y07888D01*
X117837Y078889D01*
X117842Y078899D01*
X117845Y078908D01*
X117848Y078917D01*
X117849Y078926D01*
X11785Y078936D01*
X117962Y07881D01*
D02*
G37*
G36*
X114793Y075693D02*
X114785Y075684D01*
X114778Y075675D01*
X114771Y075666D01*
X114765Y075657D01*
X114761Y075648D01*
X114757Y075639D01*
X114754Y075629D01*
X114752Y07562D01*
X11475Y075611D01*
X11475Y075601D01*
X114631Y07572D01*
X114641Y07572D01*
X11465Y075722D01*
X114659Y075724D01*
X114669Y075727D01*
X114678Y075731D01*
X114687Y075735D01*
X114696Y075741D01*
X114705Y075748D01*
X114714Y075755D01*
X114723Y075763D01*
X114793Y075693D01*
D02*
G37*
G36*
X09495Y08479D02*
X09495Y0839D01*
X0947Y08365D01*
X09322Y08365D01*
X09294Y08393D01*
X09294Y08474D01*
X09322Y08502D01*
X09472Y08502D01*
X09495Y08479D01*
D02*
G37*
G36*
X109144Y069371D02*
X109219Y069306D01*
X109241Y06929D01*
X109262Y069277D01*
X109281Y069267D01*
X109298Y06926D01*
X109314Y069256D01*
X109328Y069254D01*
X108977Y068904D01*
X108976Y068918D01*
X108972Y068934D01*
X108964Y068951D01*
X108954Y06897D01*
X108941Y06899D01*
X108926Y069012D01*
X108885Y069061D01*
X108833Y069116D01*
X109116Y069399D01*
X109144Y069371D01*
D02*
G37*
D11*
X11051Y10292D02*
X11087Y10328D01*
Y10357D01*
X11135Y10292D02*
X11223Y10204D01*
Y10109D02*
Y10204D01*
D20*
X09688Y09339D02*
Y09513D01*
X097496Y095746D01*
X09947Y08586D02*
X09999Y08534D01*
Y08366D02*
Y08534D01*
Y08366D02*
X10022Y08343D01*
X09898Y09741D02*
X09986Y09829D01*
X099496Y084028D02*
Y084734D01*
X09898Y08525D02*
X099496Y084734D01*
X09898Y08525D02*
Y09741D01*
X09947Y08586D02*
Y097002D01*
X102931Y098561D02*
X10578Y10141D01*
X101029Y098561D02*
X102931D01*
X099496Y097028D02*
X101029Y098561D01*
X100898Y08343D02*
X101496Y084028D01*
X10022Y08343D02*
X100898D01*
X097932Y105272D02*
X10178D01*
X09791Y10525D02*
X097932Y105272D01*
X0965Y10475D02*
X102258D01*
X09986Y09828D02*
Y09829D01*
X09947Y097002D02*
X099496Y097028D01*
X108356Y071236D02*
X11791Y08079D01*
X099306Y071236D02*
X108356D01*
X097496Y095746D02*
Y097028D01*
X11791Y105506D02*
X11815Y105746D01*
X11791Y105506D02*
X11791Y08079D01*
X11815Y105746D02*
Y10775D01*
X1176Y10603D02*
X11781Y10624D01*
X1176Y10603D02*
X1176Y081215D01*
X107985Y0716D02*
X1176Y081215D01*
X097086Y08132D02*
X097543D01*
X096788Y081618D02*
X097086Y08132D01*
X095502Y081618D02*
X096788D01*
X10397Y10355D02*
X10513Y10471D01*
X09538Y10386D02*
X09569Y10355D01*
X10397D01*
X10814Y1141D02*
X11243Y10981D01*
X1009Y1141D02*
X10814D01*
X10788Y1148D02*
X11249Y11019D01*
X10057Y11283D02*
X10851D01*
X10055Y11285D02*
X10057Y11283D01*
X1002Y1148D02*
X10788D01*
X10124Y11338D02*
X10841D01*
X11341Y10793D02*
X11547D01*
X10851Y11283D02*
X11341Y10793D01*
X11547D02*
X11601Y10739D01*
X11566Y10825D02*
X11633Y10758D01*
Y10072D02*
Y10758D01*
X11542Y09981D02*
X11633Y10072D01*
X11601Y10112D02*
Y10739D01*
X11471Y09982D02*
X11601Y10112D01*
X11354Y10825D02*
X11566D01*
X10841Y11338D02*
X11354Y10825D01*
X11243Y10981D02*
X11459D01*
X11484Y11019D02*
X11531Y10972D01*
X11249Y11019D02*
X11484D01*
X11531Y10972D02*
X11534D01*
X11307Y11176D02*
X11643D01*
X11305Y11178D02*
X11307Y11176D01*
X116815Y110535D02*
X11786Y11158D01*
X114515Y110535D02*
X116815D01*
X11459Y10981D02*
X11482Y10958D01*
X11796Y07893D02*
X11797D01*
X11463Y0756D02*
X11796Y07893D01*
X116653Y093863D02*
Y107817D01*
X11594Y10853D02*
X116653Y107817D01*
X11443Y10853D02*
X11594D01*
X11441Y10851D02*
X11443Y10853D01*
X116101Y10885D02*
X116985Y107965D01*
X11423Y10885D02*
X116101D01*
X11395Y10913D02*
X11423Y10885D01*
X11435Y10915D02*
X11627D01*
X11407Y10943D02*
X11435Y10915D01*
X11627D02*
X11729Y10813D01*
X11394Y10913D02*
X11395D01*
X11729Y10813D02*
X11729Y09328D01*
X11491Y0909D02*
X11729Y09328D01*
X11433Y08276D02*
Y09104D01*
X11195Y08038D02*
X11433Y08276D01*
X09519Y08038D02*
X11195D01*
X11491Y08232D02*
Y0909D01*
X1121Y07951D02*
X11491Y08232D01*
X09632Y07951D02*
X1121D01*
X11391Y09112D02*
X116653Y093863D01*
X11391Y08324D02*
Y09112D01*
X11139Y08072D02*
X11391Y08324D01*
X11433Y09104D02*
X116985Y093695D01*
Y107965D01*
X11643Y10947D02*
X11815Y10775D01*
X116Y10947D02*
X11643D01*
X10414Y0716D02*
X107985D01*
X09432Y07951D02*
X09519Y08038D01*
X09453Y08072D02*
X11139D01*
X09332Y07951D02*
X09453Y08072D01*
X10795Y1036D02*
X10887D01*
X1077Y10335D02*
X10795Y1036D01*
X10704Y10335D02*
X1077D01*
X11033Y10394D02*
X11039Y10388D01*
X10745Y10394D02*
X11033D01*
X10734Y10383D02*
X10745Y10394D01*
X11039Y10388D02*
Y10393D01*
X11367Y10654D02*
X11374D01*
X11365Y10652D02*
X11367Y10654D01*
X1136Y10947D02*
X11394Y10913D01*
X1136Y10947D02*
Y10948D01*
X11256Y10652D02*
X11365D01*
X113Y11323D02*
X11341Y11282D01*
X11453D01*
X11249Y11302D02*
X11302Y11249D01*
X1151D01*
X112Y11272D02*
X11259Y11213D01*
X11577D01*
X11206Y10602D02*
X11256Y10652D01*
X10879Y10602D02*
X11206D01*
X10534Y09753D02*
X10667Y09886D01*
X10726Y10421D02*
X10818D01*
X10868Y10471D02*
Y1049D01*
X10818Y10421D02*
X10868Y10471D01*
X10812Y1059D02*
X10834Y10568D01*
Y10473D02*
Y10568D01*
X10807Y10446D02*
X10834Y10473D01*
X10812Y1059D02*
Y10664D01*
X10881Y11473D02*
X10942Y11534D01*
X11501D01*
X10817Y116D02*
X1122D01*
X10278Y11636D02*
X112D01*
X10321Y11673D02*
X11168D01*
X10211Y11698D02*
X11077D01*
X11725Y11258D02*
X11786D01*
X11643Y11176D02*
X11725Y11258D01*
X10778Y10492D02*
Y105272D01*
X107555Y104695D02*
X10778Y10492D01*
X10534Y09753D02*
X10541D01*
X10577Y09729D02*
X10692Y09844D01*
X10577Y087655D02*
Y09729D01*
Y087655D02*
X108457Y084968D01*
X10692Y09844D02*
Y09863D01*
X10667Y09886D02*
Y10362D01*
X10643Y09926D02*
Y10393D01*
X10534Y09817D02*
X10643Y09926D01*
X10534Y09815D02*
Y09817D01*
X10667Y10362D02*
X10726Y10421D01*
X10643Y10393D02*
X10696Y10446D01*
X10614Y1041D02*
X106735Y104695D01*
X10614Y10094D02*
Y1041D01*
X10485Y09965D02*
X10614Y10094D01*
X10696Y10446D02*
X10807D01*
X106735Y104695D02*
X107555D01*
X10426Y09405D02*
Y09823D01*
X102496Y092286D02*
X10426Y09405D01*
X10485Y087259D02*
Y09965D01*
X103496Y085904D02*
X10485Y087259D01*
X102496Y084028D02*
Y092286D01*
X10578Y10141D02*
Y105272D01*
X108457Y097028D02*
Y097353D01*
X10777Y1156D02*
X10817Y116D01*
X1122D02*
X113Y1168D01*
X102258Y10475D02*
X10278Y105272D01*
X102908Y1044D02*
X10378Y105272D01*
X09833Y1044D02*
X102908D01*
X103568Y10406D02*
X10478Y105272D01*
X09702Y10406D02*
X103568D01*
X10578Y11794D02*
Y118272D01*
X10523Y11739D02*
X10578Y11794D01*
X10237Y11739D02*
X10523D01*
X11077Y11698D02*
X111Y11721D01*
X10178Y11731D02*
X10211Y11698D01*
X10178Y11731D02*
Y118272D01*
X11222Y11727D02*
X11354D01*
X11168Y11673D02*
X11222Y11727D01*
X112Y11636D02*
X11249Y11685D01*
X10477Y10705D02*
X10478Y10704D01*
Y105272D02*
Y10704D01*
X108457Y084028D02*
Y084968D01*
X100496Y084028D02*
Y097028D01*
X109457Y084028D02*
Y097028D01*
X111457Y084028D02*
Y084587D01*
X11202Y08515D01*
X11295D01*
X103496Y084028D02*
Y085904D01*
X10345Y096982D02*
X103496Y097028D01*
X10345Y0949D02*
Y096982D01*
X10246Y096992D02*
X102496Y097028D01*
X10246Y09533D02*
Y096992D01*
X106457Y095737D02*
Y097028D01*
D33*
X1175Y06705D02*
D03*
X092Y067D02*
D03*
X09205Y1218D02*
D03*
X1175Y12175D02*
D03*
D71*
X09468Y11092D02*
Y11238D01*
X09391Y11015D02*
X09468Y11092D01*
X09391Y095978D02*
Y11015D01*
X09468Y11238D02*
Y11284D01*
X11095Y11268D02*
Y113185D01*
X111645Y11388D01*
X11522D01*
X11552Y11358D01*
X11786D01*
D72*
X09767Y11101D02*
Y11122D01*
X09708Y11042D02*
X09767Y11101D01*
X09708Y10721D02*
Y11042D01*
X09484Y10497D02*
X09708Y10721D01*
X09563Y10074D02*
Y10182D01*
X09484Y10261D02*
X09563Y10182D01*
X09484Y10261D02*
Y10353D01*
X09562Y10275D02*
X09889D01*
X09484Y10353D02*
X09562Y10275D01*
X09484Y10353D02*
Y10497D01*
X09563Y10074D02*
X09563Y08526D01*
Y08262D02*
Y08526D01*
Y08262D02*
X09613Y08212D01*
X09889Y10275D02*
X10191D01*
X10253Y10213D01*
X10927Y10534D02*
X11252D01*
X11255Y10531D01*
X11051Y10292D02*
X11135D01*
X10752D02*
X11051D01*
X11255Y10412D02*
Y10531D01*
X11135Y10292D02*
X11255Y10412D01*
X09547Y07546D02*
X09549Y07548D01*
D73*
X09178Y07466D02*
Y08387D01*
X0924Y11665D02*
X094065Y118315D01*
X0924Y11665D02*
X0924Y08957D01*
X09177Y08894D02*
X0924Y08957D01*
X09177Y08387D02*
Y08894D01*
X094065Y118315D02*
X097655D01*
X098588Y119248D01*
Y1198D01*
X104421Y068791D02*
Y0689D01*
X10367Y06804D02*
X104421Y068791D01*
X10268Y06804D02*
X10367D01*
X09796D02*
X09889D01*
X098527Y068403D02*
X09889Y06804D01*
X098527Y068403D02*
Y0689D01*
X097543Y068457D02*
X09796Y06804D01*
X097543Y068457D02*
Y0689D01*
X09889Y06804D02*
X10268D01*
X103437Y068797D02*
Y0689D01*
X10268Y06804D02*
X103437Y068797D01*
X091783Y07466D02*
X097543Y0689D01*
X09178Y07466D02*
X091783D01*
X11146Y11895D02*
X11265D01*
X10871D02*
X11146D01*
X112042Y119532D02*
Y119833D01*
X11146Y11895D02*
X112042Y119532D01*
X113026Y119326D02*
Y119833D01*
X11265Y11895D02*
X113026Y119326D01*
X099572Y1198D02*
X10786D01*
X098588D02*
X099572D01*
X10786D02*
X10871Y11895D01*
D74*
X09391Y095978D02*
D03*
Y088102D02*
D03*
D75*
X113026Y119833D02*
D03*
X112042D02*
D03*
X111058D02*
D03*
X110074D02*
D03*
X099572Y1198D02*
D03*
X098588D02*
D03*
X097604D02*
D03*
X096619D02*
D03*
X103437Y0689D02*
D03*
X104421D02*
D03*
X105406D02*
D03*
X10639D02*
D03*
X097543D02*
D03*
X098527D02*
D03*
X099511D02*
D03*
X100496D02*
D03*
X112284Y0689D02*
D03*
X1113D02*
D03*
X110316D02*
D03*
X109331D02*
D03*
D76*
X09332Y07651D02*
D03*
X09432D02*
D03*
X09532D02*
D03*
X09632D02*
D03*
X09332Y07951D02*
D03*
X09432D02*
D03*
X09532D02*
D03*
D77*
X09632D02*
D03*
D78*
X11612Y073295D02*
D03*
Y071535D02*
D03*
X11357Y071525D02*
D03*
X11356Y073295D02*
D03*
D79*
X11053Y10731D02*
D03*
Y109279D02*
D03*
D80*
X11786Y11732D02*
D03*
Y11358D02*
D03*
D81*
Y11632D02*
D03*
Y11532D02*
D03*
Y11058D02*
D03*
Y11158D02*
D03*
Y11258D02*
D03*
D82*
X10178Y118272D02*
D03*
X10278D02*
D03*
X10378D02*
D03*
X10478D02*
D03*
X10578D02*
D03*
X10678D02*
D03*
X10778D02*
D03*
X097496Y097028D02*
D03*
X098496D02*
D03*
X099496D02*
D03*
X100496D02*
D03*
X101496D02*
D03*
X102496D02*
D03*
X103496D02*
D03*
X106457D02*
D03*
X107457D02*
D03*
X108457D02*
D03*
X109457D02*
D03*
X110457D02*
D03*
X111457D02*
D03*
X112457D02*
D03*
D83*
X10778Y105272D02*
D03*
X10678D02*
D03*
X10578D02*
D03*
X10478D02*
D03*
X10378D02*
D03*
X10278D02*
D03*
X10178D02*
D03*
X103496Y084028D02*
D03*
X102496D02*
D03*
X101496D02*
D03*
X100496D02*
D03*
X099496D02*
D03*
X098496D02*
D03*
X097496D02*
D03*
X112457D02*
D03*
X111457D02*
D03*
X110457D02*
D03*
X109457D02*
D03*
X108457D02*
D03*
X107457D02*
D03*
X106457D02*
D03*
D84*
X105976Y076827D02*
D03*
X103976D02*
D03*
D85*
X118Y1184D02*
D03*
X1176Y1144D02*
D03*
X118Y0784D02*
D03*
Y0768D02*
D03*
Y0752D02*
D03*
Y0736D02*
D03*
Y072D02*
D03*
Y0704D02*
D03*
X1176Y0696D02*
D03*
X1172Y1184D02*
D03*
X1168Y1176D02*
D03*
X1172Y1168D02*
D03*
X1168Y116D02*
D03*
Y1144D02*
D03*
Y1128D02*
D03*
Y0904D02*
D03*
Y0888D02*
D03*
Y0872D02*
D03*
Y0856D02*
D03*
Y084D02*
D03*
Y0824D02*
D03*
Y0792D02*
D03*
Y076D02*
D03*
Y0744D02*
D03*
Y0728D02*
D03*
Y0696D02*
D03*
X1164Y1184D02*
D03*
X116Y1176D02*
D03*
X1164Y1168D02*
D03*
Y1152D02*
D03*
X116Y0984D02*
D03*
X1164Y0848D02*
D03*
X116Y084D02*
D03*
X1164Y0832D02*
D03*
X116Y0824D02*
D03*
X1164Y0816D02*
D03*
X116Y0808D02*
D03*
X1164Y0784D02*
D03*
X116Y0776D02*
D03*
X1164Y0768D02*
D03*
X116Y076D02*
D03*
X1164Y0752D02*
D03*
X116Y0696D02*
D03*
X1156Y1184D02*
D03*
X1152Y1176D02*
D03*
X1156Y1072D02*
D03*
Y0992D02*
D03*
X1152Y0984D02*
D03*
X1156Y0976D02*
D03*
Y0896D02*
D03*
Y088D02*
D03*
Y0864D02*
D03*
Y0832D02*
D03*
Y0816D02*
D03*
X1152Y0808D02*
D03*
X1156Y08D02*
D03*
X1152Y0776D02*
D03*
X1156Y0736D02*
D03*
X1152Y0712D02*
D03*
Y0696D02*
D03*
X1148Y1184D02*
D03*
X1144Y1176D02*
D03*
X1148Y1168D02*
D03*
X1144Y116D02*
D03*
X1148Y1072D02*
D03*
Y0992D02*
D03*
X1144Y0968D02*
D03*
Y0952D02*
D03*
Y0936D02*
D03*
Y0824D02*
D03*
X1148Y0816D02*
D03*
X1144Y0808D02*
D03*
X1148Y08D02*
D03*
X1144Y0792D02*
D03*
X1148Y0768D02*
D03*
X1144Y076D02*
D03*
X1148Y0736D02*
D03*
X1144Y0728D02*
D03*
X1148Y072D02*
D03*
X1144Y0712D02*
D03*
Y0696D02*
D03*
X1136Y1208D02*
D03*
Y1192D02*
D03*
X114Y1184D02*
D03*
Y1168D02*
D03*
Y1072D02*
D03*
X1136Y1D02*
D03*
Y0984D02*
D03*
X114Y0976D02*
D03*
X1136Y0968D02*
D03*
X114Y096D02*
D03*
X1136Y0952D02*
D03*
X114Y0944D02*
D03*
X1136Y0936D02*
D03*
X114Y0928D02*
D03*
X1136Y092D02*
D03*
Y0904D02*
D03*
Y0888D02*
D03*
Y0872D02*
D03*
Y0856D02*
D03*
Y084D02*
D03*
X114Y08D02*
D03*
X1136Y0792D02*
D03*
X114Y0784D02*
D03*
X1136Y076D02*
D03*
X114Y072D02*
D03*
X1136Y0664D02*
D03*
X1132Y1216D02*
D03*
X1128Y1208D02*
D03*
X1132Y1184D02*
D03*
X1128Y1176D02*
D03*
X1132Y1008D02*
D03*
X1128Y1D02*
D03*
X1132Y0992D02*
D03*
Y0848D02*
D03*
Y0832D02*
D03*
X1128Y0808D02*
D03*
X1132Y08D02*
D03*
X1128Y0792D02*
D03*
X1132Y0784D02*
D03*
X1128Y0776D02*
D03*
Y0744D02*
D03*
Y0728D02*
D03*
X1132Y072D02*
D03*
X1128Y0712D02*
D03*
X1132Y0704D02*
D03*
X1128Y0696D02*
D03*
Y0664D02*
D03*
X1124Y1216D02*
D03*
X112Y1208D02*
D03*
X1124Y1184D02*
D03*
X112Y1D02*
D03*
Y0984D02*
D03*
X1124Y0976D02*
D03*
Y0944D02*
D03*
X112Y0936D02*
D03*
X1124Y0928D02*
D03*
X112Y092D02*
D03*
X1124Y0912D02*
D03*
X112Y0904D02*
D03*
X1124Y0896D02*
D03*
X112Y0888D02*
D03*
X1124Y088D02*
D03*
X112Y0872D02*
D03*
X1124Y0864D02*
D03*
X112Y0856D02*
D03*
X1124Y0848D02*
D03*
Y0832D02*
D03*
X112Y0824D02*
D03*
Y0792D02*
D03*
X1124Y0784D02*
D03*
X112Y0776D02*
D03*
X1124Y0768D02*
D03*
X112Y0744D02*
D03*
X1124Y0736D02*
D03*
X112Y0728D02*
D03*
Y0712D02*
D03*
Y0696D02*
D03*
Y068D02*
D03*
Y0664D02*
D03*
X1116Y1216D02*
D03*
Y1184D02*
D03*
X1112Y1176D02*
D03*
Y1096D02*
D03*
Y1D02*
D03*
Y0984D02*
D03*
X1116Y0976D02*
D03*
Y0944D02*
D03*
X1112Y0936D02*
D03*
X1116Y0928D02*
D03*
X1112Y092D02*
D03*
X1116Y0912D02*
D03*
X1112Y0904D02*
D03*
X1116Y0896D02*
D03*
X1112Y0888D02*
D03*
X1116Y088D02*
D03*
X1112Y0872D02*
D03*
X1116Y0864D02*
D03*
Y0832D02*
D03*
X1112Y0824D02*
D03*
X1116Y0816D02*
D03*
Y08D02*
D03*
X1112Y0792D02*
D03*
X1116Y0784D02*
D03*
X1112Y0776D02*
D03*
X1116Y0768D02*
D03*
X1112Y076D02*
D03*
X1116Y0736D02*
D03*
X1112Y0712D02*
D03*
Y068D02*
D03*
Y0664D02*
D03*
X1104Y1208D02*
D03*
Y1128D02*
D03*
Y108D02*
D03*
Y1064D02*
D03*
X1108Y0992D02*
D03*
Y0976D02*
D03*
Y096D02*
D03*
Y0944D02*
D03*
X1104Y0936D02*
D03*
X1108Y0928D02*
D03*
X1104Y092D02*
D03*
X1108Y0912D02*
D03*
X1104Y0904D02*
D03*
X1108Y0896D02*
D03*
X1104Y0888D02*
D03*
X1108Y088D02*
D03*
X1104Y0872D02*
D03*
X1108Y0864D02*
D03*
X1104Y0856D02*
D03*
X1108Y0848D02*
D03*
Y0832D02*
D03*
X1104Y0824D02*
D03*
X1108Y0816D02*
D03*
Y0784D02*
D03*
X1104Y0776D02*
D03*
X1108Y0768D02*
D03*
X1104Y076D02*
D03*
Y0728D02*
D03*
Y0712D02*
D03*
Y068D02*
D03*
Y0664D02*
D03*
X11Y1216D02*
D03*
X1096Y1208D02*
D03*
Y1144D02*
D03*
X11Y1136D02*
D03*
Y1104D02*
D03*
Y1088D02*
D03*
X1096Y1048D02*
D03*
Y0984D02*
D03*
X11Y0976D02*
D03*
Y096D02*
D03*
Y0944D02*
D03*
Y0928D02*
D03*
Y0912D02*
D03*
Y0896D02*
D03*
Y088D02*
D03*
Y0864D02*
D03*
Y0832D02*
D03*
X1096Y0824D02*
D03*
X11Y0816D02*
D03*
Y08D02*
D03*
Y0784D02*
D03*
X1096Y0776D02*
D03*
X11Y0768D02*
D03*
X1096Y076D02*
D03*
Y0744D02*
D03*
Y0712D02*
D03*
Y0696D02*
D03*
Y068D02*
D03*
Y0664D02*
D03*
X1092Y12D02*
D03*
Y0992D02*
D03*
X1088Y0984D02*
D03*
Y0936D02*
D03*
Y092D02*
D03*
Y0904D02*
D03*
Y0888D02*
D03*
Y0872D02*
D03*
Y0856D02*
D03*
X1092Y0832D02*
D03*
X1088Y0824D02*
D03*
X1092Y0816D02*
D03*
Y08D02*
D03*
X1088Y0792D02*
D03*
X1092Y0768D02*
D03*
X1088Y076D02*
D03*
Y0744D02*
D03*
Y0712D02*
D03*
Y068D02*
D03*
Y0664D02*
D03*
X1084Y096D02*
D03*
Y0944D02*
D03*
X108Y0936D02*
D03*
X1084Y0928D02*
D03*
X108Y092D02*
D03*
X1084Y0912D02*
D03*
X108Y0904D02*
D03*
X1084Y0896D02*
D03*
X108Y0888D02*
D03*
X1084Y088D02*
D03*
X108Y0872D02*
D03*
X1084Y0864D02*
D03*
Y0832D02*
D03*
X108Y0824D02*
D03*
X1084Y0816D02*
D03*
Y08D02*
D03*
X108Y0792D02*
D03*
X1084Y0784D02*
D03*
Y0768D02*
D03*
X108Y076D02*
D03*
Y0744D02*
D03*
X1084Y0688D02*
D03*
X108Y0664D02*
D03*
X1072Y116D02*
D03*
Y1144D02*
D03*
Y1112D02*
D03*
Y1096D02*
D03*
Y108D02*
D03*
Y1064D02*
D03*
Y1016D02*
D03*
X1076Y0992D02*
D03*
Y0976D02*
D03*
Y0944D02*
D03*
X1072Y0936D02*
D03*
X1076Y0928D02*
D03*
X1072Y092D02*
D03*
X1076Y0912D02*
D03*
X1072Y0904D02*
D03*
X1076Y0896D02*
D03*
X1072Y0888D02*
D03*
X1076Y088D02*
D03*
X1072Y0872D02*
D03*
X1076Y0864D02*
D03*
X1072Y0856D02*
D03*
X1076Y0832D02*
D03*
X1072Y0824D02*
D03*
X1076Y0816D02*
D03*
Y08D02*
D03*
X1072Y0792D02*
D03*
X1076Y0784D02*
D03*
X1072Y0776D02*
D03*
Y076D02*
D03*
Y0744D02*
D03*
X1076Y072D02*
D03*
X1072Y0696D02*
D03*
Y068D02*
D03*
Y0664D02*
D03*
X1064Y1176D02*
D03*
Y116D02*
D03*
X1068Y1152D02*
D03*
X1064Y1144D02*
D03*
X1068Y112D02*
D03*
X1064Y1112D02*
D03*
X1068Y1104D02*
D03*
X1064Y1096D02*
D03*
X1068Y1088D02*
D03*
X1064Y108D02*
D03*
X1068Y1072D02*
D03*
X1064Y1064D02*
D03*
X1068Y0944D02*
D03*
X1064Y0936D02*
D03*
X1068Y0928D02*
D03*
X1064Y092D02*
D03*
X1068Y0912D02*
D03*
X1064Y0904D02*
D03*
X1068Y0896D02*
D03*
X1064Y0888D02*
D03*
X1068Y088D02*
D03*
X1064Y0856D02*
D03*
X1068Y0832D02*
D03*
X1064Y0824D02*
D03*
X1068Y0816D02*
D03*
Y08D02*
D03*
X1064Y0792D02*
D03*
X1068Y0784D02*
D03*
X1064Y0776D02*
D03*
Y076D02*
D03*
Y0744D02*
D03*
X1068Y072D02*
D03*
X1064Y068D02*
D03*
Y0664D02*
D03*
X1056Y116D02*
D03*
X106Y1152D02*
D03*
X1056Y1144D02*
D03*
X106Y112D02*
D03*
X1056Y1112D02*
D03*
X106Y1104D02*
D03*
X1056Y1096D02*
D03*
X106Y1088D02*
D03*
X1056Y108D02*
D03*
X106Y1072D02*
D03*
X1056Y0872D02*
D03*
X106Y0864D02*
D03*
X1056Y0856D02*
D03*
Y0824D02*
D03*
X106Y0816D02*
D03*
Y08D02*
D03*
X1056Y0792D02*
D03*
X106Y0784D02*
D03*
X1056Y0776D02*
D03*
Y076D02*
D03*
Y0744D02*
D03*
X106Y072D02*
D03*
X1056Y068D02*
D03*
Y0664D02*
D03*
X1052Y1216D02*
D03*
X1048Y1208D02*
D03*
X1052Y1152D02*
D03*
Y112D02*
D03*
Y1104D02*
D03*
Y1088D02*
D03*
Y1072D02*
D03*
X1048Y1016D02*
D03*
X1052Y0944D02*
D03*
Y0928D02*
D03*
Y0912D02*
D03*
Y0896D02*
D03*
Y088D02*
D03*
Y0864D02*
D03*
X1048Y0856D02*
D03*
Y0824D02*
D03*
X1052Y0816D02*
D03*
Y08D02*
D03*
X1048Y0792D02*
D03*
X1052Y0784D02*
D03*
X1048Y0776D02*
D03*
X1052Y0768D02*
D03*
X1048Y076D02*
D03*
Y0744D02*
D03*
X1052Y072D02*
D03*
X1048Y0696D02*
D03*
Y068D02*
D03*
Y0664D02*
D03*
X1044Y1216D02*
D03*
Y1152D02*
D03*
Y112D02*
D03*
Y1104D02*
D03*
Y1088D02*
D03*
Y1072D02*
D03*
Y0928D02*
D03*
X104Y092D02*
D03*
X1044Y0912D02*
D03*
X104Y0904D02*
D03*
X1044Y0896D02*
D03*
X104Y0888D02*
D03*
X1044Y088D02*
D03*
X104Y0872D02*
D03*
Y0856D02*
D03*
Y0824D02*
D03*
X1044Y0816D02*
D03*
Y08D02*
D03*
Y0784D02*
D03*
X104Y076D02*
D03*
Y0744D02*
D03*
X1044Y072D02*
D03*
X104Y0696D02*
D03*
Y0664D02*
D03*
X1032Y1016D02*
D03*
Y1D02*
D03*
X1036Y0944D02*
D03*
X1032Y0936D02*
D03*
X1036Y0928D02*
D03*
X1032Y092D02*
D03*
X1036Y0912D02*
D03*
X1032Y0904D02*
D03*
X1036Y0896D02*
D03*
X1032Y0888D02*
D03*
X1036Y088D02*
D03*
X1032Y0872D02*
D03*
Y0824D02*
D03*
X1036Y08D02*
D03*
X1032Y0792D02*
D03*
X1036Y0784D02*
D03*
X1032Y0776D02*
D03*
Y076D02*
D03*
Y0744D02*
D03*
X1036Y072D02*
D03*
X1032Y0696D02*
D03*
Y0664D02*
D03*
X1028Y0944D02*
D03*
X1024Y0936D02*
D03*
X1028Y0912D02*
D03*
Y0896D02*
D03*
Y088D02*
D03*
Y0864D02*
D03*
Y0816D02*
D03*
Y08D02*
D03*
X1024Y0792D02*
D03*
X1028Y0784D02*
D03*
X1024Y0776D02*
D03*
X1028Y0768D02*
D03*
X1024Y076D02*
D03*
Y0744D02*
D03*
X1028Y072D02*
D03*
X1024Y0696D02*
D03*
X1028Y0688D02*
D03*
X1024Y0664D02*
D03*
X1016Y0952D02*
D03*
X102Y0944D02*
D03*
X1016Y0936D02*
D03*
X102Y0928D02*
D03*
X1016Y092D02*
D03*
X102Y0912D02*
D03*
X1016Y0904D02*
D03*
X102Y0896D02*
D03*
X1016Y0888D02*
D03*
X102Y088D02*
D03*
X1016Y0872D02*
D03*
X102Y0864D02*
D03*
X1016Y0856D02*
D03*
X102Y0816D02*
D03*
Y08D02*
D03*
X1016Y0792D02*
D03*
X102Y0784D02*
D03*
X1016Y0776D02*
D03*
X102Y0768D02*
D03*
X1016Y076D02*
D03*
Y0744D02*
D03*
X102Y072D02*
D03*
Y0672D02*
D03*
X1016Y0664D02*
D03*
X1012Y112D02*
D03*
X1008Y1112D02*
D03*
X1012Y1104D02*
D03*
X1008Y1096D02*
D03*
X1012Y1088D02*
D03*
X1008Y108D02*
D03*
Y0952D02*
D03*
X1012Y0944D02*
D03*
X1008Y0936D02*
D03*
X1012Y0928D02*
D03*
X1008Y092D02*
D03*
X1012Y0912D02*
D03*
X1008Y0904D02*
D03*
X1012Y0896D02*
D03*
X1008Y0888D02*
D03*
X1012Y088D02*
D03*
X1008Y0872D02*
D03*
X1012Y0864D02*
D03*
X1008Y0856D02*
D03*
X1012Y0848D02*
D03*
Y0816D02*
D03*
Y08D02*
D03*
X1008Y0792D02*
D03*
X1012Y0784D02*
D03*
X1008Y0776D02*
D03*
X1012Y0768D02*
D03*
X1008Y076D02*
D03*
Y0744D02*
D03*
X1012Y072D02*
D03*
Y0688D02*
D03*
Y0672D02*
D03*
X1008Y0664D02*
D03*
X1Y1208D02*
D03*
Y1144D02*
D03*
Y1128D02*
D03*
X1004Y112D02*
D03*
Y1104D02*
D03*
X1Y1096D02*
D03*
X1004Y1088D02*
D03*
X1Y108D02*
D03*
X1004Y1072D02*
D03*
X1Y1064D02*
D03*
Y0968D02*
D03*
Y0952D02*
D03*
Y0936D02*
D03*
Y092D02*
D03*
Y0904D02*
D03*
Y0888D02*
D03*
Y0872D02*
D03*
X1004Y0816D02*
D03*
Y08D02*
D03*
X1Y0792D02*
D03*
X1004Y0784D02*
D03*
X1Y0776D02*
D03*
X1004Y0768D02*
D03*
X1Y076D02*
D03*
Y0744D02*
D03*
X1004Y072D02*
D03*
X1Y0696D02*
D03*
X1004Y0672D02*
D03*
X1Y0664D02*
D03*
X0992Y1208D02*
D03*
Y1192D02*
D03*
X0996Y1184D02*
D03*
X0992Y1176D02*
D03*
X0996Y1168D02*
D03*
X0992Y116D02*
D03*
X0996Y1152D02*
D03*
X0992Y1144D02*
D03*
X0996Y1136D02*
D03*
Y1104D02*
D03*
X0992Y1096D02*
D03*
X0996Y1088D02*
D03*
X0992Y108D02*
D03*
X0996Y1072D02*
D03*
X0992Y1064D02*
D03*
Y0984D02*
D03*
X0996Y0976D02*
D03*
Y0816D02*
D03*
Y08D02*
D03*
X0992Y0792D02*
D03*
X0996Y0784D02*
D03*
X0992Y0776D02*
D03*
X0996Y0768D02*
D03*
X0992Y076D02*
D03*
Y0744D02*
D03*
X0996Y072D02*
D03*
Y0672D02*
D03*
X0992Y0664D02*
D03*
X0988Y1184D02*
D03*
X0984Y1176D02*
D03*
X0988Y1168D02*
D03*
Y1152D02*
D03*
Y1136D02*
D03*
X0984Y108D02*
D03*
X0988Y1072D02*
D03*
X0984Y1064D02*
D03*
X0988Y0992D02*
D03*
X0984Y0952D02*
D03*
X0988Y0848D02*
D03*
Y0816D02*
D03*
Y08D02*
D03*
Y0784D02*
D03*
Y0768D02*
D03*
X0984Y076D02*
D03*
Y0744D02*
D03*
Y0712D02*
D03*
Y0696D02*
D03*
X0988Y0672D02*
D03*
X0984Y0664D02*
D03*
X098Y1216D02*
D03*
X0976Y1192D02*
D03*
Y1176D02*
D03*
X098Y1104D02*
D03*
X0976Y1096D02*
D03*
X098Y1088D02*
D03*
X0976Y108D02*
D03*
X098Y1072D02*
D03*
X0976Y1064D02*
D03*
Y1032D02*
D03*
X098Y0992D02*
D03*
X0976Y0984D02*
D03*
X098Y0976D02*
D03*
X0976Y0792D02*
D03*
X098Y0768D02*
D03*
Y0736D02*
D03*
X0976Y0696D02*
D03*
X098Y0672D02*
D03*
X0976Y0664D02*
D03*
X0972Y1216D02*
D03*
X0968Y1208D02*
D03*
Y1192D02*
D03*
Y1176D02*
D03*
X0972Y1136D02*
D03*
X0968Y1128D02*
D03*
Y1112D02*
D03*
Y1064D02*
D03*
Y1032D02*
D03*
X0972Y0992D02*
D03*
X0968Y0984D02*
D03*
X0972Y0976D02*
D03*
X0968Y0968D02*
D03*
Y092D02*
D03*
Y0904D02*
D03*
Y0888D02*
D03*
Y0872D02*
D03*
Y0856D02*
D03*
Y084D02*
D03*
X0972Y0832D02*
D03*
Y08D02*
D03*
X0968Y0776D02*
D03*
Y076D02*
D03*
X0972Y0736D02*
D03*
X0968Y068D02*
D03*
X0972Y0672D02*
D03*
X0968Y0664D02*
D03*
X0964Y1216D02*
D03*
X096Y1208D02*
D03*
Y1192D02*
D03*
Y1176D02*
D03*
X0964Y1136D02*
D03*
Y1104D02*
D03*
X096Y1096D02*
D03*
X0964Y1088D02*
D03*
X096Y108D02*
D03*
X0964Y1072D02*
D03*
X096Y1032D02*
D03*
X0964Y0992D02*
D03*
X096Y0984D02*
D03*
X0964Y0976D02*
D03*
Y0944D02*
D03*
X096Y0936D02*
D03*
X0964Y0928D02*
D03*
X096Y092D02*
D03*
X0964Y0912D02*
D03*
X096Y0904D02*
D03*
X0964Y0896D02*
D03*
X096Y0888D02*
D03*
X0964Y088D02*
D03*
X096Y0872D02*
D03*
X0964Y0864D02*
D03*
X096Y0856D02*
D03*
X0964Y0848D02*
D03*
X096Y084D02*
D03*
X0964Y0832D02*
D03*
Y0784D02*
D03*
X096Y0776D02*
D03*
Y0744D02*
D03*
X0964Y0736D02*
D03*
X096Y0728D02*
D03*
Y0696D02*
D03*
X0964Y0688D02*
D03*
X096Y068D02*
D03*
X0964Y0672D02*
D03*
X096Y0664D02*
D03*
X0956Y1216D02*
D03*
Y12D02*
D03*
X0952Y1192D02*
D03*
Y1176D02*
D03*
Y108D02*
D03*
X0956Y1072D02*
D03*
X0952Y1064D02*
D03*
Y0984D02*
D03*
Y0952D02*
D03*
Y0936D02*
D03*
Y092D02*
D03*
Y0904D02*
D03*
Y0888D02*
D03*
Y0856D02*
D03*
Y084D02*
D03*
Y0696D02*
D03*
X0956Y0688D02*
D03*
Y0672D02*
D03*
X0944Y1176D02*
D03*
X0948Y1168D02*
D03*
X0944Y116D02*
D03*
X0948Y1152D02*
D03*
X0944Y1096D02*
D03*
X0948Y1088D02*
D03*
X0944Y108D02*
D03*
X0948Y1072D02*
D03*
X0944Y1064D02*
D03*
X0948Y0992D02*
D03*
Y096D02*
D03*
X0944Y0952D02*
D03*
X0948Y0944D02*
D03*
X0944Y0936D02*
D03*
X0948Y0928D02*
D03*
X0944Y092D02*
D03*
X0948Y0912D02*
D03*
X0944Y0904D02*
D03*
X0948Y0896D02*
D03*
Y0832D02*
D03*
X0944Y0712D02*
D03*
X0948Y0704D02*
D03*
X0944Y0696D02*
D03*
X094Y1168D02*
D03*
X0936Y116D02*
D03*
X094Y1152D02*
D03*
Y112D02*
D03*
X0936Y1112D02*
D03*
Y0952D02*
D03*
X094Y0944D02*
D03*
X0936Y0936D02*
D03*
X094Y0832D02*
D03*
X0936Y0776D02*
D03*
Y0712D02*
D03*
X094Y0704D02*
D03*
X0936Y0696D02*
D03*
X0932Y1184D02*
D03*
Y1104D02*
D03*
Y1056D02*
D03*
X0928Y1048D02*
D03*
X0932Y104D02*
D03*
X0928Y1032D02*
D03*
X0932Y1024D02*
D03*
X0928Y1016D02*
D03*
X0932Y1008D02*
D03*
X0928Y1D02*
D03*
X0932Y0992D02*
D03*
X0928Y0984D02*
D03*
X0932Y0976D02*
D03*
X0928Y0968D02*
D03*
Y0952D02*
D03*
X0932Y0944D02*
D03*
X0928Y092D02*
D03*
X0932Y0912D02*
D03*
X0928Y0904D02*
D03*
X0932Y0896D02*
D03*
X0928Y0888D02*
D03*
Y0856D02*
D03*
X0932Y0784D02*
D03*
Y0752D02*
D03*
X0928Y0712D02*
D03*
X0932Y0704D02*
D03*
X0928Y0696D02*
D03*
X0924Y1184D02*
D03*
X092Y1176D02*
D03*
Y116D02*
D03*
Y1144D02*
D03*
Y1128D02*
D03*
Y1112D02*
D03*
Y1096D02*
D03*
Y108D02*
D03*
Y1064D02*
D03*
Y0936D02*
D03*
Y092D02*
D03*
Y0904D02*
D03*
X0924Y088D02*
D03*
Y0864D02*
D03*
Y0848D02*
D03*
X092Y0728D02*
D03*
Y0712D02*
D03*
X0924Y0704D02*
D03*
X092Y0696D02*
D03*
X09792Y11127D02*
D03*
X0981Y11192D02*
D03*
X09754Y11206D02*
D03*
Y11151D02*
D03*
X09688Y09339D02*
D03*
X09791Y10525D02*
D03*
X0965Y10475D02*
D03*
X09986Y09828D02*
D03*
X09177Y08387D02*
D03*
X09468Y11284D02*
D03*
Y11238D02*
D03*
X09613Y08212D02*
D03*
X09666D02*
D03*
X09344Y08443D02*
D03*
X09468Y08434D02*
D03*
X09411Y08439D02*
D03*
X091329Y109276D02*
D03*
Y107442D02*
D03*
Y111109D02*
D03*
Y11661D02*
D03*
Y114776D02*
D03*
Y112943D02*
D03*
X118239Y10234D02*
D03*
Y099842D02*
D03*
Y097344D02*
D03*
Y094847D02*
D03*
Y092349D02*
D03*
Y089851D02*
D03*
Y087353D02*
D03*
Y084856D02*
D03*
Y082358D02*
D03*
X118287Y07986D02*
D03*
X091329Y07994D02*
D03*
Y078106D02*
D03*
Y076273D02*
D03*
Y074439D02*
D03*
Y072606D02*
D03*
Y089107D02*
D03*
Y087274D02*
D03*
Y08544D02*
D03*
Y083607D02*
D03*
Y081773D02*
D03*
Y098275D02*
D03*
Y096441D02*
D03*
Y094608D02*
D03*
Y092774D02*
D03*
Y090941D02*
D03*
Y105609D02*
D03*
Y103775D02*
D03*
Y101942D02*
D03*
Y100108D02*
D03*
X0962Y11619D02*
D03*
X095669Y11665D02*
D03*
X097887Y11576D02*
D03*
X096779Y11573D02*
D03*
X095699D02*
D03*
X097399Y11627D02*
D03*
X097889Y11666D02*
D03*
X096759Y11667D02*
D03*
X09743Y07868D02*
D03*
X097543Y08132D02*
D03*
X09538Y10386D02*
D03*
X10927Y10534D02*
D03*
X11095Y11268D02*
D03*
X1009Y1141D02*
D03*
X10055Y11285D02*
D03*
X1002Y1148D02*
D03*
X10124Y11338D02*
D03*
X11471Y09982D02*
D03*
X11542Y09981D02*
D03*
X11305Y11178D02*
D03*
X114515Y110535D02*
D03*
X11482Y10958D02*
D03*
X11797Y07893D02*
D03*
X11463Y0756D02*
D03*
X11302Y10579D02*
D03*
X10414Y0716D02*
D03*
X11781Y10624D02*
D03*
X116Y10947D02*
D03*
X099306Y071236D02*
D03*
X095502Y081618D02*
D03*
X110995Y10487D02*
D03*
X109975Y104895D02*
D03*
X10344Y10098D02*
D03*
X10937Y10357D02*
D03*
X11255Y10531D02*
D03*
X10253Y10213D02*
D03*
X09889Y10275D02*
D03*
X10704Y10335D02*
D03*
X10752Y10292D02*
D03*
X11039Y10393D02*
D03*
X11087Y10357D02*
D03*
X11223Y10109D02*
D03*
X11367Y10654D02*
D03*
X1136Y10948D02*
D03*
X11407Y10943D02*
D03*
X11441Y10851D02*
D03*
X11534Y10972D02*
D03*
X11453Y11282D02*
D03*
X1151Y11249D02*
D03*
X11577Y11213D02*
D03*
X10879Y10602D02*
D03*
X10868Y1049D02*
D03*
X10881Y11473D02*
D03*
X11501Y11534D02*
D03*
X10812Y10664D02*
D03*
X113Y11323D02*
D03*
X114Y11337D02*
D03*
X11249Y11302D02*
D03*
X112Y11272D02*
D03*
X10541Y09753D02*
D03*
X10534Y09815D02*
D03*
X10426Y09823D02*
D03*
X10692Y09863D02*
D03*
X10734Y10383D02*
D03*
X10513Y10471D02*
D03*
X10887Y1036D02*
D03*
X10777Y1156D02*
D03*
X09833Y1044D02*
D03*
X09702Y10406D02*
D03*
X10237Y11739D02*
D03*
X111Y11721D02*
D03*
X11354Y11727D02*
D03*
X11249Y11685D02*
D03*
X10321Y11673D02*
D03*
X10278Y11636D02*
D03*
X10477Y10705D02*
D03*
X113Y1168D02*
D03*
X11295Y08515D02*
D03*
X103496Y085904D02*
D03*
X10345Y0949D02*
D03*
X10246Y09533D02*
D03*
X106457Y095737D02*
D03*
D86*
X09344Y08205D02*
Y08443D01*
X09246Y08107D02*
X09344Y08205D01*
X09246Y07514D02*
Y08107D01*
X09743Y07017D02*
X108061D01*
X09246Y07514D02*
X09743Y07017D01*
X108061D02*
X109331Y0689D01*
M02*
