G04*
G04 #@! TF.GenerationSoftware,Altium Limited,Altium Designer,18.1.11 (251)*
G04*
G04 Layer_Color=32768*
%FSTAX24Y24*%
%MOIN*%
G70*
G01*
G75*
%ADD21C,0.0039*%
D21*
X109648Y098958D02*
Y099391D01*
X110592Y098958D02*
Y099391D01*
X109648D02*
X110592D01*
X109648Y098958D02*
X110592D01*
X109933Y099174D02*
X110307D01*
X11012Y098987D02*
Y099361D01*
X101807Y098953D02*
Y099387D01*
X100862Y098953D02*
Y099387D01*
Y098953D02*
X101807D01*
X100862Y099387D02*
X101807D01*
X101148Y09917D02*
X101522D01*
X101335Y098983D02*
Y099357D01*
X111258Y098958D02*
Y099391D01*
X112202Y098958D02*
Y099391D01*
X111258D02*
X112202D01*
X111258Y098958D02*
X112202D01*
X111543Y099174D02*
X111917D01*
X11173Y098987D02*
Y099361D01*
X108982Y098958D02*
Y099391D01*
X108038Y098958D02*
Y099391D01*
Y098958D02*
X108982D01*
X108038Y099391D02*
X108982D01*
X108323Y099174D02*
X108697D01*
X10851Y098987D02*
Y099361D01*
X103287Y098953D02*
Y099387D01*
X102342Y098953D02*
Y099387D01*
Y098953D02*
X103287D01*
X102342Y099387D02*
X103287D01*
X102628Y09917D02*
X103002D01*
X102815Y098983D02*
Y099357D01*
X100327Y098953D02*
Y099387D01*
X099382Y098953D02*
Y099387D01*
Y098953D02*
X100327D01*
X099382Y099387D02*
X100327D01*
X099668Y09917D02*
X100042D01*
X099855Y098983D02*
Y099357D01*
X106393Y098967D02*
X106827D01*
X106393Y099912D02*
X106827D01*
X106393Y098967D02*
Y099912D01*
X106827Y098967D02*
Y099912D01*
X10661Y099253D02*
Y099627D01*
X106423Y09944D02*
X106797D01*
X105323Y098967D02*
X105757D01*
X105323Y099912D02*
X105757D01*
X105323Y098967D02*
Y099912D01*
X105757Y098967D02*
Y099912D01*
X10554Y099253D02*
Y099627D01*
X105353Y09944D02*
X105727D01*
X104253Y098967D02*
X104687D01*
X104253Y099912D02*
X104687D01*
X104253Y098967D02*
Y099912D01*
X104687Y098967D02*
Y099912D01*
X10447Y099253D02*
Y099627D01*
X104283Y09944D02*
X104657D01*
X106443Y101478D02*
X106877D01*
X106443Y102422D02*
X106877D01*
X106443Y101478D02*
Y102422D01*
X106877Y101478D02*
Y102422D01*
X10666Y101763D02*
Y102137D01*
X106473Y10195D02*
X106847D01*
X097613Y101148D02*
X098047D01*
X097613Y102092D02*
X098047D01*
X097613Y101148D02*
Y102092D01*
X098047Y101148D02*
Y102092D01*
X09783Y101433D02*
Y101807D01*
X097643Y10162D02*
X098017D01*
X096896Y101148D02*
X097329D01*
X096896Y102092D02*
X097329D01*
X096896Y101148D02*
Y102092D01*
X097329Y101148D02*
Y102092D01*
X097113Y101433D02*
Y101807D01*
X096925Y10162D02*
X0973D01*
X096178Y101148D02*
X096612D01*
X096178Y102092D02*
X096612D01*
X096178Y101148D02*
Y102092D01*
X096612Y101148D02*
Y102092D01*
X096395Y101433D02*
Y101807D01*
X096208Y10162D02*
X096582D01*
X095461Y101148D02*
X095894D01*
X095461Y102092D02*
X095894D01*
X095461Y101148D02*
Y102092D01*
X095894Y101148D02*
Y102092D01*
X095677Y101433D02*
Y101807D01*
X09549Y10162D02*
X095865D01*
X094743Y101148D02*
X095177D01*
X094743Y102092D02*
X095177D01*
X094743Y101148D02*
Y102092D01*
X095177Y101148D02*
Y102092D01*
X09496Y101433D02*
Y101807D01*
X094773Y10162D02*
X095147D01*
X116402Y114343D02*
Y114777D01*
X115458Y114343D02*
Y114777D01*
Y114343D02*
X116402D01*
X115458Y114777D02*
X116402D01*
X115743Y11456D02*
X116117D01*
X11593Y114373D02*
Y114747D01*
X092213Y08102D02*
X092587D01*
X0924Y080833D02*
Y081207D01*
X095285Y08143D02*
X095719D01*
X095285Y080485D02*
X095719D01*
Y08143D01*
X095285Y080485D02*
Y08143D01*
X095502Y080771D02*
Y081145D01*
X095315Y080958D02*
X095689D01*
X094509Y080485D02*
X094942D01*
X094509Y08143D02*
X094942D01*
X094509Y080485D02*
Y08143D01*
X094942Y080485D02*
Y08143D01*
X094725Y080771D02*
Y081145D01*
X094538Y080958D02*
X094912D01*
X09483Y071893D02*
Y072267D01*
X094643Y07208D02*
X095017D01*
X096583Y11412D02*
X096977Y11412D01*
X09678Y113923D02*
Y114317D01*
X098119Y112329D02*
Y115911D01*
X095441Y112329D02*
Y115911D01*
X098119D01*
X095441Y112329D02*
X098119D01*
X093843Y114441D02*
X094217D01*
X09403Y114254D02*
Y114628D01*
X099293Y11282D02*
X099667D01*
X09948Y112633D02*
Y113007D01*
X115093Y074568D02*
X115467D01*
X11528Y074381D02*
Y074755D01*
X115064Y074095D02*
Y07504D01*
X115497Y074095D02*
Y07504D01*
X115064Y074095D02*
X115497D01*
X115064Y07504D02*
X115497D01*
X113783Y074568D02*
X114157D01*
X11397Y074381D02*
Y074755D01*
X113753Y074095D02*
Y07504D01*
X114187Y074095D02*
Y07504D01*
X113753Y074095D02*
X114187D01*
X113753Y07504D02*
X114187D01*
X114438Y074568D02*
X114812D01*
X114625Y074381D02*
Y074755D01*
X114409Y074095D02*
Y07504D01*
X114842Y074095D02*
Y07504D01*
X114409Y074095D02*
X114842D01*
X114409Y07504D02*
X114842D01*
X11594Y074443D02*
Y074817D01*
X115753Y07463D02*
X116127D01*
X10366Y070347D02*
X104034D01*
X103847Y07016D02*
Y070534D01*
X103631Y069875D02*
Y07082D01*
X104064Y069875D02*
Y07082D01*
X103631Y069875D02*
X104064D01*
X103631Y07082D02*
X104064D01*
X10457Y070223D02*
Y070597D01*
X104383Y07041D02*
X104757D01*
X105073Y070347D02*
X105447D01*
X10526Y07016D02*
Y070534D01*
X105477Y069875D02*
Y07082D01*
X105043Y069875D02*
Y07082D01*
X105477D01*
X105043Y069875D02*
X105477D01*
X097783Y070347D02*
X098157D01*
X09797Y07016D02*
Y070534D01*
X097753Y069875D02*
Y07082D01*
X098187Y069875D02*
Y07082D01*
X097753Y069875D02*
X098187D01*
X097753Y07082D02*
X098187D01*
X098643Y070223D02*
Y070597D01*
X098456Y07041D02*
X09883D01*
X099119Y070347D02*
X099493D01*
X099306Y07016D02*
Y070534D01*
X099523Y069875D02*
Y07082D01*
X09909Y069875D02*
Y07082D01*
X099523D01*
X09909Y069875D02*
X099523D01*
X10117Y120763D02*
Y121137D01*
X100983Y12095D02*
X101357D01*
X101561Y121013D02*
X101935D01*
X101748Y120826D02*
Y1212D01*
X101964Y12054D02*
Y121485D01*
X101531Y12054D02*
Y121485D01*
X101964D01*
X101531Y12054D02*
X101964D01*
X102143Y121013D02*
X102517D01*
X10233Y120826D02*
Y1212D01*
X102547Y12054D02*
Y121485D01*
X102113Y12054D02*
Y121485D01*
X102547D01*
X102113Y12054D02*
X102547D01*
X105842Y120711D02*
Y121085D01*
X105655Y120898D02*
X106029D01*
X10628Y12096D02*
X106654D01*
X106467Y120773D02*
Y121147D01*
X106684Y120488D02*
Y121432D01*
X106251Y120488D02*
Y121432D01*
X106684D01*
X106251Y120488D02*
X106684D01*
X10691Y12096D02*
X107284D01*
X107097Y120773D02*
Y121147D01*
X107314Y120488D02*
Y121432D01*
X106881Y120488D02*
Y121432D01*
X107314D01*
X106881Y120488D02*
X107314D01*
X094463Y114441D02*
X094837D01*
X09465Y114254D02*
Y114628D01*
X110183Y1163D02*
X114317D01*
X110183Y11374D02*
Y1163D01*
Y11374D02*
X114317D01*
Y1163D01*
X115638Y116343D02*
Y116717D01*
X115451Y11653D02*
X115825D01*
X115166Y116313D02*
X116111D01*
X115166Y116747D02*
X116111D01*
Y116313D02*
Y116747D01*
X115166Y116313D02*
Y116747D01*
X115513Y115945D02*
X115887D01*
X1157Y115758D02*
Y116132D01*
X115638Y115163D02*
Y115537D01*
X115451Y11535D02*
X115825D01*
X115166Y115567D02*
X116111D01*
X115166Y115133D02*
X116111D01*
X115166D02*
Y115567D01*
X116111Y115133D02*
Y115567D01*
X09743Y076448D02*
Y076822D01*
X097243Y076635D02*
X097617D01*
X09743Y077733D02*
Y078107D01*
X097243Y07792D02*
X097617D01*
X096092Y080958D02*
X096466D01*
X096279Y080771D02*
Y081145D01*
X096062Y080485D02*
Y08143D01*
X096495Y080485D02*
Y08143D01*
X096062Y080485D02*
X096495D01*
X096062Y08143D02*
X096495D01*
X093762Y080958D02*
X094136D01*
X093949Y080771D02*
Y081145D01*
X093732Y080485D02*
Y08143D01*
X094165Y080485D02*
Y08143D01*
X093732Y080485D02*
X094165D01*
X093732Y08143D02*
X094165D01*
X09706Y080833D02*
Y081207D01*
X096873Y08102D02*
X097247D01*
X092985Y080958D02*
X093359D01*
X093172Y080771D02*
Y081145D01*
X092955Y080485D02*
Y08143D01*
X093389Y080485D02*
Y08143D01*
X092955Y080485D02*
X093389D01*
X092955Y08143D02*
X093389D01*
X112713Y101838D02*
X113087D01*
X1129Y101651D02*
Y102025D01*
X112683Y101365D02*
Y10231D01*
X113117Y101365D02*
Y10231D01*
X112683Y101365D02*
X113117D01*
X112683Y10231D02*
X113117D01*
X112043Y101838D02*
X112417D01*
X11223Y101651D02*
Y102025D01*
X112013Y101365D02*
Y10231D01*
X112447Y101365D02*
Y10231D01*
X112013Y101365D02*
X112447D01*
X112013Y10231D02*
X112447D01*
X11048Y105023D02*
Y105397D01*
X110293Y10521D02*
X110667D01*
X111628Y10472D02*
X112002D01*
X111815Y104533D02*
Y104907D01*
X111628Y1053D02*
X112002D01*
X111815Y105113D02*
Y105487D01*
X111628Y10588D02*
X112002D01*
X111815Y105693D02*
Y106067D01*
X11183Y108933D02*
Y109307D01*
X111643Y10912D02*
X112017D01*
X11183Y107273D02*
Y107647D01*
X111643Y10746D02*
X112017D01*
X113755Y111573D02*
Y111947D01*
X113568Y11176D02*
X113942D01*
X113282Y111977D02*
X114227D01*
X113282Y111543D02*
X114227D01*
X113282D02*
Y111977D01*
X114227Y111543D02*
Y111977D01*
X113755Y11096D02*
Y111335D01*
X113568Y111147D02*
X113942D01*
X113282Y110931D02*
X114227D01*
X113282Y111364D02*
X114227D01*
Y110931D02*
Y111364D01*
X113282Y110931D02*
Y111364D01*
X113755Y110348D02*
Y110722D01*
X113568Y110535D02*
X113942D01*
X113282Y110752D02*
X114227D01*
X113282Y110318D02*
X114227D01*
X113282D02*
Y110752D01*
X114227Y110318D02*
Y110752D01*
X112265Y110963D02*
Y111337D01*
X112078Y11115D02*
X112452D01*
X111792Y111367D02*
X112737D01*
X111792Y110933D02*
X112737D01*
X111792D02*
Y111367D01*
X112737Y110933D02*
Y111367D01*
X112078Y11031D02*
X112452D01*
X112265Y110123D02*
Y110497D01*
X10571Y101603D02*
Y101977D01*
X105523Y10179D02*
X105897D01*
X10431Y101623D02*
Y101997D01*
X104123Y10181D02*
X104497D01*
X09885Y112633D02*
Y113007D01*
X098663Y11282D02*
X099037D01*
X113393Y10073D02*
Y10329D01*
X117527D01*
Y10073D02*
Y10329D01*
X113393Y10073D02*
X117527D01*
X111687Y100684D02*
Y103243D01*
X107553Y100684D02*
X111687D01*
X107553D02*
Y103243D01*
X111687D01*
X103107Y10073D02*
Y10329D01*
X098973Y10073D02*
X103107D01*
X098973D02*
Y10329D01*
X103107D01*
M02*
