G04*
G04 #@! TF.GenerationSoftware,Altium Limited,Altium Designer,18.1.11 (251)*
G04*
G04 Layer_Color=255*
%FSTAX24Y24*%
%MOIN*%
G70*
G01*
G75*
%ADD33C,0.0394*%
%ADD74C,0.0984*%
%ADD75C,0.0709*%
%ADD76O,0.0600X0.0900*%
%ADD77R,0.0600X0.0900*%
%ADD78C,0.0709*%
%ADD79C,0.0620*%
%ADD80R,0.0650X0.0650*%
%ADD81C,0.0650*%
%ADD82C,0.0600*%
%ADD83C,0.0591*%
%ADD84C,0.0787*%
D33*
X1175Y06705D02*
D03*
X092Y067D02*
D03*
X09205Y1218D02*
D03*
X1175Y12175D02*
D03*
D74*
X09391Y095978D02*
D03*
Y088102D02*
D03*
D75*
X113026Y119833D02*
D03*
X112042D02*
D03*
X111058D02*
D03*
X110074D02*
D03*
X099572Y1198D02*
D03*
X098588D02*
D03*
X097604D02*
D03*
X096619D02*
D03*
X103437Y0689D02*
D03*
X104421D02*
D03*
X105406D02*
D03*
X10639D02*
D03*
X097543D02*
D03*
X098527D02*
D03*
X099511D02*
D03*
X100496D02*
D03*
X112284Y0689D02*
D03*
X1113D02*
D03*
X110316D02*
D03*
X109331D02*
D03*
D76*
X09332Y07651D02*
D03*
X09432D02*
D03*
X09532D02*
D03*
X09632D02*
D03*
X09332Y07951D02*
D03*
X09432D02*
D03*
X09532D02*
D03*
D77*
X09632D02*
D03*
D78*
X11612Y073295D02*
D03*
Y071535D02*
D03*
X11357Y071525D02*
D03*
X11356Y073295D02*
D03*
D79*
X11053Y10731D02*
D03*
Y109279D02*
D03*
D80*
X11786Y11732D02*
D03*
Y11358D02*
D03*
D81*
Y11632D02*
D03*
Y11532D02*
D03*
Y11058D02*
D03*
Y11158D02*
D03*
Y11258D02*
D03*
D82*
X10178Y118272D02*
D03*
X10278D02*
D03*
X10378D02*
D03*
X10478D02*
D03*
X10578D02*
D03*
X10678D02*
D03*
X10778D02*
D03*
X097496Y097028D02*
D03*
X098496D02*
D03*
X099496D02*
D03*
X100496D02*
D03*
X101496D02*
D03*
X102496D02*
D03*
X103496D02*
D03*
X106457D02*
D03*
X107457D02*
D03*
X108457D02*
D03*
X109457D02*
D03*
X110457D02*
D03*
X111457D02*
D03*
X112457D02*
D03*
D83*
X10778Y105272D02*
D03*
X10678D02*
D03*
X10578D02*
D03*
X10478D02*
D03*
X10378D02*
D03*
X10278D02*
D03*
X10178D02*
D03*
X103496Y084028D02*
D03*
X102496D02*
D03*
X101496D02*
D03*
X100496D02*
D03*
X099496D02*
D03*
X098496D02*
D03*
X097496D02*
D03*
X112457D02*
D03*
X111457D02*
D03*
X110457D02*
D03*
X109457D02*
D03*
X108457D02*
D03*
X107457D02*
D03*
X106457D02*
D03*
D84*
X105976Y076827D02*
D03*
X103976D02*
D03*
M02*
