G04*
G04 #@! TF.GenerationSoftware,Altium Limited,Altium Designer,18.1.11 (251)*
G04*
G04 Layer_Color=255*
%FSTAX24Y24*%
%MOIN*%
G70*
G01*
G75*
%ADD24R,0.0276X0.0354*%
%ADD25R,0.0354X0.0276*%
%ADD26R,0.0394X0.1024*%
%ADD27R,0.1024X0.0630*%
%ADD28R,0.0394X0.0394*%
%ADD29R,0.0394X0.0394*%
%ADD30R,0.0906X0.0591*%
%ADD31R,0.2756X0.2756*%
%ADD32R,0.0394X0.1000*%
%ADD33C,0.0394*%
%ADD34R,0.0630X0.1024*%
%ADD35R,0.0236X0.0866*%
%ADD36O,0.0157X0.0433*%
%ADD37O,0.0433X0.0157*%
%ADD38R,0.0500X0.0394*%
%ADD39R,0.0200X0.0866*%
%ADD40R,0.0200X0.0866*%
%ADD41R,0.1260X0.0591*%
%ADD74C,0.0984*%
%ADD75C,0.0709*%
%ADD76O,0.0600X0.0900*%
%ADD77R,0.0600X0.0900*%
%ADD78C,0.0709*%
%ADD79C,0.0620*%
%ADD80R,0.0650X0.0650*%
%ADD81C,0.0650*%
%ADD82C,0.0600*%
%ADD83C,0.0591*%
%ADD84C,0.0787*%
D24*
X109825Y099174D02*
D03*
X110415D02*
D03*
X10163Y09917D02*
D03*
X101039D02*
D03*
X111435Y099174D02*
D03*
X112025D02*
D03*
X108805Y099174D02*
D03*
X108215D02*
D03*
X10311Y09917D02*
D03*
X102519D02*
D03*
X10015D02*
D03*
X099559D02*
D03*
X116225Y11456D02*
D03*
X115635D02*
D03*
X115933Y11653D02*
D03*
X115343D02*
D03*
X115343Y11535D02*
D03*
X115933D02*
D03*
X113459Y11176D02*
D03*
X11405D02*
D03*
X11405Y111147D02*
D03*
X113459D02*
D03*
X113459Y110535D02*
D03*
X11405D02*
D03*
X111969Y11115D02*
D03*
X11256D02*
D03*
D25*
X10661Y099144D02*
D03*
Y099735D02*
D03*
X10554Y099144D02*
D03*
Y099735D02*
D03*
X10447Y099144D02*
D03*
Y099735D02*
D03*
X10666Y101655D02*
D03*
Y102245D02*
D03*
X09783Y101325D02*
D03*
Y101915D02*
D03*
X097113Y101325D02*
D03*
Y101915D02*
D03*
X096395Y101325D02*
D03*
Y101915D02*
D03*
X095677Y101325D02*
D03*
Y101915D02*
D03*
X09496Y101325D02*
D03*
Y101915D02*
D03*
X095502Y081253D02*
D03*
Y080662D02*
D03*
X094725Y080662D02*
D03*
Y081253D02*
D03*
X11528Y074272D02*
D03*
Y074863D02*
D03*
X11397Y074272D02*
D03*
Y074863D02*
D03*
X114625Y074272D02*
D03*
Y074863D02*
D03*
X103847Y070052D02*
D03*
Y070643D02*
D03*
X10526Y070643D02*
D03*
Y070052D02*
D03*
X09797Y070052D02*
D03*
Y070643D02*
D03*
X099306Y070643D02*
D03*
Y070052D02*
D03*
X101748Y121308D02*
D03*
Y120717D02*
D03*
X10233Y121308D02*
D03*
Y120717D02*
D03*
X106467Y121255D02*
D03*
Y120665D02*
D03*
X107097Y121255D02*
D03*
Y120665D02*
D03*
X096279Y080662D02*
D03*
Y081253D02*
D03*
X093949Y080662D02*
D03*
Y081253D02*
D03*
X093172Y080662D02*
D03*
Y081253D02*
D03*
X1129Y101542D02*
D03*
Y102133D02*
D03*
X11223Y101542D02*
D03*
Y102133D02*
D03*
D26*
X098457Y109153D02*
D03*
Y110964D02*
D03*
X09549Y10916D02*
D03*
Y110971D02*
D03*
D27*
X10823Y120389D02*
D03*
Y121491D02*
D03*
X10331Y120319D02*
D03*
Y121421D02*
D03*
X10638Y070279D02*
D03*
Y071381D02*
D03*
X10048Y070279D02*
D03*
Y071381D02*
D03*
D28*
X0924Y080705D02*
D03*
Y081335D02*
D03*
X09403Y114126D02*
D03*
Y114756D02*
D03*
X09948Y112505D02*
D03*
Y113135D02*
D03*
X11594Y074315D02*
D03*
Y074945D02*
D03*
X10457Y070095D02*
D03*
Y070725D02*
D03*
X098643Y070095D02*
D03*
Y070725D02*
D03*
X10117Y121265D02*
D03*
Y120635D02*
D03*
X105842Y121213D02*
D03*
Y120583D02*
D03*
X09465Y114756D02*
D03*
Y114126D02*
D03*
X09743Y07632D02*
D03*
Y07695D02*
D03*
Y077605D02*
D03*
Y078235D02*
D03*
X09706Y081335D02*
D03*
Y080705D02*
D03*
X11048Y105525D02*
D03*
Y104895D02*
D03*
X11183Y109435D02*
D03*
Y108805D02*
D03*
Y107145D02*
D03*
Y107775D02*
D03*
X10571Y101475D02*
D03*
Y102105D02*
D03*
X10431Y101495D02*
D03*
Y102125D02*
D03*
X09885Y112505D02*
D03*
Y113135D02*
D03*
D29*
X095145Y07208D02*
D03*
X094515D02*
D03*
X116015Y115945D02*
D03*
X115385D02*
D03*
X1115Y10472D02*
D03*
X11213D02*
D03*
X1115Y1053D02*
D03*
X11213D02*
D03*
X1115Y10588D02*
D03*
X11213D02*
D03*
X11258Y11031D02*
D03*
X11195D02*
D03*
D30*
X09391Y0868D02*
D03*
Y0851D02*
D03*
X09265Y074258D02*
D03*
Y07229D02*
D03*
X09702Y074258D02*
D03*
Y07229D02*
D03*
X09284Y10935D02*
D03*
Y11105D02*
D03*
D31*
X09678Y115576D02*
D03*
D32*
X097686Y11288D02*
D03*
X095874D02*
D03*
D33*
X1175Y06705D02*
D03*
X092Y067D02*
D03*
X09205Y1218D02*
D03*
X1175Y12175D02*
D03*
D34*
X116311Y09635D02*
D03*
X115209D02*
D03*
X116311Y09474D02*
D03*
X115209D02*
D03*
X116311Y09313D02*
D03*
X115209D02*
D03*
X116311Y09152D02*
D03*
X115209D02*
D03*
D35*
X1105Y116044D02*
D03*
X1115D02*
D03*
X112D02*
D03*
X1135Y113996D02*
D03*
X1125Y116044D02*
D03*
X114D02*
D03*
X113Y113996D02*
D03*
X1125D02*
D03*
X112D02*
D03*
X1115D02*
D03*
X1105D02*
D03*
X111D02*
D03*
Y116044D02*
D03*
X114Y113996D02*
D03*
X113Y116044D02*
D03*
X1135D02*
D03*
X11421Y100986D02*
D03*
X11471D02*
D03*
X11371Y103034D02*
D03*
X11671Y100986D02*
D03*
Y103034D02*
D03*
X11721D02*
D03*
X11621D02*
D03*
X11571D02*
D03*
X11521D02*
D03*
X11471D02*
D03*
X11371Y100986D02*
D03*
X11521D02*
D03*
X11421Y103034D02*
D03*
X11571Y100986D02*
D03*
X11621D02*
D03*
X11721D02*
D03*
X11087Y102987D02*
D03*
X11037D02*
D03*
X11137Y10094D02*
D03*
X10837Y102987D02*
D03*
Y10094D02*
D03*
X10787D02*
D03*
X10887D02*
D03*
X10937D02*
D03*
X10987D02*
D03*
X11037D02*
D03*
X11137Y102987D02*
D03*
X10987D02*
D03*
X11087Y10094D02*
D03*
X10937Y102987D02*
D03*
X10887D02*
D03*
X10787D02*
D03*
X10229Y103034D02*
D03*
X10179D02*
D03*
X10279Y100986D02*
D03*
X09979Y103034D02*
D03*
Y100986D02*
D03*
X09929D02*
D03*
X10029D02*
D03*
X10079D02*
D03*
X10129D02*
D03*
X10179D02*
D03*
X10279Y103034D02*
D03*
X10129D02*
D03*
X10229Y100986D02*
D03*
X10079Y103034D02*
D03*
X10029D02*
D03*
X09929D02*
D03*
D36*
X113758Y108974D02*
D03*
X114073D02*
D03*
X114388D02*
D03*
X114703D02*
D03*
X115017D02*
D03*
X115332D02*
D03*
X115647D02*
D03*
X115962D02*
D03*
Y105666D02*
D03*
X115647D02*
D03*
X115332D02*
D03*
X115017D02*
D03*
X114703D02*
D03*
X114388D02*
D03*
X114073D02*
D03*
X113758D02*
D03*
D37*
X116514Y108422D02*
D03*
Y108107D02*
D03*
Y107792D02*
D03*
Y107477D02*
D03*
Y107163D02*
D03*
Y106848D02*
D03*
Y106533D02*
D03*
Y106218D02*
D03*
X113206D02*
D03*
Y106533D02*
D03*
Y106848D02*
D03*
Y107163D02*
D03*
Y107477D02*
D03*
Y107792D02*
D03*
Y108107D02*
D03*
Y108422D02*
D03*
D38*
X09433Y073D02*
D03*
Y0738D02*
D03*
X0954Y073D02*
D03*
Y0738D02*
D03*
D39*
X09558Y077504D02*
D03*
D40*
X09408Y075456D02*
D03*
X09458D02*
D03*
X09508D02*
D03*
X09558D02*
D03*
X09408Y077504D02*
D03*
X09458D02*
D03*
X09508D02*
D03*
D41*
X11161Y070215D02*
D03*
Y071868D02*
D03*
X110019Y070215D02*
D03*
Y071868D02*
D03*
D74*
X09391Y095978D02*
D03*
Y088102D02*
D03*
D75*
X113026Y119833D02*
D03*
X112042D02*
D03*
X111058D02*
D03*
X110074D02*
D03*
X099572Y1198D02*
D03*
X098588D02*
D03*
X097604D02*
D03*
X096619D02*
D03*
X103437Y0689D02*
D03*
X104421D02*
D03*
X105406D02*
D03*
X10639D02*
D03*
X097543D02*
D03*
X098527D02*
D03*
X099511D02*
D03*
X100496D02*
D03*
X112284Y0689D02*
D03*
X1113D02*
D03*
X110316D02*
D03*
X109331D02*
D03*
D76*
X09332Y07651D02*
D03*
X09432D02*
D03*
X09532D02*
D03*
X09632D02*
D03*
X09332Y07951D02*
D03*
X09432D02*
D03*
X09532D02*
D03*
D77*
X09632D02*
D03*
D78*
X11612Y073295D02*
D03*
Y071535D02*
D03*
X11357Y071525D02*
D03*
X11356Y073295D02*
D03*
D79*
X11053Y10731D02*
D03*
Y109279D02*
D03*
D80*
X11786Y11732D02*
D03*
Y11358D02*
D03*
D81*
Y11632D02*
D03*
Y11532D02*
D03*
Y11058D02*
D03*
Y11158D02*
D03*
Y11258D02*
D03*
D82*
X10178Y118272D02*
D03*
X10278D02*
D03*
X10378D02*
D03*
X10478D02*
D03*
X10578D02*
D03*
X10678D02*
D03*
X10778D02*
D03*
X097496Y097028D02*
D03*
X098496D02*
D03*
X099496D02*
D03*
X100496D02*
D03*
X101496D02*
D03*
X102496D02*
D03*
X103496D02*
D03*
X106457D02*
D03*
X107457D02*
D03*
X108457D02*
D03*
X109457D02*
D03*
X110457D02*
D03*
X111457D02*
D03*
X112457D02*
D03*
D83*
X10778Y105272D02*
D03*
X10678D02*
D03*
X10578D02*
D03*
X10478D02*
D03*
X10378D02*
D03*
X10278D02*
D03*
X10178D02*
D03*
X103496Y084028D02*
D03*
X102496D02*
D03*
X101496D02*
D03*
X100496D02*
D03*
X099496D02*
D03*
X098496D02*
D03*
X097496D02*
D03*
X112457D02*
D03*
X111457D02*
D03*
X110457D02*
D03*
X109457D02*
D03*
X108457D02*
D03*
X107457D02*
D03*
X106457D02*
D03*
D84*
X105976Y076827D02*
D03*
X103976D02*
D03*
M02*
