M48
;Layer_Color=9474304
;FILE_FORMAT=2:4
INCH
;TYPE=PLATED
T1F00S00C0.0120
T2F00S00C0.0300
T3F00S00C0.0310
T4F00S00C0.0320
T5F00S00C0.0354
T6F00S00C0.0394
T7F00S00C0.0472
%
T01
X092000Y069600
X092800
X093600
X093200Y070400
X092400
X092800Y071200
X093600
X092000
Y072800
X091329Y072606
Y074439
Y076273
Y078106
X093600Y077600
X093200Y075200
X096000Y074400
X096400Y073600
X097200
X098000
X098400Y074400
X099200
X100000
X100800
X101600
X102400
X103200
X104000
X104800
X105600
X106400
X107200
X108000
X108800
Y076000
X108000
X107200
X106400
X105600
X104800
X104000
X103200
X102400
X101600
X100800
X100000
X099200
X098400
X098800Y076800
X099600
X100400
X101200
X102000
X102800
X103200Y077600
X102400
X101600
X100800
X100000
X099200
X098000Y076800
X096800Y077600
X096000
X096800Y076000
X096000Y072800
Y069600
X095200
X094400
X094800Y070400
X094000
X094400Y071200
X095600Y068800
X096400
X096800Y068000
X096000
X096400Y067200
X097200
X098000
X098800
X099600
X100400
X101200
X102000
X102400Y066400
X103200
X104000
X104800
X105600
X106400
X107200
X108000
X108800
Y068000
X108400Y068800
X107200Y069600
Y068000
X106400
X105600
X104800
Y069600
X104000
X103200
X102400
X102800Y068800
X101200
X100000Y069600
X098400
X097600
X098400Y071200
X099306Y071236
X099600Y072000
X100400
X101200
X102000
X102800
X103600
X104400
X104140Y071600
X105200Y072000
X106000
X106800
X107600
X108800Y071200
X109200Y076800
X108400
X107200Y077600
X106400
X105600
X104800
X105200Y076800
X101600Y066400
X100800
X100000
X099200
X098400
X097600
X096800
X096000
X095600Y067200
X109600Y068000
X110400
X111200
X112000
Y069600
X112800
X113200Y070400
X112800Y071200
X112000
X111200
X110400
X109600
Y069600
Y066400
X110400
X111200
X112000
X112800
X113600
X114400Y069600
X115200
X116000
X116800
X117600
X118000Y070400
Y072000
Y073600
Y075200
Y076800
X116400
X116800Y076000
X116000
X116400Y075200
X116800Y074400
Y072800
X115600Y073600
X114800
X114400Y072800
X114800Y072000
X114000
X113200
X112800Y072800
X112000
X112400Y073600
X111600
X112000Y074400
X112800
X113600Y076000
X114400
X114630Y075600
X114800Y076800
X115200Y077600
X116000
X112800
X112000
X111200
X110400
X109600
X110000Y076800
X110800
X111600
X112400
X111200Y076000
X110400
X109600
Y074400
X110400Y072800
X114400Y071200
X115200
X116400Y078400
X116800Y079200
X117970Y078930
X118000Y078400
X118287Y079860
X118239Y082358
X116800Y082400
X116000
X116400Y083200
X115600
X116000Y084000
X116800
X116400Y084800
X116800Y085600
Y087200
X118239Y087353
Y089851
X116800Y090400
Y088800
X115600Y089600
Y088000
Y086400
X113600Y087200
Y088800
Y090400
Y092000
X114000Y092800
X114400Y093600
X113600
X112000
X111200
X110400
X110800Y092800
X111600
X112400
X112000Y092000
X111200
X110400
X110800Y091200
X111600
X112400
X112000Y090400
X111200
X110400
X110800Y089600
X111600
X112400
X112000Y088800
X111200
X110400
X110800Y088000
X111600
X112400
X112000Y087200
X111200
X110400
X110800Y086400
X111600
X112400
X112000Y085600
X112400Y084800
X113200
X112950Y085150
X113600Y085600
Y084000
X113200Y083200
X112400
X111600
X110800
X110000
X110400Y082400
X111200
X112000
X111600Y081600
X110800
X110000
X109600Y082400
X110000Y080000
X111600
X112000Y079200
X112800
X113600
X114400
X114800Y080000
X115600
X116000Y080800
X115200
X114400
X114800Y081600
X115600
X116400
X114400Y082400
X114000Y080000
X113200
X112800Y080800
X113200Y078400
X114000
X112400
X111600
X110800
X110000
X111200Y079200
X110800Y084800
X110400Y085600
X110000Y086400
Y088000
Y089600
Y091200
Y092800
X118239Y092349
Y084856
X108800Y085600
X108400Y086400
X107600
X108000Y087200
X108800
X108400Y088000
X107600
X106800
X107200Y088800
X108000
X108800
X108400Y089600
X107600
X106800
X107200Y090400
X108000
X108800
X108400Y091200
X107600
X106800
X107200Y092000
X108000
X108800
X108400Y092800
X107600
X106800
X107200Y093600
X108000
X108800
X106400
Y092000
Y090400
Y088800
X105200Y089600
X104400
X103600
X102800
X102000
X101200
X101600Y090400
X100800
X100000
Y092000
X100800
X101600
X102000Y092800
X101200
X101600Y093600
X102400
X103200
X103600Y092800
X104400
X105200
Y091200
X104400
X103600
X102800
X102000
X101200
X103200Y092000
X104000
Y090400
X103200
Y088800
X104000
X104400Y088000
X105200
X105600Y087200
X106000Y086400
X105200
X105600Y085600
X106400
X107200
Y087200
X104000
X103200
X103600Y088000
X102800
X102000
X101200
X101600Y088800
X100800
X100000
Y087200
X100800
X101600
X102000Y086400
X102800
X103496Y085904
X104000Y085600
X104800
Y082400
X105600
X106400
X107200
X108000
X108800
X109200Y083200
X108400
X107600
X106800
Y081600
X107600
X108400
X109200
Y080000
X108400
X107600
X106800
X106000
X105200
X104400
X103600
X102800
X102000
X101200
X100400
X099600
X098800
X099200Y079200
X100000
X100800
X101600
X102400
X103200
X103600Y078400
X104400
X105200
X106000
X106800
X107600
X108400
X108800Y079200
X108000
X107200
X106400
X105600
X104800
X105200Y081600
X106000
X104400
X104000Y082400
X103200
X102800Y081600
X102000
X101200
X100400
X099600
X098800
X097543Y081320
X097200Y080000
X097600Y079200
X097430Y078680
X096400Y078400
X098800
X099600
X100400
X101200
X102000
X102800
X101200Y084800
X101600Y085600
X100800
X101200Y086400
X098800Y084800
X096400
X096800Y085600
X096000
X095200
Y084000
X096000
X096800
X097200Y083200
X096400
X096660Y082120
X096130
X095502Y081618
X094800Y083200
X094000
X094110Y084390
X094680Y084340
X096400Y086400
X096800Y087200
X096000
X096400Y088000
X096800Y088800
X096000
X095200
X094800Y089600
X095200Y090400
X096000
X096800
X096400Y091200
X096800Y092000
X096000
X095200
X094400
X094800Y092800
X095200Y093600
X096000
X096880Y093390
X096400Y092800
X094400Y093600
X094800Y091200
X094400Y090400
X096400Y089600
X100000Y093600
X100800
X093600
X092000
X091329Y092774
X092000Y092000
X092800
X093200Y091200
X092800Y090400
X092000
X091329Y090941
Y089107
X092800Y088800
X093200Y089600
X092400Y088000
Y086400
X092800Y085600
X092400Y084800
X093440Y084430
X091770Y083870
X091329Y083607
Y085440
Y087274
Y081773
Y079940
X093200Y078400
Y094400
X093600Y095200
X092800
Y096800
X093200Y097600
X092800Y098400
X093200Y099200
X092800Y100000
X093200Y100800
X092800Y101600
X093200Y102400
X092800Y103200
X093200Y104000
X092800Y104800
X093200Y105600
X091329Y105609
X092000Y106400
Y108000
X091329Y107442
Y109276
Y103775
Y101942
Y100108
Y098275
Y096441
Y094608
X094000Y094400
X094800
X095200Y095200
X094400
X094800Y096000
X096800Y096800
X097200Y097600
X098000
X097600Y098400
X096800
X096000
X095200
X094800Y099200
X096400
X097200
X098000
X098800
X099200Y098400
X099860Y098280
X099600Y097600
X100000Y096800
Y095200
X100800
X101600
X102460Y095330
X102800Y094400
X103600
X103450Y094900
X102000Y094400
X101200
X098400Y095200
X096400Y094400
Y097600
X096800Y103200
X097600
X097020Y104060
X096500Y104750
X097910Y105250
X098330Y104400
X098400Y106400
X099200
X100000
X100400Y107200
X099600
X098800
X098000
X098400Y108000
X099200
X100000
X100800
X101200Y108800
X100400
X099600
X098000
X097600Y108000
Y106400
X096800
X096400Y107200
X095600
X094800
X095200Y108000
X096000
X096400Y108800
X094800
X094400Y108000
Y106400
X095200
X095380Y103860
X096000Y103200
X098890Y102750
X102530Y102130
X103200Y101600
X103440Y100980
X103200Y100000
X104260Y098230
X105340Y098150
X105410Y097530
X107600Y097600
Y099200
X106920Y098630
X108800Y098400
X109200Y099200
X108400Y096000
Y094400
X107600
X106800
X105200
X106457Y095737
X107200Y101600
X107520Y102920
X107040Y103350
X107340Y103830
X108870Y103600
X109370Y103570
X109270Y105340
X108680Y104900
X108790Y106020
X108120Y106640
X107200Y106400
X106400
X106800Y107200
X106000
X105200
X104770Y107050
X104400Y107200
Y108800
X105200
X106000
X106800
X107200Y108000
X106400
X105600
X105130Y104710
X104800Y101600
X110390Y103930
X110870Y103570
X110995Y104870
X109975Y104895
X109600Y104800
X110400Y106400
Y108000
X110000Y108800
X114410Y108510
X114800Y107200
X115600
X114000
X113670Y106540
X113020Y105790
X112550Y105310
X112230Y101090
X113200Y100800
X113600Y100000
X112800
X112000
X111200
X110800Y099200
X111200Y098400
X112000
X112400Y097600
X111600
X110800
X110000
X109600Y098400
X110000Y096000
X110800
Y094400
X111600
X112400
X114000
X114400Y095200
X113600
X114000Y096000
X114400Y096800
X113600
X114000Y097600
X113600Y098400
X113200Y099200
X114800
X114710Y099820
X115420Y099810
X115600Y099200
X116000Y098400
X115200
X115600Y097600
X118239Y097344
Y099842
Y102340
X117810Y106240
X118239Y094847
X110000Y094400
Y110400
X111200Y109600
X113600Y109480
X114070Y109430
X114820Y109580
X115340Y109720
X116000Y109470
X114515Y110535
X114530Y112820
X115100Y112490
X115770Y112130
X116800Y112800
Y114400
X117600
X116400Y115200
X116800Y116000
X117200Y116800
X116400
X116800Y117600
X116000
X115200
X114400
X113540Y117270
X114000Y116800
X114800
X114400Y116000
X115010Y115340
X114000Y113370
X113000Y113230
X112490Y113020
X112000Y112720
X110950Y112680
X110400Y112800
X110000Y113600
X109600Y114400
X111000Y117210
X111200Y117600
X111600Y118400
X112400
X113200
X114000
X114800
X115600
X116400
X117200
X118000
X113600Y119200
Y120800
X112800
X112000
X112400Y121600
X113200
X111600
X110000
X110400Y120800
X109600
X112800Y117600
X113000Y116800
X112490Y116850
X113050Y111780
X107200Y111200
X106400
X105600
X106000Y112000
X106800
Y110400
X106000
X105200
X104400
Y112000
X105200
X105600Y114400
X106400
X107200
X106800Y115200
X106000
X105200
X104400
X105600Y116000
X106400
X107200
X107770Y115600
X108810Y114730
X106400Y117600
X103210Y116730
X102780Y116360
X102370Y117390
X099600Y116800
X098800
X097889Y116660
X097399Y116270
X097887Y115760
X096779Y115730
X096759Y116670
X096800Y117600
X097600
X098400
X099200
X099600Y118400
X098800
X099200Y119200
Y120800
X100000
X098000Y121600
X097200
X096400
X095600
X096000Y120800
X096800
Y119200
X097600
X096000
X095200
X095600Y120000
X096000Y117600
X095200
X094400
X094800Y116800
X094000
X094400Y116000
X094800Y115200
X094000
X095699Y115730
X095669Y116650
X096200Y116190
X096400Y113600
X097200
X096800Y112800
X097540Y112060
Y111510
X097920Y111270
X098100Y111920
X098000Y110400
X097600Y109600
X099200
X100000
X100800
X101200Y110400
X100400
X099600
X100800Y111200
X101200Y112000
X100400
X100550Y112850
X100000Y112800
X099600Y113600
X098800
X099200Y114400
X100000
X100200Y114800
X099600Y115200
X098800
X099200Y116000
X100900Y114100
X101240Y113380
X096800Y111200
X096400Y110400
X096000Y109600
X094400
X094000Y112000
X094680Y112380
Y112840
X105600Y109600
X106400
X107200
X109200Y120000
X104800Y120800
X105200Y121600
X104400
X093200Y118400
X092400
X092000Y117600
Y116000
X091329Y116610
Y114776
X092000Y114400
Y112800
X091329Y112943
Y111109
X092000Y111200
X093600
X093200Y110400
X092000Y109600
X093600Y116000
T02
X097496Y097028
X098496
X099496
X100496
X101496
X102496
X103496
X106457
X107457
X108457
X109457
X110457
X111457
X112457
X107780Y118272
X106780
X105780
X104780
X103780
X102780
X101780
T03
X093320Y076510
X094320
X095320
X096320
Y079510
X095320
X094320
X093320
T04
X110530Y107310
Y109279
T05
X109457Y084028
X110457
X111457
X112457
X108457
X107457
X106457
X103496
X102496
X101496
X100496
X099496
X098496
X097496
X101780Y105272
X102780
X103780
X104780
X105780
X106780
X107780
T06
X097543Y068900
X098527
X099511
X100496
X103437
X104421
X105406
X106390
X109331Y068900
X105976Y076827
X103976
X113560Y073295
X113570Y071525
X116120Y071535
Y073295
X112284Y068900
X111300
X110316
X117860Y110580
Y111580
Y112580
Y113580
Y115320
Y116320
Y117320
X113026Y119833
X112042
X111058
X110074
X099572Y119800
X098588
X097604
X096619
T07
X093910Y088102
Y095978
M30
